<svg width="12" height="12" viewBox="0 0 12 12" fill="none" xmlns="http://www.w3.org/2000/svg">
<path d="M5.05256 12C5.05087 12 5.04891 12 5.04729 12C4.97786 11.9984 4.91234 11.9653 4.86538 11.9084L0.0671721 6.08232C-0.015103 5.98232 -0.0226579 5.83171 0.049262 5.72197C0.121182 5.61259 0.252146 5.57513 0.362406 5.63259L4.75395 7.92882C4.79094 7.94817 4.83458 7.93879 4.86284 7.90599L11.5617 0.0877448C11.6524 -0.0181872 11.8007 -0.0297505 11.9037 0.0614983C12.0067 0.152747 12.0305 0.316496 11.9585 0.4393L5.2949 11.8384C5.28539 11.855 5.27419 11.87 5.26188 11.884L5.23251 11.9169C5.18464 11.97 5.11971 12 5.05256 12Z" fill="#1A1A1A"/>
</svg>
