<svg width="60" height="60" viewBox="0 0 60 60" fill="none" xmlns="http://www.w3.org/2000/svg">
<g clip-path="url(#clip0_16409_435)">
<path d="M12 28.0312C13.5938 28.0312 14.9062 26.7187 14.9062 25.125V24.8438L18.9375 22.9688C19.5 23.5312 20.25 23.9062 21 23.9062C22.5938 23.9062 23.9062 22.5937 23.9062 21C23.9062 20.5312 23.8125 20.0625 23.625 19.6875L28.7812 14.5312C29.1562 14.7188 29.625 14.8125 30 14.8125C31.2188 14.8125 32.3438 13.9688 32.7188 12.8438H36.1875C36.5625 13.9688 37.5938 14.8125 38.9062 14.8125C40.5 14.8125 41.8125 13.5 41.8125 11.9062C41.8125 11.4375 41.7188 11.0625 41.5312 10.6875L46.4062 5.625C46.7812 5.8125 47.25 5.90625 47.7188 5.90625C49.3125 6 50.625 4.6875 50.625 3.09375C50.625 1.5 49.3125 0.1875 47.7188 0.1875C46.125 0.1875 44.8125 1.5 44.8125 3.09375C44.8125 3.5625 44.9062 4.03125 45.0937 4.40625L40.125 9.375C39.75 9.1875 39.2812 9.09375 38.8125 9.09375C37.5938 9.09375 36.4688 9.9375 36.0938 11.0625H32.625C32.25 9.9375 31.125 9.09375 29.9062 9.09375C28.3125 9.09375 27 10.4062 27 12C27 12.4688 27.0938 12.9375 27.2813 13.3125L22.125 18.4688C21.75 18.2812 21.2812 18.1875 20.9062 18.1875C19.3125 18.1875 18 19.5 18 21.0938V21.375L14.0625 23.25C13.5 22.6875 12.75 22.3125 12 22.3125C10.4063 22.3125 9.09375 23.625 9.09375 25.2187C9.09375 26.7187 10.4063 28.0312 12 28.0312Z" fill="white"/>
<path d="M12 28.0312C13.5938 28.0312 14.9062 26.7187 14.9062 25.125V24.8438L18.9375 22.9688C19.5 23.5312 20.25 23.9062 21 23.9062C22.5938 23.9062 23.9062 22.5937 23.9062 21C23.9062 20.5312 23.8125 20.0625 23.625 19.6875L28.7812 14.5312C29.1562 14.7188 29.625 14.8125 30 14.8125C31.2188 14.8125 32.3438 13.9688 32.7188 12.8438H36.1875C36.5625 13.9688 37.5938 14.8125 38.9062 14.8125C40.5 14.8125 41.8125 13.5 41.8125 11.9062C41.8125 11.4375 41.7188 11.0625 41.5312 10.6875L46.4062 5.625C46.7812 5.8125 47.25 5.90625 47.7188 5.90625C49.3125 6 50.625 4.6875 50.625 3.09375C50.625 1.5 49.3125 0.1875 47.7188 0.1875C46.125 0.1875 44.8125 1.5 44.8125 3.09375C44.8125 3.5625 44.9062 4.03125 45.0937 4.40625L40.125 9.375C39.75 9.1875 39.2812 9.09375 38.8125 9.09375C37.5938 9.09375 36.4688 9.9375 36.0938 11.0625H32.625C32.25 9.9375 31.125 9.09375 29.9062 9.09375C28.3125 9.09375 27 10.4062 27 12C27 12.4688 27.0938 12.9375 27.2813 13.3125L22.125 18.4688C21.75 18.2812 21.2812 18.1875 20.9062 18.1875C19.3125 18.1875 18 19.5 18 21.0938V21.375L14.0625 23.25C13.5 22.6875 12.75 22.3125 12 22.3125C10.4063 22.3125 9.09375 23.625 9.09375 25.2187C9.09375 26.7187 10.4063 28.0312 12 28.0312Z" fill="url(#paint0_linear_16409_435)"/>
<path d="M59.7188 45C59.625 44.8125 56.25 41.5312 50.9062 38.1562V14.1562C50.9062 13.6875 50.5312 13.2188 49.9688 13.2188H45.375C44.9062 13.2188 44.4375 13.5937 44.4375 14.1562V34.7812C43.5938 34.4062 42.75 34.0312 41.9062 33.75V17.625C41.9062 17.1562 41.5312 16.6875 40.9688 16.6875H36.375C35.9062 16.6875 35.4375 17.0625 35.4375 17.625V31.9687C34.5938 31.7812 33.75 31.6875 32.9062 31.5938V21.9375C32.9062 21.4687 32.5312 21 31.9687 21H27.375C26.9062 21 26.4375 21.375 26.4375 21.9375V31.6875C25.5938 31.7812 24.75 31.9687 23.9062 32.1562V26.25C23.9062 25.7812 23.5312 25.3125 22.9688 25.3125H18.375C17.9062 25.3125 17.4375 25.6875 17.4375 26.25V34.3125L14.9062 35.4375V30.5625C14.9062 30.0937 14.5312 29.625 13.9688 29.625H9.375C8.90625 29.625 8.4375 30 8.4375 30.5625V39C4.96875 41.1562 2.15625 43.2187 0.75 44.25C0.46875 44.5312 0.1875 44.7187 0 44.8125C0.1875 45.0937 0 45.375 0 45.5625C0 45.8438 0.09375 46.125 0.28125 46.3125C1.6875 47.7188 14.3437 59.8125 30 59.8125C46.3125 59.8125 59.25 46.875 59.8125 46.3125C60.0938 45.8438 60.0938 45.2812 59.7188 45ZM18.6562 45.5625C18.6562 39.375 23.7188 34.4062 30 34.4062C36.2812 34.4062 41.3438 39.375 41.3438 45.5625C41.3438 51.75 36.2812 56.7188 30 56.7188C23.7188 56.7188 18.6562 51.75 18.6562 45.5625Z" fill="white"/>
<path d="M59.7188 45C59.625 44.8125 56.25 41.5312 50.9062 38.1562V14.1562C50.9062 13.6875 50.5312 13.2188 49.9688 13.2188H45.375C44.9062 13.2188 44.4375 13.5937 44.4375 14.1562V34.7812C43.5938 34.4062 42.75 34.0312 41.9062 33.75V17.625C41.9062 17.1562 41.5312 16.6875 40.9688 16.6875H36.375C35.9062 16.6875 35.4375 17.0625 35.4375 17.625V31.9687C34.5938 31.7812 33.75 31.6875 32.9062 31.5938V21.9375C32.9062 21.4687 32.5312 21 31.9687 21H27.375C26.9062 21 26.4375 21.375 26.4375 21.9375V31.6875C25.5938 31.7812 24.75 31.9687 23.9062 32.1562V26.25C23.9062 25.7812 23.5312 25.3125 22.9688 25.3125H18.375C17.9062 25.3125 17.4375 25.6875 17.4375 26.25V34.3125L14.9062 35.4375V30.5625C14.9062 30.0937 14.5312 29.625 13.9688 29.625H9.375C8.90625 29.625 8.4375 30 8.4375 30.5625V39C4.96875 41.1562 2.15625 43.2187 0.75 44.25C0.46875 44.5312 0.1875 44.7187 0 44.8125C0.1875 45.0937 0 45.375 0 45.5625C0 45.8438 0.09375 46.125 0.28125 46.3125C1.6875 47.7188 14.3437 59.8125 30 59.8125C46.3125 59.8125 59.25 46.875 59.8125 46.3125C60.0938 45.8438 60.0938 45.2812 59.7188 45ZM18.6562 45.5625C18.6562 39.375 23.7188 34.4062 30 34.4062C36.2812 34.4062 41.3438 39.375 41.3438 45.5625C41.3438 51.75 36.2812 56.7188 30 56.7188C23.7188 56.7188 18.6562 51.75 18.6562 45.5625Z" fill="url(#paint1_linear_16409_435)"/>
<path d="M39.4688 45.5625C39.4688 40.4062 35.1563 36.1875 29.9063 36.1875C24.6563 36.1875 20.4375 40.4062 20.4375 45.5625C20.4375 50.7188 24.6563 54.9375 29.9063 54.9375C35.25 54.9375 39.4688 50.7188 39.4688 45.5625ZM25.875 45.5625C25.875 43.3125 27.6563 41.5313 29.9063 41.5313C32.1563 41.5313 33.9375 43.3125 33.9375 45.5625C33.9375 47.8125 32.1563 49.5938 29.9063 49.5938C27.75 49.6875 25.875 47.8125 25.875 45.5625Z" fill="white"/>
<path d="M39.4688 45.5625C39.4688 40.4062 35.1563 36.1875 29.9063 36.1875C24.6563 36.1875 20.4375 40.4062 20.4375 45.5625C20.4375 50.7188 24.6563 54.9375 29.9063 54.9375C35.25 54.9375 39.4688 50.7188 39.4688 45.5625ZM25.875 45.5625C25.875 43.3125 27.6563 41.5313 29.9063 41.5313C32.1563 41.5313 33.9375 43.3125 33.9375 45.5625C33.9375 47.8125 32.1563 49.5938 29.9063 49.5938C27.75 49.6875 25.875 47.8125 25.875 45.5625Z" fill="url(#paint2_linear_16409_435)"/>
<path d="M32.1562 45.5625C32.1562 44.3437 31.125 43.3125 29.9062 43.3125C28.6875 43.3125 27.6562 44.3437 27.6562 45.5625C27.6562 46.7812 28.6875 47.8125 29.9062 47.8125C31.2187 47.8125 32.1562 46.875 32.1562 45.5625Z" fill="white"/>
<path d="M32.1562 45.5625C32.1562 44.3437 31.125 43.3125 29.9062 43.3125C28.6875 43.3125 27.6562 44.3437 27.6562 45.5625C27.6562 46.7812 28.6875 47.8125 29.9062 47.8125C31.2187 47.8125 32.1562 46.875 32.1562 45.5625Z" fill="url(#paint3_linear_16409_435)"/>
</g>
<defs>
<linearGradient id="paint0_linear_16409_435" x1="9.09375" y1="13.9658" x2="50.625" y2="13.9658" gradientUnits="userSpaceOnUse">
<stop stop-color="#7755FF"/>
<stop offset="0.198933" stop-color="#6371F2"/>
<stop offset="0.39624" stop-color="#40A4DA"/>
<stop offset="0.60106" stop-color="#34AED2"/>
<stop offset="0.796668" stop-color="#1BC4BF"/>
<stop offset="1" stop-color="#0DCFB3"/>
</linearGradient>
<linearGradient id="paint1_linear_16409_435" x1="-3.0623e-07" y1="36.2754" x2="60.013" y2="36.2754" gradientUnits="userSpaceOnUse">
<stop stop-color="#7755FF"/>
<stop offset="0.198933" stop-color="#6371F2"/>
<stop offset="0.39624" stop-color="#40A4DA"/>
<stop offset="0.60106" stop-color="#34AED2"/>
<stop offset="0.796668" stop-color="#1BC4BF"/>
<stop offset="1" stop-color="#0DCFB3"/>
</linearGradient>
<linearGradient id="paint2_linear_16409_435" x1="20.4375" y1="45.4658" x2="39.4687" y2="45.4658" gradientUnits="userSpaceOnUse">
<stop stop-color="#7755FF"/>
<stop offset="0.198933" stop-color="#6371F2"/>
<stop offset="0.39624" stop-color="#40A4DA"/>
<stop offset="0.60106" stop-color="#34AED2"/>
<stop offset="0.796668" stop-color="#1BC4BF"/>
<stop offset="1" stop-color="#0DCFB3"/>
</linearGradient>
<linearGradient id="paint3_linear_16409_435" x1="27.6562" y1="45.5393" x2="32.1562" y2="45.5393" gradientUnits="userSpaceOnUse">
<stop stop-color="#7755FF"/>
<stop offset="0.198933" stop-color="#6371F2"/>
<stop offset="0.39624" stop-color="#40A4DA"/>
<stop offset="0.60106" stop-color="#34AED2"/>
<stop offset="0.796668" stop-color="#1BC4BF"/>
<stop offset="1" stop-color="#0DCFB3"/>
</linearGradient>
<clipPath id="clip0_16409_435">
<rect width="60" height="60" fill="white"/>
</clipPath>
</defs>
</svg>
