<svg width="60" height="60" viewBox="0 0 60 60" fill="none" xmlns="http://www.w3.org/2000/svg">
<path fill-rule="evenodd" clip-rule="evenodd" d="M56.2778 35.07C50.7391 35.07 47.9603 41.7799 51.8763 45.6961C52.5977 46.4175 52.5977 47.5876 51.8763 48.3089L47.8989 52.2864C47.1775 53.0078 46.0073 53.0078 45.2859 52.2864C41.3698 48.3702 34.6598 51.1492 34.6598 56.6878C34.6598 57.7085 33.8325 58.5353 32.8124 58.5353H27.1876C26.1675 58.5353 25.3402 57.7085 25.3402 56.6878C25.3402 51.1424 18.6353 48.3654 14.7142 52.2864C13.9928 53.0078 12.8228 53.0078 12.1014 52.2864L8.12391 48.3089C7.4025 47.5875 7.4025 46.4175 8.12391 45.6961C12.0401 41.7799 9.26109 35.07 3.72246 35.07C2.70176 35.07 1.875 34.2427 1.875 33.2225V30.6448C1.875 30.5155 1.98047 30.41 2.10973 30.41H16.0234C16.1514 30.41 16.2558 30.513 16.2578 30.6409C16.3811 38.1252 22.4864 44.1544 30.0001 44.1544C37.5137 44.1544 43.6192 38.1252 43.7425 30.641C43.7446 30.5133 43.8491 30.4102 43.9768 30.4102H57.8904C58.0196 30.4102 58.1251 30.5156 58.1251 30.6449V33.2227C58.1252 34.2427 57.2985 35.07 56.2778 35.07ZM4.20949 25.5558C5.20992 25.5558 6.06328 24.9263 6.39527 24.0418H9.34723L9.33855 28.7695H10.9727L10.9829 23.2215C10.9829 23.0048 10.8968 22.797 10.7436 22.6437C10.5903 22.4905 10.3825 22.4044 10.1658 22.4044V22.4012H6.39527C6.06328 21.5168 5.20992 20.8873 4.20949 20.8873C2.92031 20.8873 1.87523 21.9323 1.87523 23.2215C1.87523 24.5107 2.92031 25.5558 4.20949 25.5558ZM21.7279 6.53203C21.5735 6.68333 21.3657 6.76759 21.1495 6.76651C20.9334 6.76543 20.7264 6.67909 20.5736 6.52626C20.4207 6.37343 20.3344 6.16645 20.3333 5.95031C20.3322 5.73418 20.4165 5.52635 20.5678 5.37199C21.8063 4.13297 23.2768 3.15016 24.8953 2.47975C26.5138 1.80934 28.2486 1.46446 30.0005 1.46484C31.7523 1.46453 33.487 1.80949 35.1054 2.48001C36.7238 3.15052 38.1942 4.13344 39.4325 5.37258C39.5828 5.52713 39.6662 5.73461 39.6646 5.95015C39.6631 6.16569 39.5768 6.37197 39.4244 6.52439C39.272 6.67682 39.0658 6.76313 38.8502 6.76467C38.6347 6.76621 38.4272 6.68285 38.2726 6.53262C36.0645 4.32434 33.123 3.10547 30.0005 3.10547C26.878 3.10547 23.936 4.32387 21.7279 6.53203ZM27.3124 12.1166C27.1579 12.2668 26.9504 12.3502 26.7348 12.3487C26.5193 12.3471 26.313 12.2608 26.1606 12.1084C26.0082 11.956 25.9219 11.7497 25.9204 11.5341C25.9189 11.3186 26.0023 11.1111 26.1525 10.9566C27.1373 9.97172 28.4979 9.36258 30.0006 9.36258C31.4435 9.36444 32.827 9.93753 33.8486 10.9566C33.9988 11.1111 34.0822 11.3186 34.0807 11.5341C34.0791 11.7497 33.9929 11.956 33.8404 12.1084C33.688 12.2608 33.4818 12.3471 33.2662 12.3487C33.0507 12.3502 32.8432 12.2668 32.6886 12.1166C31.9666 11.3946 31.0216 11.0033 30.0006 11.0033C28.9507 11.0033 28.0003 11.4287 27.3124 12.1166ZM36.6407 8.16457C34.8804 6.4043 32.4898 5.41383 30.0006 5.41383C27.5114 5.41383 25.1205 6.40418 23.3603 8.16434C23.209 8.31869 23.1247 8.52652 23.1258 8.74266C23.1269 8.95879 23.2132 9.16577 23.366 9.3186C23.5189 9.47144 23.7259 9.55778 23.942 9.55886C24.1581 9.55994 24.366 9.47567 24.5203 9.32438C25.9854 7.8593 27.9288 7.05445 30.0006 7.05445C32.0723 7.05445 34.0157 7.85953 35.4807 9.32449C35.6346 9.47831 35.8432 9.56473 36.0608 9.56473C36.2783 9.56473 36.4869 9.47831 36.6408 9.32449C36.7946 9.17065 36.8809 8.96202 36.8809 8.74451C36.8809 8.52699 36.7945 8.31839 36.6407 8.16457ZM49.0277 28.7695L49.0175 23.2215C49.0175 23.0048 49.1036 22.797 49.2569 22.6437C49.4101 22.4905 49.618 22.4044 49.8347 22.4044V22.4012H53.6052C53.9373 21.5168 54.7905 20.8873 55.791 20.8873C57.0802 20.8873 58.1252 21.9323 58.1252 23.2215C58.1252 24.5107 57.0802 25.5558 55.791 25.5558C54.7905 25.5558 53.9372 24.9263 53.6052 24.0418H50.6534L50.662 28.7695H49.0277ZM17.0613 14.9796L25.3917 23.31C25.468 23.3861 25.5285 23.4765 25.5697 23.576C25.611 23.6755 25.6321 23.7822 25.632 23.89L25.6321 28.7695H23.9914V24.2297L15.9014 16.1396C15.5982 16.2776 15.2688 16.3487 14.9357 16.3482C13.6465 16.3482 12.6014 15.3032 12.6014 14.0141C12.6014 12.7249 13.6465 11.6798 14.9357 11.6798C16.2248 11.6798 17.2699 12.7249 17.2699 14.0141C17.2699 14.3583 17.1953 14.6852 17.0613 14.9796ZM44.0991 16.1395L36.009 24.2296V28.7695H34.3684V23.89C34.3683 23.7822 34.3895 23.6755 34.4307 23.576C34.472 23.4765 34.5325 23.3861 34.6087 23.31L42.9391 14.9796C42.8012 14.6764 42.7301 14.3471 42.7305 14.014C42.7305 12.7248 43.7756 11.6797 45.0648 11.6797C46.354 11.6797 47.3991 12.7248 47.3991 14.014C47.3991 15.3032 46.354 16.3482 45.0648 16.3482C44.7317 16.3486 44.4023 16.2774 44.0991 16.1395ZM37.9302 30.6519C37.9316 30.6205 37.9264 30.5891 37.915 30.5597C37.9036 30.5303 37.8862 30.5037 37.864 30.4814C37.8424 30.4585 37.8162 30.4403 37.7872 30.428C37.7582 30.4158 37.727 30.4097 37.6955 30.4102H22.305C22.2735 30.4097 22.2423 30.4158 22.2133 30.4281C22.1842 30.4403 22.1581 30.4585 22.1365 30.4814C22.1142 30.5037 22.0969 30.5303 22.0855 30.5597C22.0741 30.5891 22.0689 30.6205 22.0703 30.6519C22.198 34.9216 25.6995 38.3438 30.0002 38.3438C34.3009 38.3438 37.8023 34.9216 37.9302 30.6519Z" fill="white"/>
<path fill-rule="evenodd" clip-rule="evenodd" d="M56.2778 35.07C50.7391 35.07 47.9603 41.7799 51.8763 45.6961C52.5977 46.4175 52.5977 47.5876 51.8763 48.3089L47.8989 52.2864C47.1775 53.0078 46.0073 53.0078 45.2859 52.2864C41.3698 48.3702 34.6598 51.1492 34.6598 56.6878C34.6598 57.7085 33.8325 58.5353 32.8124 58.5353H27.1876C26.1675 58.5353 25.3402 57.7085 25.3402 56.6878C25.3402 51.1424 18.6353 48.3654 14.7142 52.2864C13.9928 53.0078 12.8228 53.0078 12.1014 52.2864L8.12391 48.3089C7.4025 47.5875 7.4025 46.4175 8.12391 45.6961C12.0401 41.7799 9.26109 35.07 3.72246 35.07C2.70176 35.07 1.875 34.2427 1.875 33.2225V30.6448C1.875 30.5155 1.98047 30.41 2.10973 30.41H16.0234C16.1514 30.41 16.2558 30.513 16.2578 30.6409C16.3811 38.1252 22.4864 44.1544 30.0001 44.1544C37.5137 44.1544 43.6192 38.1252 43.7425 30.641C43.7446 30.5133 43.8491 30.4102 43.9768 30.4102H57.8904C58.0196 30.4102 58.1251 30.5156 58.1251 30.6449V33.2227C58.1252 34.2427 57.2985 35.07 56.2778 35.07ZM4.20949 25.5558C5.20992 25.5558 6.06328 24.9263 6.39527 24.0418H9.34723L9.33855 28.7695H10.9727L10.9829 23.2215C10.9829 23.0048 10.8968 22.797 10.7436 22.6437C10.5903 22.4905 10.3825 22.4044 10.1658 22.4044V22.4012H6.39527C6.06328 21.5168 5.20992 20.8873 4.20949 20.8873C2.92031 20.8873 1.87523 21.9323 1.87523 23.2215C1.87523 24.5107 2.92031 25.5558 4.20949 25.5558ZM21.7279 6.53203C21.5735 6.68333 21.3657 6.76759 21.1495 6.76651C20.9334 6.76543 20.7264 6.67909 20.5736 6.52626C20.4207 6.37343 20.3344 6.16645 20.3333 5.95031C20.3322 5.73418 20.4165 5.52635 20.5678 5.37199C21.8063 4.13297 23.2768 3.15016 24.8953 2.47975C26.5138 1.80934 28.2486 1.46446 30.0005 1.46484C31.7523 1.46453 33.487 1.80949 35.1054 2.48001C36.7238 3.15052 38.1942 4.13344 39.4325 5.37258C39.5828 5.52713 39.6662 5.73461 39.6646 5.95015C39.6631 6.16569 39.5768 6.37197 39.4244 6.52439C39.272 6.67682 39.0658 6.76313 38.8502 6.76467C38.6347 6.76621 38.4272 6.68285 38.2726 6.53262C36.0645 4.32434 33.123 3.10547 30.0005 3.10547C26.878 3.10547 23.936 4.32387 21.7279 6.53203ZM27.3124 12.1166C27.1579 12.2668 26.9504 12.3502 26.7348 12.3487C26.5193 12.3471 26.313 12.2608 26.1606 12.1084C26.0082 11.956 25.9219 11.7497 25.9204 11.5341C25.9189 11.3186 26.0023 11.1111 26.1525 10.9566C27.1373 9.97172 28.4979 9.36258 30.0006 9.36258C31.4435 9.36444 32.827 9.93753 33.8486 10.9566C33.9988 11.1111 34.0822 11.3186 34.0807 11.5341C34.0791 11.7497 33.9929 11.956 33.8404 12.1084C33.688 12.2608 33.4818 12.3471 33.2662 12.3487C33.0507 12.3502 32.8432 12.2668 32.6886 12.1166C31.9666 11.3946 31.0216 11.0033 30.0006 11.0033C28.9507 11.0033 28.0003 11.4287 27.3124 12.1166ZM36.6407 8.16457C34.8804 6.4043 32.4898 5.41383 30.0006 5.41383C27.5114 5.41383 25.1205 6.40418 23.3603 8.16434C23.209 8.31869 23.1247 8.52652 23.1258 8.74266C23.1269 8.95879 23.2132 9.16577 23.366 9.3186C23.5189 9.47144 23.7259 9.55778 23.942 9.55886C24.1581 9.55994 24.366 9.47567 24.5203 9.32438C25.9854 7.8593 27.9288 7.05445 30.0006 7.05445C32.0723 7.05445 34.0157 7.85953 35.4807 9.32449C35.6346 9.47831 35.8432 9.56473 36.0608 9.56473C36.2783 9.56473 36.4869 9.47831 36.6408 9.32449C36.7946 9.17065 36.8809 8.96202 36.8809 8.74451C36.8809 8.52699 36.7945 8.31839 36.6407 8.16457ZM49.0277 28.7695L49.0175 23.2215C49.0175 23.0048 49.1036 22.797 49.2569 22.6437C49.4101 22.4905 49.618 22.4044 49.8347 22.4044V22.4012H53.6052C53.9373 21.5168 54.7905 20.8873 55.791 20.8873C57.0802 20.8873 58.1252 21.9323 58.1252 23.2215C58.1252 24.5107 57.0802 25.5558 55.791 25.5558C54.7905 25.5558 53.9372 24.9263 53.6052 24.0418H50.6534L50.662 28.7695H49.0277ZM17.0613 14.9796L25.3917 23.31C25.468 23.3861 25.5285 23.4765 25.5697 23.576C25.611 23.6755 25.6321 23.7822 25.632 23.89L25.6321 28.7695H23.9914V24.2297L15.9014 16.1396C15.5982 16.2776 15.2688 16.3487 14.9357 16.3482C13.6465 16.3482 12.6014 15.3032 12.6014 14.0141C12.6014 12.7249 13.6465 11.6798 14.9357 11.6798C16.2248 11.6798 17.2699 12.7249 17.2699 14.0141C17.2699 14.3583 17.1953 14.6852 17.0613 14.9796ZM44.0991 16.1395L36.009 24.2296V28.7695H34.3684V23.89C34.3683 23.7822 34.3895 23.6755 34.4307 23.576C34.472 23.4765 34.5325 23.3861 34.6087 23.31L42.9391 14.9796C42.8012 14.6764 42.7301 14.3471 42.7305 14.014C42.7305 12.7248 43.7756 11.6797 45.0648 11.6797C46.354 11.6797 47.3991 12.7248 47.3991 14.014C47.3991 15.3032 46.354 16.3482 45.0648 16.3482C44.7317 16.3486 44.4023 16.2774 44.0991 16.1395ZM37.9302 30.6519C37.9316 30.6205 37.9264 30.5891 37.915 30.5597C37.9036 30.5303 37.8862 30.5037 37.864 30.4814C37.8424 30.4585 37.8162 30.4403 37.7872 30.428C37.7582 30.4158 37.727 30.4097 37.6955 30.4102H22.305C22.2735 30.4097 22.2423 30.4158 22.2133 30.4281C22.1842 30.4403 22.1581 30.4585 22.1365 30.4814C22.1142 30.5037 22.0969 30.5303 22.0855 30.5597C22.0741 30.5891 22.0689 30.6205 22.0703 30.6519C22.198 34.9216 25.6995 38.3438 30.0002 38.3438C34.3009 38.3438 37.8023 34.9216 37.9302 30.6519Z" fill="url(#paint0_linear_16409_442)"/>
<defs>
<linearGradient id="paint0_linear_16409_442" x1="1.875" y1="29.7059" x2="58.1252" y2="29.7059" gradientUnits="userSpaceOnUse">
<stop stop-color="#7755FF"/>
<stop offset="0.198933" stop-color="#6371F2"/>
<stop offset="0.39624" stop-color="#40A4DA"/>
<stop offset="0.60106" stop-color="#34AED2"/>
<stop offset="0.796668" stop-color="#1BC4BF"/>
<stop offset="1" stop-color="#0DCFB3"/>
</linearGradient>
</defs>
</svg>
