<svg width="60" height="60" viewBox="0 0 60 60" fill="none" xmlns="http://www.w3.org/2000/svg">
<path fill-rule="evenodd" clip-rule="evenodd" d="M41.0581 5.45391C40.9784 5.26406 41.0218 5.0625 41.1648 4.91953L45.878 0.202734C46.0702 0.0105469 46.3831 0.0105469 46.5718 0.202734L51.2886 4.91953C51.4316 5.0625 51.4714 5.26523 51.3952 5.45156C51.3191 5.64141 51.1456 5.75742 50.9441 5.75742H48.9144C48.6448 5.75742 48.4257 5.97656 48.4257 6.24609V15.9656C46.9738 15.6734 45.4783 15.6734 44.0265 15.9656V6.24492C44.0265 5.97539 43.8073 5.75625 43.5343 5.75625H41.5081C41.3077 5.75625 41.1355 5.64023 41.0581 5.45391ZM21.3835 5.75625H23.4097C23.6816 5.75625 23.9019 5.97539 23.9019 6.24492V15.9516C25.3737 15.7559 26.848 15.6996 28.2999 15.7852V6.24492C28.2999 5.97539 28.5191 5.75625 28.7886 5.75625H30.8183C31.021 5.75625 31.1933 5.64023 31.2706 5.45039C31.3468 5.26406 31.3069 5.06133 31.164 4.91836L26.446 0.202734C26.4008 0.15707 26.3469 0.120823 26.2876 0.0960863C26.2282 0.0713495 26.1646 0.0586134 26.1003 0.0586134C26.036 0.0586134 25.9724 0.0713495 25.913 0.0960863C25.8537 0.120823 25.7999 0.15707 25.7546 0.202734L21.0378 4.91953C20.8948 5.0625 20.8515 5.26523 20.9312 5.45391C21.0073 5.64023 21.1808 5.75625 21.3835 5.75625ZM40.1452 42.068C37.3351 46.0805 34.2987 49.1566 37.8237 57.6773C38.0394 58.1988 37.9831 58.7473 37.6714 59.2148C37.3597 59.6836 36.8745 59.9426 36.3097 59.9426H19.2601C18.4925 59.9426 17.848 59.434 17.6652 58.6898L16.7511 54.9223C10.7382 56.1481 6.47374 55.9418 8.88546 50.2746C7.4171 49.7766 6.93898 48.2684 8.58312 47.5969C7.74991 47.3543 6.37062 46.2352 7.85187 44.9555C6.41398 44.9121 3.34367 44.8922 5.38038 41.5969C9.52296 36.2789 8.45304 34.8363 8.71202 31.9805C9.87804 19.0887 27.3542 13.9125 37.0901 20.6098C35.9112 22.3641 35.2234 24.4734 35.2234 26.7457C35.2234 28.6652 35.6054 30.4031 36.6191 32.0508C37.3632 33.2602 38.337 34.2199 39.2499 35.2934C39.4222 35.4926 39.5687 35.6988 39.6882 35.9109C38.7847 36.5719 38.1964 37.6418 38.1964 38.8477C38.1987 40.241 38.9886 41.4563 40.1452 42.068ZM36.073 32.298C36.073 32.0719 35.937 31.8832 35.7237 31.8129L34.4452 31.398C34.2753 31.3453 34.1558 31.2188 34.1101 31.0465C33.9201 30.3247 33.6331 29.6321 33.2569 28.9875C33.1667 28.8352 33.1644 28.6582 33.2441 28.5023L33.8558 27.3035C33.9589 27.1043 33.9226 26.8711 33.7632 26.7152L32.548 25.4965C32.3886 25.3406 32.1566 25.3043 31.9562 25.4039L30.7609 26.0156C30.6015 26.0988 30.4292 26.0918 30.2722 26.0027C29.6285 25.6261 28.9366 25.3387 28.2155 25.1484C28.0433 25.1016 27.9167 24.9855 27.8605 24.8168L27.4456 23.5383C27.3753 23.3262 27.1866 23.1867 26.964 23.1867H25.2437C25.021 23.1867 24.8323 23.3262 24.762 23.5383L24.3472 24.8168C24.2909 24.9867 24.1644 25.1027 23.9921 25.1484C23.2707 25.3379 22.5787 25.6253 21.9355 26.0027C21.7796 26.093 21.6062 26.0988 21.4468 26.0156L20.248 25.4039C20.0487 25.3043 19.8191 25.3406 19.6597 25.4965L18.4444 26.7152C18.2851 26.8711 18.2487 27.1043 18.3519 27.3035L18.9636 28.5023C19.0433 28.6617 19.0398 28.834 18.9507 28.9875C18.5792 29.625 18.2862 30.3164 18.0976 31.0465C18.0507 31.2188 17.9312 31.3453 17.7624 31.398L16.4839 31.8129C16.2718 31.8832 16.1347 32.0719 16.1347 32.298V34.016C16.1347 34.2422 16.2706 34.4309 16.4839 34.5012L17.7624 34.916C17.9323 34.9688 18.0519 35.0953 18.0976 35.2676C18.2874 35.9988 18.5792 36.6891 18.9507 37.3266C19.0409 37.4789 19.0433 37.6523 18.9636 37.8117L18.3519 39.0106C18.2487 39.2098 18.2851 39.443 18.4444 39.5988L19.6597 40.8141C19.8191 40.9734 20.0487 41.0098 20.248 40.9102L21.4468 40.2984C21.6062 40.2152 21.7784 40.2223 21.9355 40.3113C22.5791 40.688 23.271 40.9754 23.9921 41.1656C24.1644 41.209 24.2909 41.3285 24.3472 41.4973L24.762 42.7758C24.8323 42.9879 25.021 43.1273 25.2437 43.1273H26.964C27.1866 43.1273 27.3753 42.9879 27.4456 42.7758L27.8605 41.4973C27.9167 41.3273 28.0433 41.2078 28.2155 41.1656C28.9369 40.9762 29.6289 40.6887 30.2722 40.3113C30.428 40.2211 30.6015 40.2152 30.7609 40.2984L31.9562 40.9102C32.1554 41.0098 32.3874 40.9734 32.548 40.8141L33.7632 39.5988C33.9226 39.443 33.9589 39.2098 33.8558 39.0106L33.2441 37.8117C33.1644 37.6523 33.1679 37.4801 33.2569 37.3266C33.6329 36.6819 33.9199 35.9893 34.1101 35.2676C34.1569 35.0953 34.2765 34.9688 34.4452 34.916L35.7237 34.5012C35.9359 34.4309 36.073 34.2422 36.073 34.016V32.298ZM26.1003 27.9094C23.2105 27.9094 20.855 30.2684 20.855 33.1547C20.855 36.0445 23.2105 38.4 26.1003 38.4C28.9902 38.4 31.3456 36.0445 31.3456 33.1547C31.3456 30.2684 28.9902 27.9094 26.1003 27.9094ZM43.9585 44.2793H48.4925C49.4956 44.2793 50.3194 43.4754 50.3523 42.4816H42.0976C42.1351 43.4754 42.9589 44.2793 43.9585 44.2793ZM41.514 35.2242C41.6206 35.2148 41.7261 35.2113 41.8327 35.2113H45.264V29.6801L42.7093 27.1254C42.3308 26.7469 42.3308 26.1352 42.7093 25.7602C43.0878 25.3816 43.6995 25.3816 44.0745 25.7602L46.2273 27.9094L48.38 25.7602C48.755 25.3816 49.3667 25.3816 49.7452 25.7602C50.1202 26.1352 50.1202 26.7469 49.7452 27.1254L47.187 29.6801V35.2113H50.6183C50.7247 35.2108 50.831 35.2151 50.937 35.2242C51.1468 34.8094 51.4116 34.4168 51.7339 34.0383C53.5245 31.9418 55.2952 30.5672 55.2952 26.7469C55.2952 21.7371 51.2359 17.6754 46.2261 17.6754C41.2163 17.6754 37.1569 21.7383 37.1569 26.7469C37.1569 30.5672 38.9276 31.9418 40.7183 34.0383C41.0417 34.4168 41.3077 34.8094 41.514 35.2242ZM50.6183 37.1414H41.8316C40.8952 37.1414 40.1277 37.909 40.1277 38.8488C40.1277 39.7852 40.8952 40.5527 41.8316 40.5527H50.6183C51.5581 40.5527 52.3257 39.7852 52.3257 38.8488C52.3257 37.909 51.5593 37.1414 50.6183 37.1414Z" fill="white"/>
<path fill-rule="evenodd" clip-rule="evenodd" d="M41.0581 5.45391C40.9784 5.26406 41.0218 5.0625 41.1648 4.91953L45.878 0.202734C46.0702 0.0105469 46.3831 0.0105469 46.5718 0.202734L51.2886 4.91953C51.4316 5.0625 51.4714 5.26523 51.3952 5.45156C51.3191 5.64141 51.1456 5.75742 50.9441 5.75742H48.9144C48.6448 5.75742 48.4257 5.97656 48.4257 6.24609V15.9656C46.9738 15.6734 45.4783 15.6734 44.0265 15.9656V6.24492C44.0265 5.97539 43.8073 5.75625 43.5343 5.75625H41.5081C41.3077 5.75625 41.1355 5.64023 41.0581 5.45391ZM21.3835 5.75625H23.4097C23.6816 5.75625 23.9019 5.97539 23.9019 6.24492V15.9516C25.3737 15.7559 26.848 15.6996 28.2999 15.7852V6.24492C28.2999 5.97539 28.5191 5.75625 28.7886 5.75625H30.8183C31.021 5.75625 31.1933 5.64023 31.2706 5.45039C31.3468 5.26406 31.3069 5.06133 31.164 4.91836L26.446 0.202734C26.4008 0.15707 26.3469 0.120823 26.2876 0.0960863C26.2282 0.0713495 26.1646 0.0586134 26.1003 0.0586134C26.036 0.0586134 25.9724 0.0713495 25.913 0.0960863C25.8537 0.120823 25.7999 0.15707 25.7546 0.202734L21.0378 4.91953C20.8948 5.0625 20.8515 5.26523 20.9312 5.45391C21.0073 5.64023 21.1808 5.75625 21.3835 5.75625ZM40.1452 42.068C37.3351 46.0805 34.2987 49.1566 37.8237 57.6773C38.0394 58.1988 37.9831 58.7473 37.6714 59.2148C37.3597 59.6836 36.8745 59.9426 36.3097 59.9426H19.2601C18.4925 59.9426 17.848 59.434 17.6652 58.6898L16.7511 54.9223C10.7382 56.1481 6.47374 55.9418 8.88546 50.2746C7.4171 49.7766 6.93898 48.2684 8.58312 47.5969C7.74991 47.3543 6.37062 46.2352 7.85187 44.9555C6.41398 44.9121 3.34367 44.8922 5.38038 41.5969C9.52296 36.2789 8.45304 34.8363 8.71202 31.9805C9.87804 19.0887 27.3542 13.9125 37.0901 20.6098C35.9112 22.3641 35.2234 24.4734 35.2234 26.7457C35.2234 28.6652 35.6054 30.4031 36.6191 32.0508C37.3632 33.2602 38.337 34.2199 39.2499 35.2934C39.4222 35.4926 39.5687 35.6988 39.6882 35.9109C38.7847 36.5719 38.1964 37.6418 38.1964 38.8477C38.1987 40.241 38.9886 41.4563 40.1452 42.068ZM36.073 32.298C36.073 32.0719 35.937 31.8832 35.7237 31.8129L34.4452 31.398C34.2753 31.3453 34.1558 31.2188 34.1101 31.0465C33.9201 30.3247 33.6331 29.6321 33.2569 28.9875C33.1667 28.8352 33.1644 28.6582 33.2441 28.5023L33.8558 27.3035C33.9589 27.1043 33.9226 26.8711 33.7632 26.7152L32.548 25.4965C32.3886 25.3406 32.1566 25.3043 31.9562 25.4039L30.7609 26.0156C30.6015 26.0988 30.4292 26.0918 30.2722 26.0027C29.6285 25.6261 28.9366 25.3387 28.2155 25.1484C28.0433 25.1016 27.9167 24.9855 27.8605 24.8168L27.4456 23.5383C27.3753 23.3262 27.1866 23.1867 26.964 23.1867H25.2437C25.021 23.1867 24.8323 23.3262 24.762 23.5383L24.3472 24.8168C24.2909 24.9867 24.1644 25.1027 23.9921 25.1484C23.2707 25.3379 22.5787 25.6253 21.9355 26.0027C21.7796 26.093 21.6062 26.0988 21.4468 26.0156L20.248 25.4039C20.0487 25.3043 19.8191 25.3406 19.6597 25.4965L18.4444 26.7152C18.2851 26.8711 18.2487 27.1043 18.3519 27.3035L18.9636 28.5023C19.0433 28.6617 19.0398 28.834 18.9507 28.9875C18.5792 29.625 18.2862 30.3164 18.0976 31.0465C18.0507 31.2188 17.9312 31.3453 17.7624 31.398L16.4839 31.8129C16.2718 31.8832 16.1347 32.0719 16.1347 32.298V34.016C16.1347 34.2422 16.2706 34.4309 16.4839 34.5012L17.7624 34.916C17.9323 34.9688 18.0519 35.0953 18.0976 35.2676C18.2874 35.9988 18.5792 36.6891 18.9507 37.3266C19.0409 37.4789 19.0433 37.6523 18.9636 37.8117L18.3519 39.0106C18.2487 39.2098 18.2851 39.443 18.4444 39.5988L19.6597 40.8141C19.8191 40.9734 20.0487 41.0098 20.248 40.9102L21.4468 40.2984C21.6062 40.2152 21.7784 40.2223 21.9355 40.3113C22.5791 40.688 23.271 40.9754 23.9921 41.1656C24.1644 41.209 24.2909 41.3285 24.3472 41.4973L24.762 42.7758C24.8323 42.9879 25.021 43.1273 25.2437 43.1273H26.964C27.1866 43.1273 27.3753 42.9879 27.4456 42.7758L27.8605 41.4973C27.9167 41.3273 28.0433 41.2078 28.2155 41.1656C28.9369 40.9762 29.6289 40.6887 30.2722 40.3113C30.428 40.2211 30.6015 40.2152 30.7609 40.2984L31.9562 40.9102C32.1554 41.0098 32.3874 40.9734 32.548 40.8141L33.7632 39.5988C33.9226 39.443 33.9589 39.2098 33.8558 39.0106L33.2441 37.8117C33.1644 37.6523 33.1679 37.4801 33.2569 37.3266C33.6329 36.6819 33.9199 35.9893 34.1101 35.2676C34.1569 35.0953 34.2765 34.9688 34.4452 34.916L35.7237 34.5012C35.9359 34.4309 36.073 34.2422 36.073 34.016V32.298ZM26.1003 27.9094C23.2105 27.9094 20.855 30.2684 20.855 33.1547C20.855 36.0445 23.2105 38.4 26.1003 38.4C28.9902 38.4 31.3456 36.0445 31.3456 33.1547C31.3456 30.2684 28.9902 27.9094 26.1003 27.9094ZM43.9585 44.2793H48.4925C49.4956 44.2793 50.3194 43.4754 50.3523 42.4816H42.0976C42.1351 43.4754 42.9589 44.2793 43.9585 44.2793ZM41.514 35.2242C41.6206 35.2148 41.7261 35.2113 41.8327 35.2113H45.264V29.6801L42.7093 27.1254C42.3308 26.7469 42.3308 26.1352 42.7093 25.7602C43.0878 25.3816 43.6995 25.3816 44.0745 25.7602L46.2273 27.9094L48.38 25.7602C48.755 25.3816 49.3667 25.3816 49.7452 25.7602C50.1202 26.1352 50.1202 26.7469 49.7452 27.1254L47.187 29.6801V35.2113H50.6183C50.7247 35.2108 50.831 35.2151 50.937 35.2242C51.1468 34.8094 51.4116 34.4168 51.7339 34.0383C53.5245 31.9418 55.2952 30.5672 55.2952 26.7469C55.2952 21.7371 51.2359 17.6754 46.2261 17.6754C41.2163 17.6754 37.1569 21.7383 37.1569 26.7469C37.1569 30.5672 38.9276 31.9418 40.7183 34.0383C41.0417 34.4168 41.3077 34.8094 41.514 35.2242ZM50.6183 37.1414H41.8316C40.8952 37.1414 40.1277 37.909 40.1277 38.8488C40.1277 39.7852 40.8952 40.5527 41.8316 40.5527H50.6183C51.5581 40.5527 52.3257 39.7852 52.3257 38.8488C52.3257 37.909 51.5593 37.1414 50.6183 37.1414Z" fill="url(#paint0_linear_16409_446)"/>
<defs>
<linearGradient id="paint0_linear_16409_446" x1="4.70312" y1="29.6919" x2="55.2952" y2="29.6919" gradientUnits="userSpaceOnUse">
<stop stop-color="#7755FF"/>
<stop offset="0.198933" stop-color="#6371F2"/>
<stop offset="0.39624" stop-color="#40A4DA"/>
<stop offset="0.60106" stop-color="#34AED2"/>
<stop offset="0.796668" stop-color="#1BC4BF"/>
<stop offset="1" stop-color="#0DCFB3"/>
</linearGradient>
</defs>
</svg>
