<svg width="60" height="60" viewBox="0 0 60 60" fill="none" xmlns="http://www.w3.org/2000/svg">
<g clip-path="url(#clip0_16409_450)">
<path d="M20.9531 51.5625H18.75C18.3188 51.5625 17.9438 51.8531 17.8406 52.275L17.0812 55.3125H15.8044C15.3853 53.7 13.9294 52.5 12.1875 52.5C10.1194 52.5 8.4375 54.1819 8.4375 56.25C8.4375 58.3181 10.1194 60 12.1875 60C13.9294 60 15.3844 58.8 15.8044 57.1875H17.8125C18.2437 57.1875 18.6187 56.8969 18.7219 56.475L19.4813 53.4375H22.9594C22.2469 52.8563 21.5813 52.2375 20.9531 51.5625ZM11.25 42.1875H15.7219C15.2531 40.4156 15 38.5688 15 36.6844V31.5187C15 30.45 15.5906 29.4844 16.5562 29.0063L28.7437 22.9031C29.1281 22.7156 29.5688 22.6125 30 22.6125C30.4312 22.6125 30.8719 22.7156 31.2563 22.9031L43.4437 28.9969C44.4094 29.4844 45 30.45 45 31.5187V36.6844C45 38.5688 44.7469 40.4156 44.2781 42.1875H48.75C54.9562 42.1875 60 37.1437 60 30.9375C60 25.575 56.1375 20.9719 50.9906 19.9219C51.3656 18.9469 51.5625 17.9156 51.5625 16.875C51.5625 12.225 47.775 8.4375 43.125 8.4375H42.8719C40.6594 3.36563 35.5781 0 30 0C24.0281 0 18.6938 3.83438 16.7344 9.4125C16.4719 9.38437 16.2094 9.375 15.9375 9.375C11.2875 9.375 7.5 13.1625 7.5 17.8125C7.5 18.6281 7.62187 19.4344 7.84687 20.2219C3.24375 21.675 0 26.025 0 30.9375C0 37.1437 5.04375 42.1875 11.25 42.1875ZM12.1875 49.6875C12.6187 49.6875 12.9938 49.3969 13.0969 48.975L13.8562 45.9375H17.1C16.8094 45.3281 16.5469 44.7 16.3125 44.0625H13.125C12.6938 44.0625 12.3187 44.3531 12.2156 44.775L11.4563 47.8125H9.24187C8.82281 46.2 7.36688 45 5.625 45C3.55687 45 1.875 46.6819 1.875 48.75C1.875 50.8181 3.55687 52.5 5.625 52.5C7.36688 52.5 8.82187 51.3 9.24187 49.6875H12.1875Z" fill="white"/>
<path d="M20.9531 51.5625H18.75C18.3188 51.5625 17.9438 51.8531 17.8406 52.275L17.0812 55.3125H15.8044C15.3853 53.7 13.9294 52.5 12.1875 52.5C10.1194 52.5 8.4375 54.1819 8.4375 56.25C8.4375 58.3181 10.1194 60 12.1875 60C13.9294 60 15.3844 58.8 15.8044 57.1875H17.8125C18.2437 57.1875 18.6187 56.8969 18.7219 56.475L19.4813 53.4375H22.9594C22.2469 52.8563 21.5813 52.2375 20.9531 51.5625ZM11.25 42.1875H15.7219C15.2531 40.4156 15 38.5688 15 36.6844V31.5187C15 30.45 15.5906 29.4844 16.5562 29.0063L28.7437 22.9031C29.1281 22.7156 29.5688 22.6125 30 22.6125C30.4312 22.6125 30.8719 22.7156 31.2563 22.9031L43.4437 28.9969C44.4094 29.4844 45 30.45 45 31.5187V36.6844C45 38.5688 44.7469 40.4156 44.2781 42.1875H48.75C54.9562 42.1875 60 37.1437 60 30.9375C60 25.575 56.1375 20.9719 50.9906 19.9219C51.3656 18.9469 51.5625 17.9156 51.5625 16.875C51.5625 12.225 47.775 8.4375 43.125 8.4375H42.8719C40.6594 3.36563 35.5781 0 30 0C24.0281 0 18.6938 3.83438 16.7344 9.4125C16.4719 9.38437 16.2094 9.375 15.9375 9.375C11.2875 9.375 7.5 13.1625 7.5 17.8125C7.5 18.6281 7.62187 19.4344 7.84687 20.2219C3.24375 21.675 0 26.025 0 30.9375C0 37.1437 5.04375 42.1875 11.25 42.1875ZM12.1875 49.6875C12.6187 49.6875 12.9938 49.3969 13.0969 48.975L13.8562 45.9375H17.1C16.8094 45.3281 16.5469 44.7 16.3125 44.0625H13.125C12.6938 44.0625 12.3187 44.3531 12.2156 44.775L11.4563 47.8125H9.24187C8.82281 46.2 7.36688 45 5.625 45C3.55687 45 1.875 46.6819 1.875 48.75C1.875 50.8181 3.55687 52.5 5.625 52.5C7.36688 52.5 8.82187 51.3 9.24187 49.6875H12.1875Z" fill="url(#paint0_linear_16409_450)"/>
<path d="M21.5625 33.8345V36.6882C21.5674 39.5077 22.3599 42.2698 23.8507 44.6629C25.3416 47.056 27.4714 48.985 30 50.2323C32.5286 48.985 34.6584 47.056 36.1493 44.6629C37.6401 42.2698 38.4326 39.5077 38.4375 36.6882V33.8345L30 29.6157L21.5625 33.8345ZM34.4128 36.8373C34.5886 37.0131 34.6873 37.2515 34.6873 37.5001C34.6873 37.7487 34.5886 37.9871 34.4128 38.1629L29.7253 42.8504C29.6385 42.9378 29.5352 43.0071 29.4214 43.0544C29.3077 43.1017 29.1857 43.1261 29.0625 43.1261C28.9393 43.1261 28.8173 43.1017 28.7036 43.0544C28.5898 43.0071 28.4865 42.9378 28.3997 42.8504L25.5872 40.0379C25.4976 39.9514 25.4262 39.848 25.3771 39.7336C25.328 39.6192 25.3021 39.4962 25.301 39.3717C25.2999 39.2472 25.3237 39.1238 25.3708 39.0086C25.4179 38.8934 25.4875 38.7887 25.5756 38.7007C25.6636 38.6126 25.7683 38.543 25.8835 38.4959C25.9987 38.4488 26.1221 38.425 26.2466 38.4261C26.3711 38.4272 26.4941 38.4531 26.6085 38.5022C26.7229 38.5513 26.8263 38.6227 26.9128 38.7123L29.0625 40.862L33.0872 36.8373C33.263 36.6615 33.5014 36.5628 33.75 36.5628C33.9986 36.5628 34.237 36.6615 34.4128 36.8373Z" fill="white"/>
<path d="M21.5625 33.8345V36.6882C21.5674 39.5077 22.3599 42.2698 23.8507 44.6629C25.3416 47.056 27.4714 48.985 30 50.2323C32.5286 48.985 34.6584 47.056 36.1493 44.6629C37.6401 42.2698 38.4326 39.5077 38.4375 36.6882V33.8345L30 29.6157L21.5625 33.8345ZM34.4128 36.8373C34.5886 37.0131 34.6873 37.2515 34.6873 37.5001C34.6873 37.7487 34.5886 37.9871 34.4128 38.1629L29.7253 42.8504C29.6385 42.9378 29.5352 43.0071 29.4214 43.0544C29.3077 43.1017 29.1857 43.1261 29.0625 43.1261C28.9393 43.1261 28.8173 43.1017 28.7036 43.0544C28.5898 43.0071 28.4865 42.9378 28.3997 42.8504L25.5872 40.0379C25.4976 39.9514 25.4262 39.848 25.3771 39.7336C25.328 39.6192 25.3021 39.4962 25.301 39.3717C25.2999 39.2472 25.3237 39.1238 25.3708 39.0086C25.4179 38.8934 25.4875 38.7887 25.5756 38.7007C25.6636 38.6126 25.7683 38.543 25.8835 38.4959C25.9987 38.4488 26.1221 38.425 26.2466 38.4261C26.3711 38.4272 26.4941 38.4531 26.6085 38.5022C26.7229 38.5513 26.8263 38.6227 26.9128 38.7123L29.0625 40.862L33.0872 36.8373C33.263 36.6615 33.5014 36.5628 33.75 36.5628C33.9986 36.5628 34.237 36.6615 34.4128 36.8373Z" fill="url(#paint1_linear_16409_450)"/>
<path d="M43.125 36.6882V31.517C43.1249 31.3429 43.0764 31.1723 42.9848 31.0243C42.8932 30.8763 42.7623 30.7566 42.6066 30.6788L30.4191 24.5851C30.2889 24.5201 30.1455 24.4863 30 24.4863C29.8545 24.4863 29.7111 24.5201 29.5809 24.5851L17.3934 30.6788C17.2377 30.7566 17.1068 30.8763 17.0152 31.0243C16.9236 31.1723 16.8751 31.3429 16.875 31.517V36.6882C16.875 44.8679 22.0162 52.3032 29.6691 55.1907C29.8823 55.2713 30.1177 55.2713 30.3309 55.1907C37.9838 52.3032 43.125 44.8688 43.125 36.6882ZM30.39 52.1232C30.2674 52.1785 30.1345 52.2071 30 52.2071C29.8655 52.2071 29.7326 52.1785 29.61 52.1232C23.5819 49.3688 19.6875 43.3117 19.6875 36.6882V33.256C19.6874 33.0818 19.7359 32.911 19.8275 32.7628C19.919 32.6146 20.0501 32.4948 20.2059 32.417L29.5809 27.7295C29.8444 27.5982 30.1556 27.5982 30.4191 27.7295L39.7941 32.417C39.9499 32.4948 40.081 32.6146 40.1725 32.7628C40.2641 32.911 40.3126 33.0818 40.3125 33.256V36.6873C40.3125 43.3117 36.4172 49.3698 30.39 52.1232ZM54.375 45.0001C52.6331 45.0001 51.1781 46.2001 50.7581 47.8126H48.5437L47.7844 44.7751C47.7349 44.5714 47.6182 44.3904 47.4533 44.2611C47.2883 44.1319 47.0846 44.0619 46.875 44.0626H43.6875C43.4531 44.7001 43.1906 45.3282 42.9 45.9376H46.1438L46.9031 48.9751C47.0062 49.397 47.3813 49.6876 47.8125 49.6876H50.7581C51.1772 51.3001 52.6331 52.5001 54.375 52.5001C56.4431 52.5001 58.125 50.8182 58.125 48.7501C58.125 46.682 56.4431 45.0001 54.375 45.0001ZM47.8125 52.5001C46.0706 52.5001 44.6156 53.7001 44.1956 55.3126H42.9187L42.1594 52.2751C42.1099 52.0714 41.9932 51.8904 41.8283 51.7611C41.6633 51.6319 41.4596 51.5619 41.25 51.5626H39.0469C38.4188 52.2376 37.7531 52.8563 37.0406 53.4376H40.5188L41.2781 56.4751C41.3812 56.897 41.7563 57.1876 42.1875 57.1876H44.1956C44.6147 58.8001 46.0706 60.0001 47.8125 60.0001C49.8806 60.0001 51.5625 58.3182 51.5625 56.2501C51.5625 54.182 49.8806 52.5001 47.8125 52.5001Z" fill="white"/>
<path d="M43.125 36.6882V31.517C43.1249 31.3429 43.0764 31.1723 42.9848 31.0243C42.8932 30.8763 42.7623 30.7566 42.6066 30.6788L30.4191 24.5851C30.2889 24.5201 30.1455 24.4863 30 24.4863C29.8545 24.4863 29.7111 24.5201 29.5809 24.5851L17.3934 30.6788C17.2377 30.7566 17.1068 30.8763 17.0152 31.0243C16.9236 31.1723 16.8751 31.3429 16.875 31.517V36.6882C16.875 44.8679 22.0162 52.3032 29.6691 55.1907C29.8823 55.2713 30.1177 55.2713 30.3309 55.1907C37.9838 52.3032 43.125 44.8688 43.125 36.6882ZM30.39 52.1232C30.2674 52.1785 30.1345 52.2071 30 52.2071C29.8655 52.2071 29.7326 52.1785 29.61 52.1232C23.5819 49.3688 19.6875 43.3117 19.6875 36.6882V33.256C19.6874 33.0818 19.7359 32.911 19.8275 32.7628C19.919 32.6146 20.0501 32.4948 20.2059 32.417L29.5809 27.7295C29.8444 27.5982 30.1556 27.5982 30.4191 27.7295L39.7941 32.417C39.9499 32.4948 40.081 32.6146 40.1725 32.7628C40.2641 32.911 40.3126 33.0818 40.3125 33.256V36.6873C40.3125 43.3117 36.4172 49.3698 30.39 52.1232ZM54.375 45.0001C52.6331 45.0001 51.1781 46.2001 50.7581 47.8126H48.5437L47.7844 44.7751C47.7349 44.5714 47.6182 44.3904 47.4533 44.2611C47.2883 44.1319 47.0846 44.0619 46.875 44.0626H43.6875C43.4531 44.7001 43.1906 45.3282 42.9 45.9376H46.1438L46.9031 48.9751C47.0062 49.397 47.3813 49.6876 47.8125 49.6876H50.7581C51.1772 51.3001 52.6331 52.5001 54.375 52.5001C56.4431 52.5001 58.125 50.8182 58.125 48.7501C58.125 46.682 56.4431 45.0001 54.375 45.0001ZM47.8125 52.5001C46.0706 52.5001 44.6156 53.7001 44.1956 55.3126H42.9187L42.1594 52.2751C42.1099 52.0714 41.9932 51.8904 41.8283 51.7611C41.6633 51.6319 41.4596 51.5619 41.25 51.5626H39.0469C38.4188 52.2376 37.7531 52.8563 37.0406 53.4376H40.5188L41.2781 56.4751C41.3812 56.897 41.7563 57.1876 42.1875 57.1876H44.1956C44.6147 58.8001 46.0706 60.0001 47.8125 60.0001C49.8806 60.0001 51.5625 58.3182 51.5625 56.2501C51.5625 54.182 49.8806 52.5001 47.8125 52.5001Z" fill="url(#paint2_linear_16409_450)"/>
</g>
<defs>
<linearGradient id="paint0_linear_16409_450" x1="-3.06164e-07" y1="29.6907" x2="60" y2="29.6907" gradientUnits="userSpaceOnUse">
<stop stop-color="#7755FF"/>
<stop offset="0.198933" stop-color="#6371F2"/>
<stop offset="0.39624" stop-color="#40A4DA"/>
<stop offset="0.60106" stop-color="#34AED2"/>
<stop offset="0.796668" stop-color="#1BC4BF"/>
<stop offset="1" stop-color="#0DCFB3"/>
</linearGradient>
<linearGradient id="paint1_linear_16409_450" x1="21.5625" y1="39.8177" x2="38.4375" y2="39.8177" gradientUnits="userSpaceOnUse">
<stop stop-color="#7755FF"/>
<stop offset="0.198933" stop-color="#6371F2"/>
<stop offset="0.39624" stop-color="#40A4DA"/>
<stop offset="0.60106" stop-color="#34AED2"/>
<stop offset="0.796668" stop-color="#1BC4BF"/>
<stop offset="1" stop-color="#0DCFB3"/>
</linearGradient>
<linearGradient id="paint2_linear_16409_450" x1="16.875" y1="42.0601" x2="58.125" y2="42.0601" gradientUnits="userSpaceOnUse">
<stop stop-color="#7755FF"/>
<stop offset="0.198933" stop-color="#6371F2"/>
<stop offset="0.39624" stop-color="#40A4DA"/>
<stop offset="0.60106" stop-color="#34AED2"/>
<stop offset="0.796668" stop-color="#1BC4BF"/>
<stop offset="1" stop-color="#0DCFB3"/>
</linearGradient>
<clipPath id="clip0_16409_450">
<rect width="60" height="60" fill="white"/>
</clipPath>
</defs>
</svg>
