<svg width="31" height="31" viewBox="0 0 31 31" fill="none" xmlns="http://www.w3.org/2000/svg">
<path d="M30.9771 2.34777C30.9404 1.74317 30.6836 1.17293 30.2553 0.744635C29.827 0.316335 29.2567 0.0595944 28.652 0.022853C26.702 -0.0933926 21.7184 0.0848505 17.5828 4.21855L16.8465 4.96407H7.80476C7.47781 4.96223 7.15376 5.02541 6.85145 5.14994C6.54915 5.27446 6.27462 5.45786 6.04385 5.68944L0.727017 11.0088C0.400951 11.3347 0.172148 11.7449 0.0662865 12.1935C-0.0395752 12.6421 -0.0183061 13.1113 0.127707 13.5485C0.27372 13.9857 0.538698 14.3736 0.892904 14.6685C1.24711 14.9635 1.67652 15.154 2.13295 15.2185L8.09617 16.0508L14.9492 22.9031L15.7816 28.8688C15.8456 29.3252 16.036 29.7546 16.3313 30.1085C16.6266 30.4624 17.015 30.7266 17.4526 30.8713C17.7074 30.9565 17.9744 30.9999 18.2431 31C18.5685 31.0006 18.8908 30.9368 19.1914 30.8123C19.492 30.6878 19.765 30.5051 19.9947 30.2746L25.3146 24.9583C25.5463 24.7276 25.7297 24.4531 25.8542 24.1508C25.9787 23.8485 26.0419 23.5245 26.0401 23.1976V14.1568L26.7795 13.4175C30.9151 9.28221 31.0934 4.29914 30.9771 2.34777ZM7.80476 7.44398H14.3663L8.23878 13.5693L2.47863 12.7665L7.80476 7.44398ZM19.339 5.97928C20.5306 4.78046 21.9643 3.84967 23.5444 3.24909C25.1245 2.6485 26.8145 2.39195 28.5016 2.49656C28.6103 4.18442 28.3564 5.87598 27.757 7.45756C27.1575 9.03914 26.2265 10.4741 25.0263 11.666L16.1195 20.5689L10.4337 14.8837L19.339 5.97928ZM23.5599 23.1976L18.2385 28.5232L17.434 22.7621L23.5599 16.6367V23.1976ZM12.0644 24.67C11.3669 26.1983 9.03398 29.7631 2.47863 29.7631C2.14974 29.7631 1.83432 29.6325 1.60176 29.4C1.3692 29.1674 1.23855 28.852 1.23855 28.5232C1.23855 21.9685 4.80377 19.6358 6.33217 18.9368C6.48036 18.8692 6.64041 18.8315 6.80319 18.8258C6.96596 18.82 7.12827 18.8464 7.28085 18.9034C7.43342 18.9604 7.57328 19.0469 7.69243 19.1579C7.81157 19.269 7.90768 19.4024 7.97527 19.5506C8.04285 19.6988 8.08058 19.8588 8.08631 20.0215C8.09204 20.1843 8.06565 20.3466 8.00865 20.4992C7.95165 20.6517 7.86515 20.7916 7.7541 20.9107C7.64305 21.0298 7.50962 21.1259 7.36143 21.1935C6.36472 21.6476 4.16513 23.1092 3.77761 27.2243C7.89311 26.8369 9.35795 24.6375 9.80903 23.6409C9.87661 23.4927 9.97272 23.3593 10.0919 23.2482C10.211 23.1372 10.3509 23.0507 10.5035 22.9937C10.656 22.9367 10.8183 22.9103 10.9811 22.9161C11.1439 22.9218 11.3039 22.9595 11.4521 23.0271C11.6003 23.0947 11.7338 23.1908 11.8448 23.3099C11.9559 23.429 12.0423 23.5689 12.0993 23.7214C12.1564 23.874 12.1827 24.0363 12.177 24.1991C12.1713 24.3618 12.1336 24.5219 12.066 24.67H12.0644Z" fill="white"/>
</svg>
