<svg width="130" height="123" viewBox="0 0 130 123" fill="none" xmlns="http://www.w3.org/2000/svg">
<path fill-rule="evenodd" clip-rule="evenodd" d="M86.2222 110.932C85.6667 111.154 85.2222 111.486 84.7778 111.929C84.4444 112.261 84.2222 112.704 84.1111 113.257C84 113.7 84.1111 114.143 84.2222 114.586C84.3333 115.029 84.6667 115.472 85.1111 115.693C85.4445 115.914 85.8889 116.025 86.3333 116.025C86.8889 116.025 87.3333 116.025 87.8889 115.914C88.3333 115.914 88.6667 115.804 89.1111 115.804C89.4444 115.804 89.6667 115.914 90 116.025C90.2222 116.136 90.4445 116.357 90.5556 116.689C90.7778 117.022 90.6667 117.464 90.5556 117.907C90.3333 118.239 90 118.572 89.5556 118.682C89.1111 118.904 88.6667 118.904 88.2222 118.793C87.8889 118.682 87.5556 118.461 87.3333 118.129L86.1111 118.572C86.4445 119.236 87 119.679 87.6667 119.789C88.4445 120.011 89.2222 119.9 89.8889 119.568C90.4445 119.347 90.8889 119.014 91.2222 118.682C91.5556 118.35 91.7778 117.907 91.8889 117.464C92 117.022 91.8889 116.468 91.7778 116.025C91.6667 115.582 91.3333 115.14 90.8889 114.918C90.5556 114.697 90.1111 114.586 89.7778 114.586C89.2222 114.586 88.7778 114.586 88.2222 114.697C87.7778 114.697 87.4444 114.807 87 114.807C86.6667 114.807 86.4445 114.697 86.1111 114.586C85.7778 114.475 85.6667 114.143 85.5556 113.922C85.3333 113.479 85.4445 113.036 85.5556 112.704C85.7778 112.261 86.2222 111.929 86.6667 111.818C87.1111 111.597 87.6667 111.597 88.1111 111.707C88.5556 111.818 88.7778 112.15 89 112.482L90.2222 112.04C90 111.597 89.7778 111.265 89.3333 110.932C88.8889 110.711 88.4445 110.49 87.8889 110.49C87.3333 110.6 86.7778 110.711 86.2222 110.932ZM81.3333 116.579C81.2222 115.914 80.8889 115.25 80.4445 114.697C80 114.254 79.5556 113.811 78.8889 113.7C78.2222 113.479 77.6667 113.479 77 113.59C76.2222 113.7 75.5556 114.143 75 114.697C74.5556 115.25 74.2222 115.914 74.2222 116.689L75.5556 116.468C75.5556 116.025 75.7778 115.582 76.1111 115.25C76.4445 114.918 76.8889 114.697 77.3333 114.586C78 114.475 78.6667 114.586 79.1111 114.918C79.6667 115.361 80 116.025 80.1111 116.8C80.3333 117.464 80.2222 118.239 79.8889 118.904C79.5556 119.457 79 119.789 78.3333 119.9C77.8889 120.011 77.3333 120.011 76.8889 119.789C76.4444 119.568 76.1111 119.347 76 118.904L74.6667 119.125C75 119.789 75.4445 120.343 76.1111 120.675C77.4445 121.229 79 121.007 80.1111 120.011C80.5556 119.568 80.8889 119.014 81.1111 118.461C81.4445 118.018 81.4444 117.243 81.3333 116.579ZM69.6667 120.896L69.7778 122.114L71 122.004L70.6667 114.697L69.4445 114.807L69.6667 118.793C69.8889 119.789 69.2222 120.786 68.2222 121.007C68 121.007 67.8889 121.007 67.6667 121.007H67.3333L67.4444 122.225C68 122.225 68.4445 122.114 68.8889 121.782C69.2222 121.561 69.4444 121.229 69.6667 120.896ZM60.7778 114.475C60.1111 114.365 59.4444 114.475 58.8889 114.697C58.3333 114.918 57.7778 115.361 57.4444 115.914C57 116.468 56.7778 117.132 56.7778 117.797C56.6667 118.461 56.7778 119.125 57.1111 119.789C57.3333 120.343 57.7778 120.896 58.3333 121.229C59.4444 122.004 60.8889 122.114 62.1111 121.561C62.6667 121.339 63.2222 120.896 63.5556 120.343C64 119.789 64.2222 119.125 64.2222 118.461C64.3333 117.797 64.2222 117.132 64 116.468C63.7778 115.914 63.3333 115.361 62.7778 115.029C62.1111 114.697 61.4444 114.475 60.7778 114.475ZM60.6667 115.472C61.1111 115.472 61.4444 115.693 61.7778 115.914C62.1111 116.136 62.4444 116.468 62.5556 116.911C62.7778 117.354 62.7778 117.907 62.7778 118.461C62.7778 119.014 62.5556 119.457 62.3333 119.9C62.1111 120.232 61.7778 120.564 61.3333 120.675C60.5556 121.007 59.6667 120.896 58.8889 120.454C58.5556 120.232 58.2222 119.9 58.1111 119.457C57.8889 119.014 57.8889 118.461 57.8889 117.907C57.8889 117.354 58.1111 116.911 58.4444 116.468C58.6667 116.136 59 115.804 59.4444 115.693C59.8889 115.582 60.3333 115.472 60.6667 115.472ZM51.5556 123L53.8889 113.479L52.6667 113.147L50.3333 122.668L51.5556 123ZM46 121.45L49.2222 112.15L48.1111 111.707L44.8889 121.007L46 121.45ZM38.4444 111.486C38.7778 110.932 39.1111 110.268 39.1111 109.604C39.2222 108.386 38.6667 107.168 37.5556 106.393C37.1111 106.061 36.5556 105.84 35.8889 105.84C35.3333 105.84 34.8889 105.951 34.4444 106.172L35.2222 105.065L34.2222 104.401L28.8889 112.704L29.8889 113.368L32 110.158C32 110.711 32.1111 111.154 32.3333 111.597C32.5556 112.04 33 112.482 33.4444 112.815C34 113.147 34.5556 113.368 35.2222 113.368C35.8889 113.368 36.4445 113.257 37 112.925C37.5556 112.593 38 112.15 38.4444 111.486ZM33.2222 108.165C33.4444 107.722 33.8889 107.39 34.3333 107.168C34.6667 106.947 35.1111 106.836 35.5556 106.836C36 106.836 36.4444 106.947 36.7778 107.279C37.1111 107.5 37.4444 107.833 37.6667 108.275C37.8889 108.718 38 109.161 37.8889 109.604C37.8889 110.158 37.6667 110.6 37.3333 111.043C37.1111 111.486 36.6667 111.818 36.2222 112.04C35.8889 112.261 35.4444 112.372 35 112.372C34.1111 112.261 33.3333 111.818 32.8889 111.043C32.6667 110.6 32.5556 110.158 32.6667 109.825C32.7778 109.05 32.8889 108.608 33.2222 108.165ZM29.1111 99.8614C28.6667 99.4185 28.1111 99.0864 27.4444 98.865C26.7778 98.6436 26.2222 98.7543 25.5556 98.865C24.8889 99.0864 24.3333 99.4185 23.7778 99.9721C23.3333 100.415 22.8889 101.079 22.7778 101.743C22.6667 102.408 22.6667 102.961 22.7778 103.626C23.2222 104.843 24.2222 105.84 25.4444 106.172C26.1111 106.393 26.6667 106.283 27.3333 106.172C28 105.951 28.5556 105.618 29 105.065C29.4444 104.622 29.8889 103.958 30 103.293C30.2222 102.74 30.1111 102.076 30 101.411C29.8889 100.858 29.5556 100.304 29.1111 99.8614ZM28.3333 100.636C28.6667 100.968 28.8889 101.301 29 101.633C29.1111 102.076 29.1111 102.518 29 102.851C28.8889 103.293 28.5556 103.847 28.2222 104.179C27.8889 104.511 27.4444 104.843 27 105.065C26.5556 105.176 26.1111 105.176 25.7778 105.065C25 104.843 24.3333 104.179 24 103.404C23.8889 102.961 23.8889 102.518 24 102.076C24.1111 101.633 24.4444 101.079 24.7778 100.747C25.1111 100.415 25.5556 100.083 26.1111 99.8614C26.5556 99.7507 27 99.7507 27.4444 99.8614C27.6667 100.083 28 100.304 28.3333 100.636ZM13.3333 92.0009L19.3333 89.8974L15.2222 94.7687L15.8889 95.7651L22 93.7723L17.8889 98.6436L18.5556 99.64L23.3333 93.6616L22.6667 92.6652L16.8889 94.4365L20.6667 89.7867L20 88.7903L12.6667 91.0045L13.3333 92.0009ZM9.33333 83.919C9.55556 84.3618 9.77778 84.8047 10.1111 85.0261C10.4444 85.3582 10.8889 85.4689 11.3333 85.5797L10.3333 86.0225L10.7778 87.1296L17.5556 84.3618L17.1111 83.2547L13.3333 84.8047C12.7778 85.1368 12.1111 85.1368 11.5556 84.9154C11 84.694 10.6667 84.2511 10.4444 83.6976C10.2222 83.144 10.2222 82.5905 10.4444 82.1476C10.7778 81.5941 11.2222 81.1512 11.7778 81.0405L15.5556 79.4905L15.1111 78.3834L11.1111 80.0441C10.3333 80.2655 9.66667 80.9298 9.22222 81.7048C9 82.369 9 83.144 9.33333 83.919ZM0.222223 68.0873L15.3333 69.8587L15.2222 68.7516L0 66.8695L0.222223 68.0873ZM13 54.2484C13.1111 53.8056 13 53.252 12.8889 52.8092C12.7778 52.3663 12.5556 52.0342 12.2222 51.8128C11.8889 51.5914 11.5556 51.3699 11.2222 51.3699C10.8889 51.2592 10.4444 51.3699 10.1111 51.5914C9.77778 51.8128 9.55556 52.0342 9.44444 52.3663C9.22222 52.8092 9 53.1413 8.88889 53.5842C8.77778 53.9163 8.66667 54.2484 8.44445 54.4698C8.33333 54.6913 8.22222 54.9127 8 55.0234C7.77778 55.1341 7.55556 55.2448 7.33333 55.1341C7 55.1341 6.77778 54.9127 6.66667 54.6913C6.55556 54.3591 6.44445 54.027 6.55556 53.5842C6.55556 53.1413 6.77778 52.8092 7 52.4771C7.22222 52.2556 7.66667 52.1449 8 52.1449L8.11111 50.9271C7.44445 50.8164 6.77778 51.0378 6.33333 51.4806C5.88889 52.0342 5.55556 52.5878 5.44445 53.3627C5.33333 53.8056 5.44444 54.3591 5.55556 54.802C5.66667 55.2448 5.88889 55.577 6.22222 55.7984C6.44445 56.0198 6.77778 56.2412 7.22222 56.2412C7.66667 56.3519 8 56.2412 8.44445 56.0198C8.77778 55.7984 9 55.577 9.22222 55.2448C9.44445 54.802 9.66667 54.4699 9.77778 54.027C9.88889 53.5842 10.1111 53.1413 10.4444 52.8092C10.5556 52.5878 10.8889 52.4771 11.2222 52.4771C11.5556 52.4771 11.7778 52.6985 11.8889 52.9199C12.1111 53.252 12.1111 53.6949 12 54.027C12 54.4699 11.7778 54.9127 11.5556 55.1341C11.3333 55.3555 11 55.577 10.5556 55.577L10.4444 56.7948C10.8889 56.7948 11.3333 56.6841 11.6667 56.5734C12 56.3519 12.3333 56.0198 12.5556 55.577C12.7778 55.2448 12.8889 54.802 13 54.2484ZM10.2222 47.7165C10.8889 47.9379 11.5556 47.9379 12.2222 47.8272C12.7778 47.7165 13.4444 47.3843 13.8889 47.0522C14.3333 46.6094 14.6667 46.0558 14.8889 45.3915C15.1111 44.6166 15.1111 43.8416 14.8889 43.0666C14.6667 42.4023 14.1111 41.8488 13.5556 41.4059L13.2222 42.6238C13.5556 42.8452 13.8889 43.1773 14 43.6202C14.1111 44.063 14.1111 44.5059 14 44.9487C13.8889 45.613 13.4444 46.0558 12.7778 46.3879C12.1111 46.6094 11.3333 46.6094 10.6667 46.3879C10 46.1665 9.33333 45.8344 8.88889 45.1701C8.55556 44.6166 8.44445 43.9523 8.66667 43.3987C8.77778 42.9559 9.11111 42.5131 9.44444 42.1809C9.77778 41.9595 10.2222 41.7381 10.6667 41.8488L11 40.631C10.2222 40.5202 9.55556 40.7417 8.88889 41.1845C7.77778 42.0702 7.22222 43.6202 7.55556 44.9487C7.66667 45.5023 8 46.0558 8.44445 46.4986C8.88889 47.2736 9.55556 47.6058 10.2222 47.7165ZM12.1111 35.5383L11 34.9847L10.4444 36.0918L17 39.3024L17.5556 38.1953L14 36.4239C13 36.0918 12.4444 35.0954 12.6667 34.099C12.6667 33.9883 12.7778 33.7669 12.8889 33.6562L13 33.324L11.8889 32.7705C11.6667 33.2133 11.5556 33.7669 11.5556 34.2097C11.6667 34.7633 11.7778 35.2061 12.1111 35.5383ZM22 30.8884C22.3333 30.3348 22.6667 29.6706 22.6667 29.117C22.7778 28.4527 22.6667 27.7885 22.3333 27.2349C22 26.5707 21.5556 26.1278 21 25.685C20.4444 25.2421 19.7778 25.0207 19.1111 24.91C18.4444 24.7993 17.8889 25.0207 17.2222 25.2421C16 25.9064 15.2222 27.0135 15.1111 28.342C15 29.0063 15.1111 29.5599 15.4444 30.2241C15.7778 30.8884 16.2222 31.3312 16.7778 31.7741C17.3333 32.2169 18 32.4383 18.6667 32.5491C19.3333 32.6598 19.8889 32.5491 20.5556 32.2169C21.1111 31.8848 21.5556 31.4419 22 30.8884ZM21.1111 30.3348C20.8889 30.667 20.5556 30.9991 20.2222 31.1098C19.8889 31.3312 19.4444 31.3312 19 31.3312C18.4444 31.2205 18 31.1098 17.5556 30.7777C17.1111 30.4455 16.7778 30.1134 16.5556 29.6706C16.3333 29.3384 16.2222 28.8956 16.3333 28.4527C16.4444 27.5671 17 26.9028 17.6667 26.4599C18.1111 26.2385 18.4444 26.2385 18.8889 26.2385C19.4444 26.3492 19.8889 26.4599 20.3333 26.7921C20.7778 27.1242 21.1111 27.4563 21.3333 27.8992C21.5556 28.342 21.5556 28.7849 21.5556 29.2277C21.4444 29.5599 21.3333 29.892 21.1111 30.3348ZM18.8889 18.7102L26.1111 25.3528L26.8889 24.4671L19.6667 17.8245L18.8889 18.7102ZM22.8889 14.6139L29.5556 21.9208L30.4444 21.1458L23.7778 13.8389L22.8889 14.6139ZM35.2222 12.7318C35.5556 13.2853 36 13.8389 36.5556 14.2817C37.5556 15.0567 39 15.0567 40.1111 14.3924C40.6667 14.171 41.1111 13.7282 41.3333 13.2853C41.5556 12.8425 41.7778 12.3996 41.7778 11.8461L42.4444 13.0639L43.5556 12.5104L38.7778 3.87489L37.6667 4.42844L39.5556 7.86049C39.1111 7.63906 38.5556 7.52835 38.1111 7.52835C37.5556 7.52835 37 7.63906 36.5556 7.9712C36 8.30333 35.5556 8.74618 35.2222 9.18902C34.8889 9.74258 34.7778 10.2961 34.7778 10.9604C34.7778 11.514 34.8889 12.1782 35.2222 12.7318ZM40.6667 9.74258C40.8889 10.1854 41 10.6283 41.1111 11.1818C41.1111 11.6247 41 12.0675 40.7778 12.3996C40.5556 12.7318 40.2222 13.0639 39.8889 13.2853C39.5556 13.5068 39.1111 13.6175 38.6667 13.6175C38.2222 13.6175 37.7778 13.5068 37.4444 13.1746C37 12.8425 36.6667 12.5104 36.4445 12.0675C36.2222 11.6247 36.1111 11.1818 36 10.6283C36 10.1854 36.1111 9.74257 36.3333 9.41044C36.7778 8.63546 37.6667 8.19262 38.5556 8.19262C39 8.19262 39.4445 8.30333 39.7778 8.63546C40.1111 8.9676 40.4444 9.29973 40.6667 9.74258ZM50 10.1854C50.6667 9.964 51.2222 9.63186 51.6667 9.18902C52.1111 8.74618 52.4445 8.19262 52.5556 7.52835C52.6667 6.86409 52.6667 6.08911 52.4444 5.53555C52.2222 4.87129 51.8889 4.31773 51.3333 3.76418C50.8889 3.32133 50.3333 2.9892 49.6667 2.87849C48.3333 2.65707 47 3.09991 46.1111 3.9856C45.6667 4.42844 45.3333 4.982 45.2222 5.64627C45.1111 6.31053 45.1111 6.9748 45.3333 7.63906C45.5556 8.30333 45.8889 8.85689 46.3333 9.41044C46.7778 9.85329 47.3333 10.1854 48 10.2961C48.7778 10.4068 49.3333 10.4068 50 10.1854ZM49.6667 9.18902C49.2222 9.29973 48.8889 9.29973 48.4444 9.29973C48 9.18902 47.6667 8.9676 47.3333 8.74617C47 8.41404 46.6667 7.9712 46.5556 7.41764C46.3333 6.9748 46.3333 6.42124 46.4445 5.86769C46.5556 5.42484 46.6667 5.09271 47 4.76058C47.5556 4.09631 48.4444 3.87489 49.3333 3.9856C49.7778 4.09631 50.1111 4.31773 50.4445 4.53915C50.7778 4.87129 51.1111 5.31413 51.2222 5.86769C51.4444 6.31053 51.4444 6.86409 51.3333 7.41764C51.2222 7.86049 51 8.30333 50.7778 8.52475C50.4444 8.74618 50.1111 9.07831 49.6667 9.18902ZM64.4445 0.221423L63.3333 6.42124L61 0.442845L59.7778 0.553555L58.5556 6.75338L56.3333 0.774978L55.1111 0.885689L58.1111 7.9712L59.3333 7.86049L60.5556 1.9928L62.8889 7.52835L64.1111 7.41764L65.6667 0L64.4445 0.221423ZM73.5556 0.553555C73.1111 0.442844 72.5556 0.553556 72.1111 0.664267C71.6667 0.774978 71.3333 1.10711 71 1.43924L71.1111 0.442845L69.8889 0.332133L69.1111 7.52835L70.3333 7.63906L70.7778 3.65347C70.7778 2.9892 71.1111 2.43564 71.5556 1.9928C72 1.66067 72.5556 1.43924 73.1111 1.54996C73.6667 1.54996 74.2222 1.88209 74.5556 2.32493C74.8889 2.87849 75 3.43204 74.8889 4.09631L74.5556 8.19262L75.7778 8.30333L76.2222 3.9856C76.3333 3.09991 76.2222 2.32493 75.6667 1.54996C75.1111 0.9964 74.4444 0.664266 73.5556 0.553555ZM91.8889 0.110711L83 12.5104L84.1111 12.9532L93 0.553555L91.8889 0.110711ZM97.8889 17.9352C98.2222 18.2673 98.6667 18.378 99.2222 18.4888C99.6667 18.5995 100 18.5995 100.444 18.378C100.778 18.2673 101.111 18.0459 101.333 17.7138C101.556 17.3816 101.667 17.0495 101.667 16.6067C101.667 16.2745 101.556 15.9424 101.333 15.6103C101.111 15.2781 100.778 14.8353 100.556 14.5032C100.333 14.2817 100.111 13.9496 100 13.7282C99.8889 13.5068 99.7778 13.2853 99.7778 13.0639C99.7778 12.8425 99.7778 12.6211 99.8889 12.3996C100.111 12.1782 100.333 12.0675 100.667 12.0675C101 12.0675 101.333 12.1782 101.667 12.3996C102 12.6211 102.222 12.9532 102.333 13.2853C102.444 13.6175 102.333 13.9496 102.111 14.2817L103.111 14.946C103.444 14.3924 103.667 13.7282 103.444 13.1746C103.222 12.5104 102.778 11.9568 102.222 11.514C101.889 11.1818 101.444 11.0711 100.889 10.9604C100.444 10.8497 100.111 10.8497 99.6667 10.9604C99.3333 11.0711 99 11.2925 98.7778 11.6247C98.5556 11.9568 98.3333 12.3996 98.4445 12.7318C98.4445 13.0639 98.5556 13.5068 98.7778 13.7282C99 14.171 99.3333 14.5031 99.5556 14.8353C99.8889 15.1674 100.111 15.6103 100.333 15.9424C100.444 16.1638 100.444 16.496 100.222 16.7174C100 16.9388 99.7778 17.1602 99.4445 17.1602C99.1111 17.1602 98.6667 17.0495 98.3333 16.7174C98 16.496 97.6667 16.1638 97.5556 15.721C97.4444 15.3888 97.4445 15.0567 97.6667 14.7246L96.7778 14.3924C96.5556 14.7246 96.4444 15.1674 96.4444 15.6103C96.4444 16.0531 96.5556 16.496 96.7778 16.8281C97.1111 17.2709 97.4445 17.7138 97.8889 17.9352ZM105 18.7102C104.444 19.153 104.111 19.8173 103.889 20.3708C103.667 20.9244 103.667 21.5887 103.778 22.1422C103.889 22.8065 104.222 23.36 104.778 23.8029C105.333 24.3564 106 24.7993 106.778 24.91C107.556 25.0207 108.222 24.91 108.889 24.4671L108 23.5815C107.667 23.8029 107.111 23.9136 106.778 23.8029C106.333 23.6922 105.889 23.4707 105.556 23.1386C105.111 22.6958 104.889 22.0315 104.889 21.4779C105 20.703 105.333 20.0387 105.889 19.5959C106.333 19.0423 107 18.7102 107.778 18.5995C108.444 18.5995 109 18.8209 109.444 19.2637C109.778 19.5959 110 20.0387 110.111 20.4815C110.222 20.9244 110.111 21.3672 109.889 21.6994L110.778 22.5851C111.222 21.9208 111.333 21.2565 111.222 20.4815C110.889 19.0423 109.889 17.9352 108.556 17.4924C108 17.2709 107.333 17.3816 106.778 17.4924C106 17.8245 105.444 18.2673 105 18.7102ZM114.778 26.2385L115.778 25.5743L115.111 24.5779L109.222 28.7849L109.889 29.7813L113.111 27.4563C113.889 26.6814 115 26.6814 115.778 27.4563C115.889 27.5671 116 27.6778 116.111 27.8992L116.333 28.1206L117.333 27.3456C117 26.9028 116.667 26.5707 116.222 26.3492C115.778 26.2385 115.222 26.1278 114.778 26.2385ZM114.222 37.0882C114.556 37.6418 115 38.1953 115.444 38.5275C116 38.8596 116.556 39.081 117.222 39.081C118.667 39.081 120 38.4167 120.778 37.3096C121.111 36.7561 121.333 36.2025 121.333 35.5383C121.333 34.2097 120.667 32.9919 119.667 32.2169C119.111 31.8848 118.556 31.6634 117.889 31.6634C117.222 31.6634 116.556 31.7741 115.889 32.1062C115.222 32.4383 114.778 32.8812 114.333 33.4347C114 33.9883 113.778 34.5419 113.778 35.2061C113.778 35.8704 113.889 36.5347 114.222 37.0882ZM115.111 36.5347C114.889 36.2025 114.778 35.7597 114.889 35.3168C114.889 34.874 115 34.4311 115.333 34.099C115.667 33.6562 116.111 33.324 116.556 33.1026C117 32.8812 117.556 32.7705 118 32.7705C118.444 32.7705 118.889 32.8812 119.222 33.1026C119.556 33.324 119.889 33.6562 120 34.099C120.222 34.4311 120.333 34.874 120.333 35.3168C120.333 35.7597 120.222 36.2025 119.889 36.5347C119.556 36.9775 119.222 37.3096 118.667 37.5311C118.222 37.7525 117.667 37.8632 117.222 37.8632C116.778 37.8632 116.333 37.7525 116 37.4203C115.667 37.3096 115.333 36.9775 115.111 36.5347ZM126.333 40.1881L117 43.3987L117.444 44.5058L126.778 41.2952L126.333 40.1881ZM128 45.7237L118.444 48.0486L118.778 49.2664L128.333 46.9415L128 45.7237ZM123.778 57.459C123.111 57.459 122.444 57.5698 121.778 57.9019C120.667 58.4554 119.889 59.5626 119.889 60.8911C119.889 61.4446 120 61.9982 120.333 62.5518C120.556 62.9946 121 63.3267 121.444 63.6589H120.111V64.8767L130 64.9874V63.7696L126.111 63.6589C126.556 63.4374 126.889 62.9946 127.111 62.5518C127.333 62.1089 127.556 61.5554 127.556 61.0018C127.556 60.3375 127.444 59.784 127.111 59.2304C126.778 58.6769 126.333 58.234 125.778 58.0126C125.111 57.6805 124.444 57.459 123.778 57.459ZM123.667 63.6589C123.111 63.6589 122.667 63.5482 122.222 63.3267C121.778 63.1053 121.556 62.7732 121.333 62.441C121.111 62.1089 121 61.6661 121 61.2232C121 60.7804 121.111 60.3375 121.333 60.0054C121.556 59.6733 121.889 59.3411 122.333 59.1197C122.778 58.8983 123.333 58.7876 123.778 58.7876C124.333 58.7876 124.778 58.8983 125.222 59.1197C125.556 59.3411 125.889 59.6733 126.111 60.0054C126.556 60.7804 126.556 61.6661 126.111 62.441C125.889 62.7732 125.556 63.1053 125.111 63.3267C124.667 63.5482 124.222 63.6589 123.667 63.6589ZM118.889 71.5194C118.778 72.1836 118.778 72.8479 119 73.5122C119.222 74.1764 119.556 74.6193 120 75.0621C121.111 75.9478 122.556 76.2799 123.889 75.8371C124.444 75.6157 125 75.2835 125.444 74.8407C126.222 73.8443 126.556 72.405 126.222 71.1872C126 70.6337 125.667 70.0801 125.222 69.6373C124.667 69.1944 124 68.8623 123.333 68.7516C122.667 68.6409 122 68.6409 121.333 68.8623C120.778 69.0837 120.222 69.4158 119.778 69.8587C119.333 70.3015 119.111 70.8551 118.889 71.5194ZM120 71.7408C120.111 71.2979 120.222 70.9658 120.556 70.6337C120.889 70.3015 121.222 70.0801 121.667 69.9694C122.222 69.8587 122.667 69.8587 123.222 69.9694C123.778 70.0801 124.222 70.3015 124.667 70.6337C125 70.8551 125.222 71.2979 125.444 71.6301C125.667 72.405 125.556 73.2907 125 73.955C124.667 74.2871 124.333 74.5086 123.889 74.6193C123.444 74.73 122.889 74.8407 122.333 74.6193C121.778 74.5086 121.333 74.2871 120.889 73.955C120.556 73.6229 120.333 73.2907 120.111 72.8479C119.889 72.6265 119.889 72.1836 120 71.7408ZM120.778 89.0117L115.778 85.0261L122.111 85.8011L122.556 84.694L117.667 80.5977L124 81.4833L124.444 80.3762L116.778 79.6013L116.333 80.7084L121 84.5833L115 83.919L114.556 85.0261L120.333 90.0081L120.778 89.0117ZM116 96.7615C116.333 96.4293 116.444 95.9865 116.556 95.4329C116.667 94.9901 116.556 94.5473 116.444 94.1044L117.333 94.658L118 93.6616L112 89.4545L111.333 90.4509L114.667 92.7759C115.222 93.108 115.556 93.6616 115.778 94.2151C115.889 94.7687 115.778 95.3222 115.333 95.7651C115 96.2079 114.556 96.5401 114 96.6508C113.444 96.6508 112.778 96.5401 112.333 96.0972L109 93.6616L108.333 94.658L111.889 97.0936C112.556 97.6472 113.444 97.8686 114.222 97.7579C114.889 97.8686 115.556 97.4257 116 96.7615ZM107.667 112.925L101 99.1971L100.111 99.9721L106.778 113.7L107.667 112.925Z" fill="white"/>
</svg>
