<svg width="24" height="24" viewBox="0 0 24 24" fill="none" xmlns="http://www.w3.org/2000/svg">
<path d="M20.031 11.4694C20.1008 11.539 20.1561 11.6218 20.1938 11.7128C20.2316 11.8038 20.251 11.9014 20.251 12C20.251 12.0986 20.2316 12.1962 20.1938 12.2872C20.1561 12.3783 20.1008 12.461 20.031 12.5306L12.531 20.0306C12.4614 20.1004 12.3787 20.1557 12.2876 20.1934C12.1966 20.2312 12.099 20.2506 12.0004 20.2506C11.9019 20.2506 11.8043 20.2312 11.7132 20.1934C11.6222 20.1557 11.5394 20.1004 11.4698 20.0306L3.96979 12.5306C3.82906 12.3899 3.75 12.199 3.75 12C3.75 11.801 3.82906 11.6101 3.96979 11.4694C4.11052 11.3286 4.30139 11.2496 4.50042 11.2496C4.69944 11.2496 4.89031 11.3286 5.03104 11.4694L12.0004 18.4397L18.9698 11.4694C19.0394 11.3996 19.1222 11.3443 19.2132 11.3066C19.3043 11.2688 19.4019 11.2494 19.5004 11.2494C19.599 11.2494 19.6966 11.2688 19.7876 11.3066C19.8787 11.3443 19.9614 11.3996 20.031 11.4694ZM11.4698 12.5306C11.5394 12.6004 11.6222 12.6557 11.7132 12.6934C11.8043 12.7312 11.9019 12.7506 12.0004 12.7506C12.099 12.7506 12.1966 12.7312 12.2876 12.6934C12.3787 12.6557 12.4614 12.6004 12.531 12.5306L20.031 5.03063C20.1718 4.8899 20.2508 4.69903 20.2508 4.50001C20.2508 4.30098 20.1718 4.11011 20.031 3.96938C19.8903 3.82865 19.6994 3.74959 19.5004 3.74959C19.3014 3.74959 19.1105 3.82865 18.9698 3.96938L12.0004 10.9397L5.03104 3.96938C4.89031 3.82865 4.69944 3.74959 4.50042 3.74959C4.30139 3.74959 4.11052 3.82865 3.96979 3.96938C3.82906 4.11011 3.75 4.30098 3.75 4.50001C3.75 4.69903 3.82906 4.8899 3.96979 5.03063L11.4698 12.5306Z" fill="white"/>
</svg>
