<svg width="319" height="202" viewBox="0 0 319 202" fill="none" xmlns="http://www.w3.org/2000/svg">
<path d="M181.469 126.53C180.546 120.91 179.489 113.843 178.299 104.853C175.526 85.5788 171.564 60.6891 168.791 40.6144C167.073 28.8916 165.357 17.0062 163.638 5.12426L126.699 5.12426C108.8 31.0151 85.0235 65.7911 74.3567 80.7641C49.6601 115.449 19.9442 157.364 6.50732e-06 185.47L39.4907 185.47C54.2818 164.59 75.0185 134.239 92.318 109.35C102.487 94.7358 112.791 79.9594 123.224 64.8653L132.999 50.8938L132.999 50.7314L140.527 102.12L106.848 102.12L136.828 135.203L182.79 135.203C182.392 132.633 181.864 129.742 181.469 126.53Z" fill="#C6C7C8"/>
<path d="M207.356 53.4612C203.395 66.3066 197.977 86.5401 192.963 103.887C190.056 114.003 187.151 124.442 184.111 135.201L213.417 135.201C214.078 134.74 214.755 134.256 215.467 133.746C217.528 132.268 219.652 130.7 221.8 129.071C224.274 120.406 228.914 103.588 233.243 88.7893C236.019 78.9937 239.056 68.2344 242.356 56.8327C242.49 56.1901 242.619 55.5478 243.283 53.4617C243.289 53.4352 243.295 53.4087 243.304 53.3822L207.356 53.4612Z" fill="#C6C7C8"/>
<path d="M232.11 40.0302C240.86 40.0302 247.954 31.0691 247.954 20.0151C247.954 8.96107 240.86 -8.87438e-07 232.11 -5.71698e-07C223.359 -2.55958e-07 216.266 8.96107 216.266 20.0151C216.266 31.0691 223.359 40.0302 232.11 40.0302Z" fill="white"/>
<path d="M256.402 129.025C254.632 130.647 252.828 132.265 250.991 133.871C243.108 140.771 234.621 147.512 225.636 153.95C224.624 154.676 223.605 155.398 222.58 156.115C220.147 157.818 217.678 159.5 215.178 161.151C214.089 161.874 212.993 162.589 211.893 163.3C210.588 164.145 209.275 164.982 207.952 165.808C202.137 169.45 196.355 172.827 190.645 175.93C186.757 178.045 182.901 180.034 179.09 181.895C125.108 208.264 79.5769 209.256 71.4164 181.545C65.8931 162.786 78.7025 134.96 103.158 106.86C87.5568 127.917 80.0466 148.096 84.2914 162.517C89.6234 180.619 112.229 185.376 142.307 177.787C154.557 174.697 168.045 169.56 182.111 162.439C185.938 160.503 189.809 158.421 193.711 156.19C196.925 154.353 200.158 152.418 203.407 150.383C206.916 148.183 210.358 145.922 213.726 143.609C214.184 143.292 214.642 142.975 215.099 142.658C216.213 141.885 217.317 141.103 218.413 140.315C220.955 138.495 223.449 136.64 225.895 134.767C226.935 133.969 227.967 133.166 228.988 132.361C238.449 124.893 247.127 117.066 254.832 109.135C256.756 107.155 258.617 105.172 260.415 103.182C284.057 77.0541 296.69 50.51 291.458 32.7346C287.209 18.3129 272.007 12.3647 250.795 14.3688C281.605 7.85044 304.256 13.4578 309.782 32.2175C316.761 55.9241 294.469 94.0962 256.402 129.025Z" fill="white"/>
</svg>
