<svg width="73" height="72" viewBox="0 0 73 72" fill="none" xmlns="http://www.w3.org/2000/svg">
<path d="M53.708 6.20642H19.292L2.08398 36L19.292 65.7936H53.708L70.916 36L53.708 6.20642Z" stroke="white" stroke-width="0.8" stroke-miterlimit="10"/>
<path d="M53.708 6.20642H19.292L2.08398 36L19.292 65.7936H53.708L70.916 36L53.708 6.20642Z" stroke="url(#paint0_linear_16515_1014)" stroke-width="0.8" stroke-miterlimit="10"/>
<path d="M21.6106 7.76164C21.769 7.60324 37.2778 7.50244 37.5226 7.50244C37.7674 7.50244 53.2762 7.60324 53.3626 7.76164C53.449 7.92004 68.9146 34.632 68.9146 34.8768C68.9146 35.1216 53.593 61.8336 53.4346 61.992C53.2762 62.1504 37.7674 62.2368 37.5946 62.2368C37.4218 62.2368 21.841 62.1504 21.7546 61.992C21.6682 61.8336 6.05859 35.1216 6.05859 34.8768C6.05859 34.632 21.4522 7.92004 21.6106 7.76164Z" stroke="white" stroke-width="0.8" stroke-miterlimit="10"/>
<path d="M21.6106 7.76164C21.769 7.60324 37.2778 7.50244 37.5226 7.50244C37.7674 7.50244 53.2762 7.60324 53.3626 7.76164C53.449 7.92004 68.9146 34.632 68.9146 34.8768C68.9146 35.1216 53.593 61.8336 53.4346 61.992C53.2762 62.1504 37.7674 62.2368 37.5946 62.2368C37.4218 62.2368 21.841 62.1504 21.7546 61.992C21.6682 61.8336 6.05859 35.1216 6.05859 34.8768C6.05859 34.632 21.4522 7.92004 21.6106 7.76164Z" stroke="url(#paint1_linear_16515_1014)" stroke-width="0.8" stroke-miterlimit="10"/>
<path d="M23.9136 9.33114C24.2448 9.01434 38.0544 8.81274 38.544 8.81274C39.0336 8.81274 52.8576 9.01434 53.1744 9.33114C53.4912 9.64794 67.0704 33.2639 67.0704 33.8111C67.0704 34.3583 53.4912 57.9167 53.1744 58.2911C52.8576 58.6655 39.0336 58.8095 38.544 58.8095C38.0544 58.8095 24.2448 58.6079 23.9136 58.2911C23.5824 57.9743 10.0176 34.3583 10.0176 33.8111C10.0176 33.2639 23.5392 9.64794 23.9136 9.33114Z" stroke="white" stroke-width="0.8" stroke-miterlimit="10"/>
<path d="M23.9136 9.33114C24.2448 9.01434 38.0544 8.81274 38.544 8.81274C39.0336 8.81274 52.8576 9.01434 53.1744 9.33114C53.4912 9.64794 67.0704 33.2639 67.0704 33.8111C67.0704 34.3583 53.4912 57.9167 53.1744 58.2911C52.8576 58.6655 39.0336 58.8095 38.544 58.8095C38.0544 58.8095 24.2448 58.6079 23.9136 58.2911C23.5824 57.9743 10.0176 34.3583 10.0176 33.8111C10.0176 33.2639 23.5392 9.64794 23.9136 9.33114Z" stroke="url(#paint2_linear_16515_1014)" stroke-width="0.8" stroke-miterlimit="10"/>
<path d="M26.2322 10.9008C26.7074 10.4112 38.8466 10.08 39.5666 10.08C40.2866 10.08 52.4258 10.368 52.901 10.8576C53.3762 11.3472 65.1554 31.896 65.1554 32.6304C65.1554 33.3648 53.3762 53.8848 52.901 54.36C52.4258 54.8352 40.301 55.1376 39.5666 55.1376C38.8322 55.1376 26.7074 54.8352 26.2322 54.36C25.757 53.8848 13.9922 33.3504 13.9922 32.6304C13.9922 31.9104 25.757 11.376 26.2322 10.9008Z" stroke="white" stroke-width="0.8" stroke-miterlimit="10"/>
<path d="M26.2322 10.9008C26.7074 10.4112 38.8466 10.08 39.5666 10.08C40.2866 10.08 52.4258 10.368 52.901 10.8576C53.3762 11.3472 65.1554 31.896 65.1554 32.6304C65.1554 33.3648 53.3762 53.8848 52.901 54.36C52.4258 54.8352 40.301 55.1376 39.5666 55.1376C38.8322 55.1376 26.7074 54.8352 26.2322 54.36C25.757 53.8848 13.9922 33.3504 13.9922 32.6304C13.9922 31.9104 25.757 11.376 26.2322 10.9008Z" stroke="url(#paint3_linear_16515_1014)" stroke-width="0.8" stroke-miterlimit="10"/>
<path d="M28.5515 12.456C29.1851 11.8224 39.6251 11.4336 40.5899 11.4336C41.5547 11.4336 52.0091 11.8224 52.6427 12.456C53.2763 13.0896 63.2267 30.528 63.2267 31.5072C63.2267 32.4864 53.2763 49.9104 52.6427 50.544C52.0091 51.1776 41.5691 51.5808 40.5899 51.5808C39.6107 51.5808 29.1851 51.1776 28.5515 50.544C27.9179 49.9104 17.9531 32.472 17.9531 31.5072C17.9531 30.5424 27.8603 13.0896 28.5515 12.456Z" stroke="white" stroke-width="0.8" stroke-miterlimit="10"/>
<path d="M28.5515 12.456C29.1851 11.8224 39.6251 11.4336 40.5899 11.4336C41.5547 11.4336 52.0091 11.8224 52.6427 12.456C53.2763 13.0896 63.2267 30.528 63.2267 31.5072C63.2267 32.4864 53.2763 49.9104 52.6427 50.544C52.0091 51.1776 41.5691 51.5808 40.5899 51.5808C39.6107 51.5808 29.1851 51.1776 28.5515 50.544C27.9179 49.9104 17.9531 32.472 17.9531 31.5072C17.9531 30.5424 27.8603 13.0896 28.5515 12.456Z" stroke="url(#paint4_linear_16515_1014)" stroke-width="0.8" stroke-miterlimit="10"/>
<path d="M30.8552 14.0256C31.6616 13.2192 40.4024 12.7296 41.612 12.7296C42.8216 12.7296 51.5768 13.2192 52.3688 14.0256C53.1608 14.832 61.3112 29.16 61.3112 30.384C61.3112 31.608 53.1752 45.936 52.34 46.728C51.5048 47.52 42.8072 48.024 41.5832 48.024C40.3592 48.024 31.6328 47.5344 30.8264 46.728C30.02 45.9216 21.8984 31.5936 21.8984 30.384C21.8984 29.1744 30.0632 14.8176 30.8552 14.0256Z" stroke="white" stroke-width="0.8" stroke-miterlimit="10"/>
<path d="M30.8552 14.0256C31.6616 13.2192 40.4024 12.7296 41.612 12.7296C42.8216 12.7296 51.5768 13.2192 52.3688 14.0256C53.1608 14.832 61.3112 29.16 61.3112 30.384C61.3112 31.608 53.1752 45.936 52.34 46.728C51.5048 47.52 42.8072 48.024 41.5832 48.024C40.3592 48.024 31.6328 47.5344 30.8264 46.728C30.02 45.9216 21.8984 31.5936 21.8984 30.384C21.8984 29.1744 30.0632 14.8176 30.8552 14.0256Z" stroke="url(#paint5_linear_16515_1014)" stroke-width="0.8" stroke-miterlimit="10"/>
<path d="M33.1731 15.5808C34.1235 14.6304 41.1795 14.04 42.6339 14.04C44.0883 14.04 51.1587 14.6304 52.1091 15.5808C53.0595 16.5312 59.3955 27.792 59.3955 29.2464C59.3955 30.7008 53.0595 41.9616 52.1091 42.9264C51.1587 43.8912 44.1027 44.4672 42.6339 44.4672C41.1651 44.4672 34.1235 43.8768 33.1731 42.9264C32.2227 41.976 25.8867 30.7152 25.8867 29.2464C25.8867 27.7776 32.1795 16.5456 33.1731 15.5808Z" stroke="white" stroke-width="0.8" stroke-miterlimit="10"/>
<path d="M33.1731 15.5808C34.1235 14.6304 41.1795 14.04 42.6339 14.04C44.0883 14.04 51.1587 14.6304 52.1091 15.5808C53.0595 16.5312 59.3955 27.792 59.3955 29.2464C59.3955 30.7008 53.0595 41.9616 52.1091 42.9264C51.1587 43.8912 44.1027 44.4672 42.6339 44.4672C41.1651 44.4672 34.1235 43.8768 33.1731 42.9264C32.2227 41.976 25.8867 30.7152 25.8867 29.2464C25.8867 27.7776 32.1795 16.5456 33.1731 15.5808Z" stroke="url(#paint6_linear_16515_1014)" stroke-width="0.8" stroke-miterlimit="10"/>
<path d="M35.4771 17.1503C36.6003 16.0415 41.9571 15.3503 43.6563 15.3503C45.3555 15.3503 50.7267 16.0415 51.8355 17.1503C52.9443 18.2591 57.4659 26.4239 57.4659 28.1231C57.4659 29.8223 52.9587 37.9871 51.8355 39.1103C50.7123 40.2335 45.3699 40.9103 43.6995 40.9103C42.0291 40.9103 36.6435 40.2191 35.5203 39.1103C34.3971 38.0015 29.9043 29.8367 29.9043 28.1231C29.9043 26.4095 34.3683 18.2591 35.4771 17.1503Z" stroke="white" stroke-width="0.8" stroke-miterlimit="10"/>
<path d="M35.4771 17.1503C36.6003 16.0415 41.9571 15.3503 43.6563 15.3503C45.3555 15.3503 50.7267 16.0415 51.8355 17.1503C52.9443 18.2591 57.4659 26.4239 57.4659 28.1231C57.4659 29.8223 52.9587 37.9871 51.8355 39.1103C50.7123 40.2335 45.3699 40.9103 43.6995 40.9103C42.0291 40.9103 36.6435 40.2191 35.5203 39.1103C34.3971 38.0015 29.9043 29.8367 29.9043 28.1231C29.9043 26.4095 34.3683 18.2591 35.4771 17.1503Z" stroke="url(#paint7_linear_16515_1014)" stroke-width="0.8" stroke-miterlimit="10"/>
<path d="M37.7956 18.72C39.0619 17.4384 42.7339 16.6464 44.6779 16.6464C46.6219 16.6464 50.2939 17.4384 51.5755 18.72C52.8571 20.0016 55.5499 25.056 55.5499 27C55.5499 28.944 52.8427 34.0128 51.5755 35.2944C50.3083 36.576 46.5787 37.3536 44.6779 37.3536C42.7771 37.3536 39.0619 36.5616 37.7947 35.2944C36.5275 34.0272 33.8203 28.944 33.8203 27C33.8203 25.056 36.4996 19.9872 37.7956 18.72Z" stroke="white" stroke-width="0.8" stroke-miterlimit="10"/>
<path d="M37.7956 18.72C39.0619 17.4384 42.7339 16.6464 44.6779 16.6464C46.6219 16.6464 50.2939 17.4384 51.5755 18.72C52.8571 20.0016 55.5499 25.056 55.5499 27C55.5499 28.944 52.8427 34.0128 51.5755 35.2944C50.3083 36.576 46.5787 37.3536 44.6779 37.3536C42.7771 37.3536 39.0619 36.5616 37.7947 35.2944C36.5275 34.0272 33.8203 28.944 33.8203 27C33.8203 25.056 36.4996 19.9872 37.7956 18.72Z" stroke="url(#paint8_linear_16515_1014)" stroke-width="0.8" stroke-miterlimit="10"/>
<path d="M53.6364 25.92C53.6405 27.7558 53.0078 29.5363 51.8462 30.958C50.6846 32.3797 49.0659 33.3545 47.266 33.7164C45.4662 34.0783 43.5965 33.8049 41.9757 32.9427C40.3548 32.0805 39.0832 30.6829 38.3774 28.9881C37.6716 27.2933 37.5753 25.4062 38.105 23.6484C38.6348 21.8905 39.7576 20.3708 41.2824 19.3482C42.8071 18.3256 44.6392 17.8633 46.4665 18.0402C48.2939 18.2171 50.0033 19.0223 51.3036 20.3184C52.0441 21.0509 52.6317 21.9234 53.0322 22.885C53.4327 23.8467 53.638 24.8783 53.6364 25.92Z" stroke="white" stroke-width="0.8" stroke-miterlimit="10"/>
<path d="M53.6364 25.92C53.6405 27.7558 53.0078 29.5363 51.8462 30.958C50.6846 32.3797 49.0659 33.3545 47.266 33.7164C45.4662 34.0783 43.5965 33.8049 41.9757 32.9427C40.3548 32.0805 39.0832 30.6829 38.3774 28.9881C37.6716 27.2933 37.5753 25.4062 38.105 23.6484C38.6348 21.8905 39.7576 20.3708 41.2824 19.3482C42.8071 18.3256 44.6392 17.8633 46.4665 18.0402C48.2939 18.2171 50.0033 19.0223 51.3036 20.3184C52.0441 21.0509 52.6317 21.9234 53.0322 22.885C53.4327 23.8467 53.638 24.8783 53.6364 25.92Z" stroke="url(#paint9_linear_16515_1014)" stroke-width="0.8" stroke-miterlimit="10"/>
<defs>
<linearGradient id="paint0_linear_16515_1014" x1="2.08398" y1="35.6929" x2="70.916" y2="35.6929" gradientUnits="userSpaceOnUse">
<stop stop-color="#7755FF"/>
<stop offset="0.198933" stop-color="#6371F2"/>
<stop offset="0.39624" stop-color="#40A4DA"/>
<stop offset="0.60106" stop-color="#34AED2"/>
<stop offset="0.796668" stop-color="#1BC4BF"/>
<stop offset="1" stop-color="#0DCFB3"/>
</linearGradient>
<linearGradient id="paint1_linear_16515_1014" x1="6.05859" y1="34.5875" x2="68.9146" y2="34.5875" gradientUnits="userSpaceOnUse">
<stop stop-color="#7755FF"/>
<stop offset="0.198933" stop-color="#6371F2"/>
<stop offset="0.39624" stop-color="#40A4DA"/>
<stop offset="0.60106" stop-color="#34AED2"/>
<stop offset="0.796668" stop-color="#1BC4BF"/>
<stop offset="1" stop-color="#0DCFB3"/>
</linearGradient>
<linearGradient id="paint2_linear_16515_1014" x1="10.0176" y1="33.5534" x2="67.0704" y2="33.5534" gradientUnits="userSpaceOnUse">
<stop stop-color="#7755FF"/>
<stop offset="0.198933" stop-color="#6371F2"/>
<stop offset="0.39624" stop-color="#40A4DA"/>
<stop offset="0.60106" stop-color="#34AED2"/>
<stop offset="0.796668" stop-color="#1BC4BF"/>
<stop offset="1" stop-color="#0DCFB3"/>
</linearGradient>
<linearGradient id="paint3_linear_16515_1014" x1="13.9922" y1="32.3765" x2="65.1554" y2="32.3765" gradientUnits="userSpaceOnUse">
<stop stop-color="#7755FF"/>
<stop offset="0.198933" stop-color="#6371F2"/>
<stop offset="0.39624" stop-color="#40A4DA"/>
<stop offset="0.60106" stop-color="#34AED2"/>
<stop offset="0.796668" stop-color="#1BC4BF"/>
<stop offset="1" stop-color="#0DCFB3"/>
</linearGradient>
<linearGradient id="paint4_linear_16515_1014" x1="17.9531" y1="31.3003" x2="63.2267" y2="31.3003" gradientUnits="userSpaceOnUse">
<stop stop-color="#7755FF"/>
<stop offset="0.198933" stop-color="#6371F2"/>
<stop offset="0.39624" stop-color="#40A4DA"/>
<stop offset="0.60106" stop-color="#34AED2"/>
<stop offset="0.796668" stop-color="#1BC4BF"/>
<stop offset="1" stop-color="#0DCFB3"/>
</linearGradient>
<linearGradient id="paint5_linear_16515_1014" x1="21.8984" y1="30.1949" x2="61.3112" y2="30.1949" gradientUnits="userSpaceOnUse">
<stop stop-color="#7755FF"/>
<stop offset="0.198933" stop-color="#6371F2"/>
<stop offset="0.39624" stop-color="#40A4DA"/>
<stop offset="0.60106" stop-color="#34AED2"/>
<stop offset="0.796668" stop-color="#1BC4BF"/>
<stop offset="1" stop-color="#0DCFB3"/>
</linearGradient>
<linearGradient id="paint6_linear_16515_1014" x1="25.8867" y1="29.0968" x2="59.3955" y2="29.0968" gradientUnits="userSpaceOnUse">
<stop stop-color="#7755FF"/>
<stop offset="0.198933" stop-color="#6371F2"/>
<stop offset="0.39624" stop-color="#40A4DA"/>
<stop offset="0.60106" stop-color="#34AED2"/>
<stop offset="0.796668" stop-color="#1BC4BF"/>
<stop offset="1" stop-color="#0DCFB3"/>
</linearGradient>
<linearGradient id="paint7_linear_16515_1014" x1="29.9043" y1="27.9986" x2="57.4659" y2="27.9986" gradientUnits="userSpaceOnUse">
<stop stop-color="#7755FF"/>
<stop offset="0.198933" stop-color="#6371F2"/>
<stop offset="0.39624" stop-color="#40A4DA"/>
<stop offset="0.60106" stop-color="#34AED2"/>
<stop offset="0.796668" stop-color="#1BC4BF"/>
<stop offset="1" stop-color="#0DCFB3"/>
</linearGradient>
<linearGradient id="paint8_linear_16515_1014" x1="33.8203" y1="26.8932" x2="55.5499" y2="26.8932" gradientUnits="userSpaceOnUse">
<stop stop-color="#7755FF"/>
<stop offset="0.198933" stop-color="#6371F2"/>
<stop offset="0.39624" stop-color="#40A4DA"/>
<stop offset="0.60106" stop-color="#34AED2"/>
<stop offset="0.796668" stop-color="#1BC4BF"/>
<stop offset="1" stop-color="#0DCFB3"/>
</linearGradient>
<linearGradient id="paint9_linear_16515_1014" x1="37.7676" y1="25.8559" x2="53.6364" y2="25.8559" gradientUnits="userSpaceOnUse">
<stop stop-color="#7755FF"/>
<stop offset="0.198933" stop-color="#6371F2"/>
<stop offset="0.39624" stop-color="#40A4DA"/>
<stop offset="0.60106" stop-color="#34AED2"/>
<stop offset="0.796668" stop-color="#1BC4BF"/>
<stop offset="1" stop-color="#0DCFB3"/>
</linearGradient>
</defs>
</svg>
