<svg width="73" height="72" viewBox="0 0 73 72" fill="none" xmlns="http://www.w3.org/2000/svg">
<path d="M70.9152 47.52H24.1152V0.676758H38.832C47.341 0.676758 55.5015 4.05694 61.5183 10.0737C67.5351 16.0905 70.9152 24.251 70.9152 32.76V47.52Z" stroke="white" stroke-width="0.688" stroke-miterlimit="10"/>
<path d="M70.9152 47.52H24.1152V0.676758H38.832C47.341 0.676758 55.5015 4.05694 61.5183 10.0737C67.5351 16.0905 70.9152 24.251 70.9152 32.76V47.52Z" stroke="url(#paint0_linear_16515_1035)" stroke-width="0.688" stroke-miterlimit="10"/>
<path d="M67.1144 49.7952H21.8984V4.56482H36.5009C40.5206 4.56293 44.5012 5.35303 48.2155 6.88997C51.9297 8.42692 55.3047 10.6806 58.1477 13.5223C60.9907 16.3639 63.246 19.7379 64.7847 23.4514C66.3234 27.1649 67.1153 31.1452 67.1153 35.1648L67.1144 49.7952Z" stroke="white" stroke-width="0.688" stroke-miterlimit="10"/>
<path d="M67.1144 49.7952H21.8984V4.56482H36.5009C40.5206 4.56293 44.5012 5.35303 48.2155 6.88997C51.9297 8.42692 55.3047 10.6806 58.1477 13.5223C60.9907 16.3639 63.246 19.7379 64.7847 23.4514C66.3234 27.1649 67.1153 31.1452 67.1153 35.1648L67.1144 49.7952Z" stroke="url(#paint1_linear_16515_1035)" stroke-width="0.688" stroke-miterlimit="10"/>
<path d="M63.3136 52.0992H19.6816V8.45276H34.1959C41.9181 8.453 49.324 11.5207 54.7844 16.9811C60.2448 22.4415 63.3125 29.8474 63.3127 37.5696L63.3136 52.0992Z" stroke="white" stroke-width="0.704" stroke-miterlimit="10"/>
<path d="M63.3136 52.0992H19.6816V8.45276H34.1959C41.9181 8.453 49.324 11.5207 54.7844 16.9811C60.2448 22.4415 63.3125 29.8474 63.3127 37.5696L63.3136 52.0992Z" stroke="url(#paint2_linear_16515_1035)" stroke-width="0.704" stroke-miterlimit="10"/>
<path d="M59.5397 54.4032H17.4629V12.3408H31.8629C35.4961 12.3372 39.0943 13.0496 42.452 14.4374C45.8097 15.8252 48.861 17.8611 51.4313 20.4288C54.0017 22.9965 56.0408 26.0457 57.4321 29.4019C58.8234 32.7581 59.5396 36.3557 59.5397 39.9888V54.4032Z" stroke="white" stroke-width="0.72" stroke-miterlimit="10"/>
<path d="M59.5397 54.4032H17.4629V12.3408H31.8629C35.4961 12.3372 39.0943 13.0496 42.452 14.4374C45.8097 15.8252 48.861 17.8611 51.4313 20.4288C54.0017 22.9965 56.0408 26.0457 57.4321 29.4019C58.8234 32.7581 59.5396 36.3557 59.5397 39.9888V54.4032Z" stroke="url(#paint3_linear_16515_1035)" stroke-width="0.72" stroke-miterlimit="10"/>
<path d="M55.7246 56.7071H15.248V16.2288H29.5616C36.4994 16.2333 43.1517 18.9914 48.0573 23.8974C52.9629 28.8033 55.7206 35.4558 55.7246 42.3936V56.7071Z" stroke="white" stroke-width="0.736" stroke-miterlimit="10"/>
<path d="M55.7246 56.7071H15.248V16.2288H29.5616C36.4994 16.2333 43.1517 18.9914 48.0573 23.8974C52.9629 28.8033 55.7206 35.4558 55.7246 42.3936V56.7071Z" stroke="url(#paint4_linear_16515_1035)" stroke-width="0.736" stroke-miterlimit="10"/>
<path d="M51.9217 59.04H13.0273V20.16H27.2401C33.7786 20.16 40.05 22.7545 44.6774 27.3738C49.3049 31.9932 51.9103 38.26 51.9217 44.7984V59.04Z" stroke="white" stroke-width="0.736" stroke-miterlimit="10"/>
<path d="M51.9217 59.04H13.0273V20.16H27.2401C33.7786 20.16 40.05 22.7545 44.6774 27.3738C49.3049 31.9932 51.9103 38.26 51.9217 44.7984V59.04Z" stroke="url(#paint5_linear_16515_1035)" stroke-width="0.736" stroke-miterlimit="10"/>
<path d="M48.119 61.3296H10.8086V24.0048H24.9791C31.123 24.0238 37.0088 26.4779 41.3465 30.829C45.6842 35.1802 48.1199 41.0736 48.1199 47.2176L48.119 61.3296Z" stroke="white" stroke-width="0.752" stroke-miterlimit="10"/>
<path d="M48.119 61.3296H10.8086V24.0048H24.9791C31.123 24.0238 37.0088 26.4779 41.3465 30.829C45.6842 35.1802 48.1199 41.0736 48.1199 47.2176L48.119 61.3296Z" stroke="url(#paint6_linear_16515_1035)" stroke-width="0.752" stroke-miterlimit="10"/>
<path d="M44.3345 63.6336H8.59375V27.8928H22.6049C28.3668 27.8966 33.8916 30.1872 37.9659 34.2615C42.0401 38.3357 44.3307 43.8605 44.3345 49.6224V63.6336Z" stroke="white" stroke-width="0.768" stroke-miterlimit="10"/>
<path d="M44.3345 63.6336H8.59375V27.8928H22.6049C28.3668 27.8966 33.8916 30.1872 37.9659 34.2615C42.0401 38.3357 44.3307 43.8605 44.3345 49.6224V63.6336Z" stroke="url(#paint7_linear_16515_1035)" stroke-width="0.768" stroke-miterlimit="10"/>
<path d="M40.5316 65.9376H6.37305V31.7808H20.2834C25.6548 31.7839 30.8052 33.9199 34.6021 37.7192C38.3991 41.5185 40.5319 46.6702 40.5316 52.0416V65.9376Z" stroke="white" stroke-width="0.784" stroke-miterlimit="10"/>
<path d="M40.5316 65.9376H6.37305V31.7808H20.2834C25.6548 31.7839 30.8052 33.9199 34.6021 37.7192C38.3991 41.5185 40.5319 46.6702 40.5316 52.0416V65.9376Z" stroke="url(#paint8_linear_16515_1035)" stroke-width="0.784" stroke-miterlimit="10"/>
<path d="M36.7319 68.256H4.1582V35.6688H17.9696C22.9345 35.6688 27.696 37.6411 31.2066 41.1518C34.7173 44.6625 36.6896 49.424 36.6896 54.3888L36.7319 68.256Z" stroke="white" stroke-width="0.784" stroke-miterlimit="10"/>
<path d="M36.7319 68.256H4.1582V35.6688H17.9696C22.9345 35.6688 27.696 37.6411 31.2066 41.1518C34.7173 44.6625 36.6896 49.424 36.6896 54.3888L36.7319 68.256Z" stroke="url(#paint9_linear_16515_1035)" stroke-width="0.784" stroke-miterlimit="10"/>
<path d="M32.9427 70.56H1.93945V39.5568H15.6483C17.9175 39.5568 20.1645 40.0037 22.261 40.8721C24.3575 41.7405 26.2625 43.0134 27.8671 44.618C29.4717 46.2226 30.7445 48.1275 31.6129 50.224C32.4813 52.3205 32.9283 54.5675 32.9283 56.8368L32.9427 70.56Z" stroke="white" stroke-width="0.8" stroke-miterlimit="10"/>
<path d="M32.9427 70.56H1.93945V39.5568H15.6483C17.9175 39.5568 20.1645 40.0037 22.261 40.8721C24.3575 41.7405 26.2625 43.0134 27.8671 44.618C29.4717 46.2226 30.7445 48.1275 31.6129 50.224C32.4813 52.3205 32.9283 54.5675 32.9283 56.8368L32.9427 70.56Z" stroke="url(#paint10_linear_16515_1035)" stroke-width="0.8" stroke-miterlimit="10"/>
<defs>
<linearGradient id="paint0_linear_16515_1035" x1="24.1152" y1="23.8569" x2="70.9152" y2="23.8569" gradientUnits="userSpaceOnUse">
<stop stop-color="#7755FF"/>
<stop offset="0.198933" stop-color="#6371F2"/>
<stop offset="0.39624" stop-color="#40A4DA"/>
<stop offset="0.60106" stop-color="#34AED2"/>
<stop offset="0.796668" stop-color="#1BC4BF"/>
<stop offset="1" stop-color="#0DCFB3"/>
</linearGradient>
<linearGradient id="paint1_linear_16515_1035" x1="21.8984" y1="26.9469" x2="67.1153" y2="26.9469" gradientUnits="userSpaceOnUse">
<stop stop-color="#7755FF"/>
<stop offset="0.198933" stop-color="#6371F2"/>
<stop offset="0.39624" stop-color="#40A4DA"/>
<stop offset="0.60106" stop-color="#34AED2"/>
<stop offset="0.796668" stop-color="#1BC4BF"/>
<stop offset="1" stop-color="#0DCFB3"/>
</linearGradient>
<linearGradient id="paint2_linear_16515_1035" x1="19.6816" y1="30.051" x2="63.3136" y2="30.051" gradientUnits="userSpaceOnUse">
<stop stop-color="#7755FF"/>
<stop offset="0.198933" stop-color="#6371F2"/>
<stop offset="0.39624" stop-color="#40A4DA"/>
<stop offset="0.60106" stop-color="#34AED2"/>
<stop offset="0.796668" stop-color="#1BC4BF"/>
<stop offset="1" stop-color="#0DCFB3"/>
</linearGradient>
<linearGradient id="paint3_linear_16515_1035" x1="17.4629" y1="33.1552" x2="59.5397" y2="33.1552" gradientUnits="userSpaceOnUse">
<stop stop-color="#7755FF"/>
<stop offset="0.198933" stop-color="#6371F2"/>
<stop offset="0.39624" stop-color="#40A4DA"/>
<stop offset="0.60106" stop-color="#34AED2"/>
<stop offset="0.796668" stop-color="#1BC4BF"/>
<stop offset="1" stop-color="#0DCFB3"/>
</linearGradient>
<linearGradient id="paint4_linear_16515_1035" x1="15.248" y1="36.2593" x2="55.7246" y2="36.2593" gradientUnits="userSpaceOnUse">
<stop stop-color="#7755FF"/>
<stop offset="0.198933" stop-color="#6371F2"/>
<stop offset="0.39624" stop-color="#40A4DA"/>
<stop offset="0.60106" stop-color="#34AED2"/>
<stop offset="0.796668" stop-color="#1BC4BF"/>
<stop offset="1" stop-color="#0DCFB3"/>
</linearGradient>
<linearGradient id="paint5_linear_16515_1035" x1="13.0273" y1="39.3996" x2="51.9217" y2="39.3996" gradientUnits="userSpaceOnUse">
<stop stop-color="#7755FF"/>
<stop offset="0.198933" stop-color="#6371F2"/>
<stop offset="0.39624" stop-color="#40A4DA"/>
<stop offset="0.60106" stop-color="#34AED2"/>
<stop offset="0.796668" stop-color="#1BC4BF"/>
<stop offset="1" stop-color="#0DCFB3"/>
</linearGradient>
<linearGradient id="paint6_linear_16515_1035" x1="10.8086" y1="42.4748" x2="48.1199" y2="42.4748" gradientUnits="userSpaceOnUse">
<stop stop-color="#7755FF"/>
<stop offset="0.198933" stop-color="#6371F2"/>
<stop offset="0.39624" stop-color="#40A4DA"/>
<stop offset="0.60106" stop-color="#34AED2"/>
<stop offset="0.796668" stop-color="#1BC4BF"/>
<stop offset="1" stop-color="#0DCFB3"/>
</linearGradient>
<linearGradient id="paint7_linear_16515_1035" x1="8.59375" y1="45.579" x2="44.3345" y2="45.579" gradientUnits="userSpaceOnUse">
<stop stop-color="#7755FF"/>
<stop offset="0.198933" stop-color="#6371F2"/>
<stop offset="0.39624" stop-color="#40A4DA"/>
<stop offset="0.60106" stop-color="#34AED2"/>
<stop offset="0.796668" stop-color="#1BC4BF"/>
<stop offset="1" stop-color="#0DCFB3"/>
</linearGradient>
<linearGradient id="paint8_linear_16515_1035" x1="6.37305" y1="48.6831" x2="40.5316" y2="48.6831" gradientUnits="userSpaceOnUse">
<stop stop-color="#7755FF"/>
<stop offset="0.198933" stop-color="#6371F2"/>
<stop offset="0.39624" stop-color="#40A4DA"/>
<stop offset="0.60106" stop-color="#34AED2"/>
<stop offset="0.796668" stop-color="#1BC4BF"/>
<stop offset="1" stop-color="#0DCFB3"/>
</linearGradient>
<linearGradient id="paint9_linear_16515_1035" x1="4.1582" y1="51.7944" x2="36.7319" y2="51.7944" gradientUnits="userSpaceOnUse">
<stop stop-color="#7755FF"/>
<stop offset="0.198933" stop-color="#6371F2"/>
<stop offset="0.39624" stop-color="#40A4DA"/>
<stop offset="0.60106" stop-color="#34AED2"/>
<stop offset="0.796668" stop-color="#1BC4BF"/>
<stop offset="1" stop-color="#0DCFB3"/>
</linearGradient>
<linearGradient id="paint10_linear_16515_1035" x1="1.93945" y1="54.8986" x2="32.9427" y2="54.8986" gradientUnits="userSpaceOnUse">
<stop stop-color="#7755FF"/>
<stop offset="0.198933" stop-color="#6371F2"/>
<stop offset="0.39624" stop-color="#40A4DA"/>
<stop offset="0.60106" stop-color="#34AED2"/>
<stop offset="0.796668" stop-color="#1BC4BF"/>
<stop offset="1" stop-color="#0DCFB3"/>
</linearGradient>
</defs>
</svg>
