<svg width="40" height="40" viewBox="0 0 40 40" fill="none" xmlns="http://www.w3.org/2000/svg">
<path d="M30.6625 10.6625L12.2625 29.0625H26.25C26.4986 29.0625 26.7371 29.1613 26.9129 29.3371C27.0887 29.5129 27.1875 29.7514 27.1875 30C27.1875 30.2486 27.0887 30.4871 26.9129 30.6629C26.7371 30.8387 26.4986 30.9375 26.25 30.9375H10C9.75136 30.9375 9.5129 30.8387 9.33709 30.6629C9.16127 30.4871 9.0625 30.2486 9.0625 30V13.75C9.0625 13.5014 9.16127 13.2629 9.33709 13.0871C9.5129 12.9113 9.75136 12.8125 10 12.8125C10.2486 12.8125 10.4871 12.9113 10.6629 13.0871C10.8387 13.2629 10.9375 13.5014 10.9375 13.75V27.7375L29.3375 9.33751C29.5152 9.17191 29.7503 9.08175 29.9932 9.08604C30.236 9.09032 30.4678 9.18871 30.6395 9.36048C30.8113 9.53225 30.9097 9.76398 30.914 10.0069C30.9183 10.2497 30.8281 10.4848 30.6625 10.6625Z" fill="#F0F2F4"/>
</svg>
