<svg width="72" height="72" viewBox="0 0 72 72" fill="none" xmlns="http://www.w3.org/2000/svg">
<g opacity="0.1">
<path d="M69.9979 36.288C69.9979 35.1155 69.5321 33.9911 68.703 33.162C67.874 32.3329 66.7495 31.8672 65.5771 31.8672C64.4046 31.8672 63.2801 32.3329 62.4511 33.162C61.622 33.9911 61.1562 35.1155 61.1562 36.288C61.1562 37.4605 61.622 38.5849 62.4511 39.414C63.2801 40.243 64.4046 40.7088 65.5771 40.7088C66.7495 40.7088 67.874 40.243 68.703 39.414C69.5321 38.5849 69.9979 37.4605 69.9979 36.288Z" stroke="white" stroke-width="0.896" stroke-miterlimit="10"/>
<path d="M69.9979 36.288C69.9979 35.1155 69.5321 33.9911 68.703 33.162C67.874 32.3329 66.7495 31.8672 65.5771 31.8672C64.4046 31.8672 63.2801 32.3329 62.4511 33.162C61.622 33.9911 61.1562 35.1155 61.1562 36.288C61.1562 37.4605 61.622 38.5849 62.4511 39.414C63.2801 40.243 64.4046 40.7088 65.5771 40.7088C66.7495 40.7088 67.874 40.243 68.703 39.414C69.5321 38.5849 69.9979 37.4605 69.9979 36.288Z" stroke="url(#paint0_linear_16515_1057)" stroke-width="0.896" stroke-miterlimit="10"/>
</g>
<g opacity="0.18">
<path d="M62.0492 30.0385H62.0348C61.214 30.0385 60.4014 30.2001 59.6431 30.5142C58.8849 30.8282 58.196 31.2886 57.6156 31.8689C57.0353 32.4492 56.5749 33.1382 56.2609 33.8964C55.9468 34.6547 55.7852 35.4673 55.7852 36.2881V36.3025C55.7852 37.9599 56.4436 39.5496 57.6156 40.7216C58.7877 41.8936 60.3773 42.552 62.0348 42.552H62.0492C63.7067 42.552 65.2963 41.8936 66.4683 40.7216C67.6403 39.5496 68.2988 37.9599 68.2988 36.3025V36.2881C68.2988 35.4673 68.1371 34.6547 67.823 33.8964C67.509 33.1382 67.0486 32.4492 66.4683 31.8689C65.888 31.2886 65.199 30.8282 64.4408 30.5142C63.6825 30.2001 62.8699 30.0385 62.0492 30.0385Z" stroke="white" stroke-width="0.896" stroke-miterlimit="10"/>
<path d="M62.0492 30.0385H62.0348C61.214 30.0385 60.4014 30.2001 59.6431 30.5142C58.8849 30.8282 58.196 31.2886 57.6156 31.8689C57.0353 32.4492 56.5749 33.1382 56.2609 33.8964C55.9468 34.6547 55.7852 35.4673 55.7852 36.2881V36.3025C55.7852 37.9599 56.4436 39.5496 57.6156 40.7216C58.7877 41.8936 60.3773 42.552 62.0348 42.552H62.0492C63.7067 42.552 65.2963 41.8936 66.4683 40.7216C67.6403 39.5496 68.2988 37.9599 68.2988 36.3025V36.2881C68.2988 35.4673 68.1371 34.6547 67.823 33.8964C67.509 33.1382 67.0486 32.4492 66.4683 31.8689C65.888 31.2886 65.199 30.8282 64.4408 30.5142C63.6825 30.2001 62.8699 30.0385 62.0492 30.0385Z" stroke="url(#paint1_linear_16515_1057)" stroke-width="0.896" stroke-miterlimit="10"/>
</g>
<g opacity="0.26">
<path d="M66.5716 36.2952C66.5716 34.1508 65.7197 32.0942 64.2034 30.5778C62.687 29.0615 60.6304 28.2096 58.486 28.2096C56.3416 28.2096 54.285 29.0615 52.7686 30.5778C51.2523 32.0942 50.4004 34.1508 50.4004 36.2952C50.4004 38.4396 51.2523 40.4962 52.7686 42.0126C54.285 43.5289 56.3416 44.3808 58.486 44.3808C60.6304 44.3808 62.687 43.5289 64.2034 42.0126C65.7197 40.4962 66.5716 38.4396 66.5716 36.2952Z" stroke="white" stroke-width="0.896" stroke-miterlimit="10"/>
<path d="M66.5716 36.2952C66.5716 34.1508 65.7197 32.0942 64.2034 30.5778C62.687 29.0615 60.6304 28.2096 58.486 28.2096C56.3416 28.2096 54.285 29.0615 52.7686 30.5778C51.2523 32.0942 50.4004 34.1508 50.4004 36.2952C50.4004 38.4396 51.2523 40.4962 52.7686 42.0126C54.285 43.5289 56.3416 44.3808 58.486 44.3808C60.6304 44.3808 62.687 43.5289 64.2034 42.0126C65.7197 40.4962 66.5716 38.4396 66.5716 36.2952Z" stroke="url(#paint2_linear_16515_1057)" stroke-width="0.896" stroke-miterlimit="10"/>
</g>
<g opacity="0.35">
<path d="M64.8714 36.3025C64.8714 30.8233 60.429 26.3809 54.9489 26.3809C49.4697 26.3809 45.0273 30.8233 45.0273 36.3025C45.0273 41.7817 49.4697 46.2241 54.9489 46.2241C60.429 46.2241 64.8714 41.7817 64.8714 36.3025Z" stroke="white" stroke-width="0.896" stroke-miterlimit="10"/>
<path d="M64.8714 36.3025C64.8714 30.8233 60.429 26.3809 54.9489 26.3809C49.4697 26.3809 45.0273 30.8233 45.0273 36.3025C45.0273 41.7817 49.4697 46.2241 54.9489 46.2241C60.429 46.2241 64.8714 41.7817 64.8714 36.3025Z" stroke="url(#paint3_linear_16515_1057)" stroke-width="0.896" stroke-miterlimit="10"/>
</g>
<g opacity="0.43">
<path d="M63.1444 36.3024C63.1444 29.8134 57.8848 24.552 51.3949 24.552C44.9059 24.552 39.6445 29.8125 39.6445 36.3024C39.6445 42.7914 44.905 48.0528 51.3949 48.0528C57.8839 48.0528 63.1444 42.7914 63.1444 36.3024Z" stroke="white" stroke-width="0.896" stroke-miterlimit="10"/>
<path d="M63.1444 36.3024C63.1444 29.8134 57.8848 24.552 51.3949 24.552C44.9059 24.552 39.6445 29.8125 39.6445 36.3024C39.6445 42.7914 44.905 48.0528 51.3949 48.0528C57.8839 48.0528 63.1444 42.7914 63.1444 36.3024Z" stroke="url(#paint4_linear_16515_1057)" stroke-width="0.896" stroke-miterlimit="10"/>
</g>
<g opacity="0.51">
<path d="M61.4299 36.3023C61.4299 28.8026 55.3504 22.7231 47.8507 22.7231C40.351 22.7231 34.2715 28.8026 34.2715 36.3023C34.2715 43.802 40.351 49.8815 47.8507 49.8815C55.3504 49.8815 61.4299 43.802 61.4299 36.3023Z" stroke="white" stroke-width="0.896" stroke-miterlimit="10"/>
<path d="M61.4299 36.3023C61.4299 28.8026 55.3504 22.7231 47.8507 22.7231C40.351 22.7231 34.2715 28.8026 34.2715 36.3023C34.2715 43.802 40.351 49.8815 47.8507 49.8815C55.3504 49.8815 61.4299 43.802 61.4299 36.3023Z" stroke="url(#paint5_linear_16515_1057)" stroke-width="0.896" stroke-miterlimit="10"/>
</g>
<g opacity="0.59">
<path d="M44.3091 20.88H44.2947C35.7852 20.88 28.8867 27.7785 28.8867 36.288V36.3024C28.8867 44.8119 35.7852 51.7104 44.2947 51.7104H44.3091C52.8186 51.7104 59.7171 44.8119 59.7171 36.3024V36.288C59.7171 27.7785 52.8186 20.88 44.3091 20.88Z" stroke="white" stroke-width="0.896" stroke-miterlimit="10"/>
<path d="M44.3091 20.88H44.2947C35.7852 20.88 28.8867 27.7785 28.8867 36.288V36.3024C28.8867 44.8119 35.7852 51.7104 44.2947 51.7104H44.3091C52.8186 51.7104 59.7171 44.8119 59.7171 36.3024V36.288C59.7171 27.7785 52.8186 20.88 44.3091 20.88Z" stroke="url(#paint6_linear_16515_1057)" stroke-width="0.896" stroke-miterlimit="10"/>
</g>
<g opacity="0.67">
<path d="M40.7521 19.0511H40.7368C31.2175 19.0511 23.5 26.7686 23.5 36.2879V36.3023C23.5 45.8216 31.2175 53.5391 40.7368 53.5391H40.7512C50.2714 53.5391 57.988 45.8216 57.988 36.3023V36.2879C57.988 26.7677 50.2723 19.0511 40.7521 19.0511Z" stroke="white" stroke-width="0.896" stroke-miterlimit="10"/>
<path d="M40.7521 19.0511H40.7368C31.2175 19.0511 23.5 26.7686 23.5 36.2879V36.3023C23.5 45.8216 31.2175 53.5391 40.7368 53.5391H40.7512C50.2714 53.5391 57.988 45.8216 57.988 36.3023V36.2879C57.988 26.7677 50.2723 19.0511 40.7521 19.0511Z" stroke="url(#paint7_linear_16515_1057)" stroke-width="0.896" stroke-miterlimit="10"/>
</g>
<g opacity="0.75">
<path d="M56.2765 36.2952C56.2765 25.7616 47.7364 17.2224 37.2028 17.2224C26.6701 17.2224 18.1309 25.7616 18.1309 36.2952C18.1309 46.8288 26.6701 55.368 37.2037 55.368C47.7364 55.368 56.2765 46.8288 56.2765 36.2952Z" stroke="white" stroke-width="0.896" stroke-miterlimit="10"/>
<path d="M56.2765 36.2952C56.2765 25.7616 47.7364 17.2224 37.2028 17.2224C26.6701 17.2224 18.1309 25.7616 18.1309 36.2952C18.1309 46.8288 26.6701 55.368 37.2037 55.368C47.7364 55.368 56.2765 46.8288 56.2765 36.2952Z" stroke="url(#paint8_linear_16515_1057)" stroke-width="0.896" stroke-miterlimit="10"/>
</g>
<g opacity="0.84">
<path d="M54.5617 36.3024C54.5617 24.7554 45.2008 15.3936 33.6529 15.3936C22.1059 15.3936 12.7441 24.7545 12.7441 36.3024C12.7441 47.8494 22.105 57.2112 33.6529 57.2112C45.1999 57.2112 54.5617 47.8503 54.5617 36.3024Z" stroke="white" stroke-width="0.896" stroke-miterlimit="10"/>
<path d="M54.5617 36.3024C54.5617 24.7554 45.2008 15.3936 33.6529 15.3936C22.1059 15.3936 12.7441 24.7545 12.7441 36.3024C12.7441 47.8494 22.105 57.2112 33.6529 57.2112C45.1999 57.2112 54.5617 47.8503 54.5617 36.3024Z" stroke="url(#paint9_linear_16515_1057)" stroke-width="0.896" stroke-miterlimit="10"/>
</g>
<g opacity="0.92">
<path d="M52.8472 36.3024C52.8472 23.7447 42.6664 13.5648 30.1087 13.5648C17.551 13.5648 7.37109 23.7438 7.37109 36.3024C7.37109 48.8601 17.551 59.04 30.1087 59.04C42.6664 59.04 52.8472 48.8601 52.8472 36.3024Z" stroke="white" stroke-width="0.896" stroke-miterlimit="10"/>
<path d="M52.8472 36.3024C52.8472 23.7447 42.6664 13.5648 30.1087 13.5648C17.551 13.5648 7.37109 23.7438 7.37109 36.3024C7.37109 48.8601 17.551 59.04 30.1087 59.04C42.6664 59.04 52.8472 48.8601 52.8472 36.3024Z" stroke="url(#paint10_linear_16515_1057)" stroke-width="0.896" stroke-miterlimit="10"/>
</g>
<path d="M51.1191 36.288C51.1191 22.7205 40.1211 11.7216 26.5527 11.7216C12.9852 11.7216 1.98633 22.7196 1.98633 36.288C1.98633 49.8555 12.9843 60.8544 26.5527 60.8544C40.1202 60.8544 51.1191 49.8564 51.1191 36.288Z" stroke="white" stroke-width="0.896" stroke-miterlimit="10"/>
<path d="M51.1191 36.288C51.1191 22.7205 40.1211 11.7216 26.5527 11.7216C12.9852 11.7216 1.98633 22.7196 1.98633 36.288C1.98633 49.8555 12.9843 60.8544 26.5527 60.8544C40.1202 60.8544 51.1191 49.8564 51.1191 36.288Z" stroke="url(#paint11_linear_16515_1057)" stroke-width="0.896" stroke-miterlimit="10"/>
<defs>
<linearGradient id="paint0_linear_16515_1057" x1="61.1562" y1="36.2424" x2="69.9979" y2="36.2424" gradientUnits="userSpaceOnUse">
<stop stop-color="#7755FF"/>
<stop offset="0.198933" stop-color="#6371F2"/>
<stop offset="0.39624" stop-color="#40A4DA"/>
<stop offset="0.60106" stop-color="#34AED2"/>
<stop offset="0.796668" stop-color="#1BC4BF"/>
<stop offset="1" stop-color="#0DCFB3"/>
</linearGradient>
<linearGradient id="paint1_linear_16515_1057" x1="55.7852" y1="36.2307" x2="68.2988" y2="36.2307" gradientUnits="userSpaceOnUse">
<stop stop-color="#7755FF"/>
<stop offset="0.198933" stop-color="#6371F2"/>
<stop offset="0.39624" stop-color="#40A4DA"/>
<stop offset="0.60106" stop-color="#34AED2"/>
<stop offset="0.796668" stop-color="#1BC4BF"/>
<stop offset="1" stop-color="#0DCFB3"/>
</linearGradient>
<linearGradient id="paint2_linear_16515_1057" x1="50.4004" y1="36.2118" x2="66.5716" y2="36.2118" gradientUnits="userSpaceOnUse">
<stop stop-color="#7755FF"/>
<stop offset="0.198933" stop-color="#6371F2"/>
<stop offset="0.39624" stop-color="#40A4DA"/>
<stop offset="0.60106" stop-color="#34AED2"/>
<stop offset="0.796668" stop-color="#1BC4BF"/>
<stop offset="1" stop-color="#0DCFB3"/>
</linearGradient>
<linearGradient id="paint3_linear_16515_1057" x1="45.0273" y1="36.2002" x2="64.8714" y2="36.2002" gradientUnits="userSpaceOnUse">
<stop stop-color="#7755FF"/>
<stop offset="0.198933" stop-color="#6371F2"/>
<stop offset="0.39624" stop-color="#40A4DA"/>
<stop offset="0.60106" stop-color="#34AED2"/>
<stop offset="0.796668" stop-color="#1BC4BF"/>
<stop offset="1" stop-color="#0DCFB3"/>
</linearGradient>
<linearGradient id="paint4_linear_16515_1057" x1="39.6445" y1="36.1813" x2="63.1453" y2="36.1813" gradientUnits="userSpaceOnUse">
<stop stop-color="#7755FF"/>
<stop offset="0.198933" stop-color="#6371F2"/>
<stop offset="0.39624" stop-color="#40A4DA"/>
<stop offset="0.60106" stop-color="#34AED2"/>
<stop offset="0.796668" stop-color="#1BC4BF"/>
<stop offset="1" stop-color="#0DCFB3"/>
</linearGradient>
<linearGradient id="paint5_linear_16515_1057" x1="34.2715" y1="36.1624" x2="61.4299" y2="36.1623" gradientUnits="userSpaceOnUse">
<stop stop-color="#7755FF"/>
<stop offset="0.198933" stop-color="#6371F2"/>
<stop offset="0.39624" stop-color="#40A4DA"/>
<stop offset="0.60106" stop-color="#34AED2"/>
<stop offset="0.796668" stop-color="#1BC4BF"/>
<stop offset="1" stop-color="#0DCFB3"/>
</linearGradient>
<linearGradient id="paint6_linear_16515_1057" x1="28.8867" y1="36.1363" x2="59.7171" y2="36.1363" gradientUnits="userSpaceOnUse">
<stop stop-color="#7755FF"/>
<stop offset="0.198933" stop-color="#6371F2"/>
<stop offset="0.39624" stop-color="#40A4DA"/>
<stop offset="0.60106" stop-color="#34AED2"/>
<stop offset="0.796668" stop-color="#1BC4BF"/>
<stop offset="1" stop-color="#0DCFB3"/>
</linearGradient>
<linearGradient id="paint7_linear_16515_1057" x1="23.5" y1="36.1174" x2="57.988" y2="36.1174" gradientUnits="userSpaceOnUse">
<stop stop-color="#7755FF"/>
<stop offset="0.198933" stop-color="#6371F2"/>
<stop offset="0.39624" stop-color="#40A4DA"/>
<stop offset="0.60106" stop-color="#34AED2"/>
<stop offset="0.796668" stop-color="#1BC4BF"/>
<stop offset="1" stop-color="#0DCFB3"/>
</linearGradient>
<linearGradient id="paint8_linear_16515_1057" x1="18.1309" y1="36.0986" x2="56.2765" y2="36.0986" gradientUnits="userSpaceOnUse">
<stop stop-color="#7755FF"/>
<stop offset="0.198933" stop-color="#6371F2"/>
<stop offset="0.39624" stop-color="#40A4DA"/>
<stop offset="0.60106" stop-color="#34AED2"/>
<stop offset="0.796668" stop-color="#1BC4BF"/>
<stop offset="1" stop-color="#0DCFB3"/>
</linearGradient>
<linearGradient id="paint9_linear_16515_1057" x1="12.7441" y1="36.0868" x2="54.5617" y2="36.0868" gradientUnits="userSpaceOnUse">
<stop stop-color="#7755FF"/>
<stop offset="0.198933" stop-color="#6371F2"/>
<stop offset="0.39624" stop-color="#40A4DA"/>
<stop offset="0.60106" stop-color="#34AED2"/>
<stop offset="0.796668" stop-color="#1BC4BF"/>
<stop offset="1" stop-color="#0DCFB3"/>
</linearGradient>
<linearGradient id="paint10_linear_16515_1057" x1="7.37109" y1="36.068" x2="52.8472" y2="36.068" gradientUnits="userSpaceOnUse">
<stop stop-color="#7755FF"/>
<stop offset="0.198933" stop-color="#6371F2"/>
<stop offset="0.39624" stop-color="#40A4DA"/>
<stop offset="0.60106" stop-color="#34AED2"/>
<stop offset="0.796668" stop-color="#1BC4BF"/>
<stop offset="1" stop-color="#0DCFB3"/>
</linearGradient>
<linearGradient id="paint11_linear_16515_1057" x1="1.98633" y1="36.0347" x2="51.1191" y2="36.0347" gradientUnits="userSpaceOnUse">
<stop stop-color="#7755FF"/>
<stop offset="0.198933" stop-color="#6371F2"/>
<stop offset="0.39624" stop-color="#40A4DA"/>
<stop offset="0.60106" stop-color="#34AED2"/>
<stop offset="0.796668" stop-color="#1BC4BF"/>
<stop offset="1" stop-color="#0DCFB3"/>
</linearGradient>
</defs>
</svg>
