<svg width="72" height="72" viewBox="0 0 72 72" fill="none" xmlns="http://www.w3.org/2000/svg">
<path d="M29.0727 8.63997C21.4551 6.43677 10.7559 1.78557 6.92554 9.48957C2.73514 17.9568 10.1511 25.92 14.9895 32.184C18.3159 36.936 17.1351 40.9968 12.7287 45.6336C2.87914 55.9584 7.31434 69.7824 21.8151 70.0128C28.1367 70.0128 33.9975 67.0176 39.5703 64.0224C50.2551 58.2624 56.8503 62.5104 63.8055 57.5136C68.4711 54.1872 65.1735 45.6912 63.2439 40.5792C61.5981 36.3043 61.4912 31.5899 62.9415 27.2448C64.3815 21.744 65.3031 12.8448 59.2263 10.0944C56.4615 9.05757 53.2791 10.2528 50.3991 9.31677C46.8279 8.12157 45.0423 3.90237 41.5431 2.50557C34.7319 -0.230428 34.5591 10.08 29.0727 8.63997Z" stroke="white" stroke-width="0.8" stroke-miterlimit="10"/>
<path d="M29.0727 8.63997C21.4551 6.43677 10.7559 1.78557 6.92554 9.48957C2.73514 17.9568 10.1511 25.92 14.9895 32.184C18.3159 36.936 17.1351 40.9968 12.7287 45.6336C2.87914 55.9584 7.31434 69.7824 21.8151 70.0128C28.1367 70.0128 33.9975 67.0176 39.5703 64.0224C50.2551 58.2624 56.8503 62.5104 63.8055 57.5136C68.4711 54.1872 65.1735 45.6912 63.2439 40.5792C61.5981 36.3043 61.4912 31.5899 62.9415 27.2448C64.3815 21.744 65.3031 12.8448 59.2263 10.0944C56.4615 9.05757 53.2791 10.2528 50.3991 9.31677C46.8279 8.12157 45.0423 3.90237 41.5431 2.50557C34.7319 -0.230428 34.5591 10.08 29.0727 8.63997Z" stroke="url(#paint0_linear_16515_1080)" stroke-width="0.8" stroke-miterlimit="10"/>
<path d="M42.0349 4.16164C45.3613 5.45764 47.0893 9.41764 50.4877 10.5552C53.1517 11.448 56.2477 10.2816 58.8109 11.3472C64.5709 13.7664 64.0381 22.4352 62.4829 27.6048C61.2357 31.7703 61.3518 36.2252 62.8141 40.32C64.6141 45.216 67.6381 53.28 63.2029 56.4768C56.5501 61.2864 50.2429 57.4128 40.1629 62.784C34.8781 65.5776 29.3053 68.4144 23.3437 68.3136C9.66373 68.112 5.44452 55.008 14.5453 45.2736C18.6349 40.8816 19.8301 36.9648 16.6333 32.5152C12.3133 26.4528 5.22853 18.9936 9.21733 11.0016C12.8173 3.64324 22.8973 7.92004 30.1117 9.87844C35.2957 11.2896 35.5405 1.59844 42.0349 4.16164Z" stroke="white" stroke-width="0.784" stroke-miterlimit="10"/>
<path d="M42.0349 4.16164C45.3613 5.45764 47.0893 9.41764 50.4877 10.5552C53.1517 11.448 56.2477 10.2816 58.8109 11.3472C64.5709 13.7664 64.0381 22.4352 62.4829 27.6048C61.2357 31.7703 61.3518 36.2252 62.8141 40.32C64.6141 45.216 67.6381 53.28 63.2029 56.4768C56.5501 61.2864 50.2429 57.4128 40.1629 62.784C34.8781 65.5776 29.3053 68.4144 23.3437 68.3136C9.66373 68.112 5.44452 55.008 14.5453 45.2736C18.6349 40.8816 19.8301 36.9648 16.6333 32.5152C12.3133 26.4528 5.22853 18.9936 9.21733 11.0016C12.8173 3.64324 22.8973 7.92004 30.1117 9.87844C35.2957 11.2896 35.5405 1.59844 42.0349 4.16164Z" stroke="url(#paint1_linear_16515_1080)" stroke-width="0.784" stroke-miterlimit="10"/>
<path d="M42.4498 5.75999C45.6034 6.98399 47.3026 10.656 50.5138 11.736C53.0338 12.5856 55.9282 11.52 58.3906 12.5424C63.9058 14.9184 63.3586 23.04 62.0194 27.9648C60.9037 31.9149 61.0294 36.1125 62.3794 39.9888C64.0498 44.6832 66.8146 52.3008 62.6098 55.3824C56.317 59.9904 50.3122 56.5056 40.6786 61.4736C35.6818 64.08 30.4258 66.6864 24.8386 66.5568C11.9515 66.24 7.91954 54 16.3138 44.7696C20.0866 40.6224 21.181 36.9072 18.2002 32.7168C14.1259 26.9568 7.65944 19.9008 11.4322 12.3696C14.8882 5.50079 24.3922 9.38879 31.1602 11.16C35.9986 12.456 36.3442 3.45599 42.4498 5.75999Z" stroke="white" stroke-width="0.752" stroke-miterlimit="10"/>
<path d="M42.4498 5.75999C45.6034 6.98399 47.3026 10.656 50.5138 11.736C53.0338 12.5856 55.9282 11.52 58.3906 12.5424C63.9058 14.9184 63.3586 23.04 62.0194 27.9648C60.9037 31.9149 61.0294 36.1125 62.3794 39.9888C64.0498 44.6832 66.8146 52.3008 62.6098 55.3824C56.317 59.9904 50.3122 56.5056 40.6786 61.4736C35.6818 64.08 30.4258 66.6864 24.8386 66.5568C11.9515 66.24 7.91954 54 16.3138 44.7696C20.0866 40.6224 21.181 36.9072 18.2002 32.7168C14.1259 26.9568 7.65944 19.9008 11.4322 12.3696C14.8882 5.50079 24.3922 9.38879 31.1602 11.16C35.9986 12.456 36.3442 3.45599 42.4498 5.75999Z" stroke="url(#paint2_linear_16515_1080)" stroke-width="0.752" stroke-miterlimit="10"/>
<path d="M42.8692 7.47364C45.8644 8.64004 47.5204 12.0096 50.5444 13.032C52.9204 13.824 55.6564 12.8736 57.9748 13.8528C63.1588 16.0704 62.8132 23.6736 61.5604 28.3392C60.5685 32.0755 60.6937 36.0206 61.9204 39.6864C63.49 44.1792 65.9668 51.3648 62.0068 54.3168C56.074 58.7376 50.3428 55.6128 41.2276 60.2064C36.5044 62.5968 31.5652 64.9872 26.2804 64.8288C14.2564 64.4976 10.4404 53.0208 18.1012 44.3232C21.5572 40.4352 22.5364 36.936 19.8004 32.976C16.042 27.5184 10.0804 20.8656 13.6948 13.7952C16.9492 7.35844 25.7908 10.9152 32.2132 12.456C36.7924 13.608 37.138 5.31364 42.8692 7.47364Z" stroke="white" stroke-width="0.736" stroke-miterlimit="10"/>
<path d="M42.8692 7.47364C45.8644 8.64004 47.5204 12.0096 50.5444 13.032C52.9204 13.824 55.6564 12.8736 57.9748 13.8528C63.1588 16.0704 62.8132 23.6736 61.5604 28.3392C60.5685 32.0755 60.6937 36.0206 61.9204 39.6864C63.49 44.1792 65.9668 51.3648 62.0068 54.3168C56.074 58.7376 50.3428 55.6128 41.2276 60.2064C36.5044 62.5968 31.5652 64.9872 26.2804 64.8288C14.2564 64.4976 10.4404 53.0208 18.1012 44.3232C21.5572 40.4352 22.5364 36.936 19.8004 32.976C16.042 27.5184 10.0804 20.8656 13.6948 13.7952C16.9492 7.35844 25.7908 10.9152 32.2132 12.456C36.7924 13.608 37.138 5.31364 42.8692 7.47364Z" stroke="url(#paint3_linear_16515_1080)" stroke-width="0.736" stroke-miterlimit="10"/>
<path d="M43.2862 9.12962C46.1662 10.1664 47.707 13.3056 50.5726 14.256C52.819 15.0192 55.3678 14.184 57.5422 15.1056C62.4238 17.208 62.1934 24.2928 61.099 28.6992C60.2369 32.2338 60.3766 35.9387 61.5022 39.3984C62.9422 43.7184 65.1598 50.4144 61.4302 53.2512C55.843 57.4704 50.3854 54.6912 41.803 59.0112C37.3678 61.2 32.7166 63.3312 27.7774 63.1728C16.5886 62.712 12.9607 52.056 19.9006 43.8912C23.0398 40.248 23.9326 36.9648 21.427 33.2352C17.9566 28.08 12.5998 21.8304 15.955 15.2352C19.0222 9.21602 27.2446 12.3552 33.235 13.7952C37.5406 14.76 37.9447 7.20002 43.2862 9.12962Z" stroke="white" stroke-width="0.72" stroke-miterlimit="10"/>
<path d="M43.2862 9.12962C46.1662 10.1664 47.707 13.3056 50.5726 14.256C52.819 15.0192 55.3678 14.184 57.5422 15.1056C62.4238 17.208 62.1934 24.2928 61.099 28.6992C60.2369 32.2338 60.3766 35.9387 61.5022 39.3984C62.9422 43.7184 65.1598 50.4144 61.4302 53.2512C55.843 57.4704 50.3854 54.6912 41.803 59.0112C37.3678 61.2 32.7166 63.3312 27.7774 63.1728C16.5886 62.712 12.9607 52.056 19.9006 43.8912C23.0398 40.248 23.9326 36.9648 21.427 33.2352C17.9566 28.08 12.5998 21.8304 15.955 15.2352C19.0222 9.21602 27.2446 12.3552 33.235 13.7952C37.5406 14.76 37.9447 7.20002 43.2862 9.12962Z" stroke="url(#paint4_linear_16515_1080)" stroke-width="0.72" stroke-miterlimit="10"/>
<path d="M43.717 10.7856C46.381 11.736 47.9074 14.5872 50.6002 15.4944C52.7026 16.2144 55.093 15.4944 57.1234 16.3728C61.6882 18.36 61.5874 24.912 60.637 29.0592C59.8922 32.3987 60.0412 35.8756 61.069 39.1392C62.3794 43.2144 64.3234 49.5072 60.8242 52.2288C55.6114 56.16 50.3995 53.8128 42.3634 57.6C38.2018 59.5872 33.8674 61.5312 29.2738 61.3296C18.9058 60.8544 15.4066 51.0048 21.6994 43.4016C24.5794 40.0032 25.2994 36.936 23.0386 33.4512C19.8706 28.584 15.061 22.7376 18.2146 16.6176C21.0946 11.0016 28.6834 13.7376 34.2994 14.976C38.2882 15.9264 38.749 9 43.717 10.7856Z" stroke="white" stroke-width="0.688" stroke-miterlimit="10"/>
<path d="M43.717 10.7856C46.381 11.736 47.9074 14.5872 50.6002 15.4944C52.7026 16.2144 55.093 15.4944 57.1234 16.3728C61.6882 18.36 61.5874 24.912 60.637 29.0592C59.8922 32.3987 60.0412 35.8756 61.069 39.1392C62.3794 43.2144 64.3234 49.5072 60.8242 52.2288C55.6114 56.16 50.3995 53.8128 42.3634 57.6C38.2018 59.5872 33.8674 61.5312 29.2738 61.3296C18.9058 60.8544 15.4066 51.0048 21.6994 43.4016C24.5794 40.0032 25.2994 36.936 23.0386 33.4512C19.8706 28.584 15.061 22.7376 18.2146 16.6176C21.0946 11.0016 28.6834 13.7376 34.2994 14.976C38.2882 15.9264 38.749 9 43.717 10.7856Z" stroke="url(#paint5_linear_16515_1080)" stroke-width="0.688" stroke-miterlimit="10"/>
<path d="M44.1352 12.4416C46.6255 13.3056 48.1231 15.8832 50.6287 16.7616C52.6015 17.424 54.8191 16.7616 56.7055 17.6544C60.94 19.5408 61.0255 25.5744 60.1768 29.448C59.5579 32.5824 59.7158 35.8207 60.6367 38.88C61.8184 42.7392 63.5167 48.6 60.2335 51.192C55.3807 55.0224 50.4415 52.992 42.9535 56.4624C39.0808 58.248 35.0488 59.9472 30.8008 59.7312C21.268 59.184 17.9416 50.1552 23.6008 43.0992C26.0911 39.9312 26.7823 37.0944 24.7384 33.84C21.8584 29.2896 17.6383 23.832 20.5624 18.1728C23.2552 12.9888 30.2392 15.2928 35.452 16.4016C39.0367 17.0784 39.5569 10.8576 44.1352 12.4416Z" stroke="white" stroke-width="0.672" stroke-miterlimit="10"/>
<path d="M44.1352 12.4416C46.6255 13.3056 48.1231 15.8832 50.6287 16.7616C52.6015 17.424 54.8191 16.7616 56.7055 17.6544C60.94 19.5408 61.0255 25.5744 60.1768 29.448C59.5579 32.5824 59.7158 35.8207 60.6367 38.88C61.8184 42.7392 63.5167 48.6 60.2335 51.192C55.3807 55.0224 50.4415 52.992 42.9535 56.4624C39.0808 58.248 35.0488 59.9472 30.8008 59.7312C21.268 59.184 17.9416 50.1552 23.6008 43.0992C26.0911 39.9312 26.7823 37.0944 24.7384 33.84C21.8584 29.2896 17.6383 23.832 20.5624 18.1728C23.2552 12.9888 30.2392 15.2928 35.452 16.4016C39.0367 17.0784 39.5569 10.8576 44.1352 12.4416Z" stroke="url(#paint6_linear_16515_1080)" stroke-width="0.672" stroke-miterlimit="10"/>
<path d="M44.5534 14.0976C46.8862 14.8752 48.3262 17.1792 50.659 17.9712C52.4878 18.5904 54.5326 18.072 56.2894 18.8784C60.2062 20.664 60.3646 26.1648 59.7166 29.7792C59.2306 32.6883 59.3978 35.6691 60.2062 38.5056C61.2574 42.1776 62.6686 47.5776 59.6446 50.0256C55.1518 53.6544 50.4862 51.9984 43.4734 55.0944C39.8734 56.6784 36.1582 58.1616 32.2558 57.9024C23.6158 57.312 20.4046 49.0752 25.2862 42.5664C27.475 39.6864 28.051 37.008 26.251 33.9984C23.7022 29.7504 20.0014 24.696 22.723 19.512C25.2286 14.7456 31.579 16.632 36.403 17.5824C39.787 18.2448 40.3198 12.7008 44.5534 14.0976Z" stroke="white" stroke-width="0.64" stroke-miterlimit="10"/>
<path d="M44.5534 14.0976C46.8862 14.8752 48.3262 17.1792 50.659 17.9712C52.4878 18.5904 54.5326 18.072 56.2894 18.8784C60.2062 20.664 60.3646 26.1648 59.7166 29.7792C59.2306 32.6883 59.3978 35.6691 60.2062 38.5056C61.2574 42.1776 62.6686 47.5776 59.6446 50.0256C55.1518 53.6544 50.4862 51.9984 43.4734 55.0944C39.8734 56.6784 36.1582 58.1616 32.2558 57.9024C23.6158 57.312 20.4046 49.0752 25.2862 42.5664C27.475 39.6864 28.051 37.008 26.251 33.9984C23.7022 29.7504 20.0014 24.696 22.723 19.512C25.2286 14.7456 31.579 16.632 36.403 17.5824C39.787 18.2448 40.3198 12.7008 44.5534 14.0976Z" stroke="url(#paint7_linear_16515_1080)" stroke-width="0.64" stroke-miterlimit="10"/>
<path d="M44.9858 15.7536C47.1458 16.4448 48.5282 18.4752 50.7458 19.2096C52.445 19.7856 54.317 19.368 55.9298 20.1312C59.5298 21.8016 59.8034 26.784 59.3138 30.2112C58.9473 32.9068 59.1236 35.6486 59.8322 38.2752C60.7538 41.7312 61.9058 46.6992 59.1122 49.0464C54.9794 52.488 50.573 51.192 44.093 53.8992C40.7666 55.3392 37.3538 56.5488 33.797 56.2608C25.9202 55.6128 22.9538 48.1824 27.1442 42.2064C29.0018 39.5424 29.4914 37.1232 27.9218 34.3584C25.6898 30.3984 22.5218 25.7184 25.0418 21.0384C27.3458 16.7184 33.0914 18.2592 37.4978 18.9648C40.5362 19.3968 41.1554 14.544 44.9858 15.7536Z" stroke="white" stroke-width="0.624" stroke-miterlimit="10"/>
<path d="M44.9858 15.7536C47.1458 16.4448 48.5282 18.4752 50.7458 19.2096C52.445 19.7856 54.317 19.368 55.9298 20.1312C59.5298 21.8016 59.8034 26.784 59.3138 30.2112C58.9473 32.9068 59.1236 35.6486 59.8322 38.2752C60.7538 41.7312 61.9058 46.6992 59.1122 49.0464C54.9794 52.488 50.573 51.192 44.093 53.8992C40.7666 55.3392 37.3538 56.5488 33.797 56.2608C25.9202 55.6128 22.9538 48.1824 27.1442 42.2064C29.0018 39.5424 29.4914 37.1232 27.9218 34.3584C25.6898 30.3984 22.5218 25.7184 25.0418 21.0384C27.3458 16.7184 33.0914 18.2592 37.4978 18.9648C40.5362 19.3968 41.1554 14.544 44.9858 15.7536Z" stroke="url(#paint8_linear_16515_1080)" stroke-width="0.624" stroke-miterlimit="10"/>
<path d="M45.4038 17.4096C47.4054 18.0144 48.7302 19.7712 50.7174 20.4336C52.2726 20.9664 53.9718 20.6784 55.4406 21.384C58.7238 22.9536 59.127 27.4032 58.7958 30.5136C58.5509 32.9932 58.7311 35.4964 59.3286 37.9152C60.135 41.1696 61.0278 45.7056 58.4646 47.9952C54.7206 51.1776 50.5446 50.256 44.6406 52.5744C41.7186 53.9353 38.5165 54.5865 35.295 54.4752C28.239 53.7552 25.4598 47.1456 28.9302 41.7168C29.7312 40.7108 30.2162 39.49 30.3238 38.2085C30.4315 36.927 30.157 35.6424 29.535 34.5168C27.6054 30.8592 24.999 26.6256 27.2886 22.3632C29.4198 18.4464 34.4886 19.6273 38.5494 20.1457C41.271 20.5633 41.9622 16.3872 45.4038 17.4096Z" stroke="white" stroke-width="0.608" stroke-miterlimit="10"/>
<path d="M45.4038 17.4096C47.4054 18.0144 48.7302 19.7712 50.7174 20.4336C52.2726 20.9664 53.9718 20.6784 55.4406 21.384C58.7238 22.9536 59.127 27.4032 58.7958 30.5136C58.5509 32.9932 58.7311 35.4964 59.3286 37.9152C60.135 41.1696 61.0278 45.7056 58.4646 47.9952C54.7206 51.1776 50.5446 50.256 44.6406 52.5744C41.7186 53.9353 38.5165 54.5865 35.295 54.4752C28.239 53.7552 25.4598 47.1456 28.9302 41.7168C29.7312 40.7108 30.2162 39.49 30.3238 38.2085C30.4315 36.927 30.157 35.6424 29.535 34.5168C27.6054 30.8592 24.999 26.6256 27.2886 22.3632C29.4198 18.4464 34.4886 19.6273 38.5494 20.1457C41.271 20.5633 41.9622 16.3872 45.4038 17.4096Z" stroke="url(#paint9_linear_16515_1080)" stroke-width="0.608" stroke-miterlimit="10"/>
<path d="M45.8199 19.0655C47.6631 19.5695 48.9447 21.0527 50.7447 21.672C52.1847 22.1616 53.6247 21.9744 55.0647 22.6368C58.0311 24.0768 58.5495 28.0224 58.3767 30.8736C58.2587 33.1398 58.4476 35.4116 58.9383 37.6272C59.6151 40.6656 60.2343 44.7552 57.9015 46.8576C54.5031 49.9104 50.7015 49.3632 45.1863 51.3072C42.5282 52.4348 39.644 52.9278 36.7623 52.7472C30.5415 51.9696 27.9351 46.1808 30.7143 41.2272C31.3508 40.2832 31.7248 39.187 31.7982 38.0509C31.8716 36.9148 31.6416 35.7796 31.1319 34.7616C29.5047 31.4064 27.4455 27.5615 29.5335 23.7887C31.4775 20.2895 35.9703 21.0816 39.6135 21.4272C42.0183 21.7152 42.7671 18.2303 45.8199 19.0655Z" stroke="white" stroke-width="0.576" stroke-miterlimit="10"/>
<path d="M45.8199 19.0655C47.6631 19.5695 48.9447 21.0527 50.7447 21.672C52.1847 22.1616 53.6247 21.9744 55.0647 22.6368C58.0311 24.0768 58.5495 28.0224 58.3767 30.8736C58.2587 33.1398 58.4476 35.4116 58.9383 37.6272C59.6151 40.6656 60.2343 44.7552 57.9015 46.8576C54.5031 49.9104 50.7015 49.3632 45.1863 51.3072C42.5282 52.4348 39.644 52.9278 36.7623 52.7472C30.5415 51.9696 27.9351 46.1808 30.7143 41.2272C31.3508 40.2832 31.7248 39.187 31.7982 38.0509C31.8716 36.9148 31.6416 35.7796 31.1319 34.7616C29.5047 31.4064 27.4455 27.5615 29.5335 23.7887C31.4775 20.2895 35.9703 21.0816 39.6135 21.4272C42.0183 21.7152 42.7671 18.2303 45.8199 19.0655Z" stroke="url(#paint10_linear_16515_1080)" stroke-width="0.576" stroke-miterlimit="10"/>
<path d="M46.2394 20.7216C47.9242 21.1392 49.1194 22.3488 50.7754 22.9104C52.0741 23.1435 53.3548 23.4702 54.6058 23.8896C57.241 25.2432 57.889 28.6416 57.8746 31.2336C57.8763 33.2782 58.074 35.3179 58.465 37.3248C59.0122 40.2048 59.3722 43.8192 57.2698 45.7776C54.2314 48.6576 50.617 48.4704 45.7498 50.0976C43.3635 51.0003 40.801 51.3403 38.2618 51.0912C37.1125 50.9993 36.0033 50.6272 35.0311 50.0074C34.0589 49.3876 33.2534 48.539 32.6851 47.5359C32.1167 46.5328 31.8028 45.4057 31.7709 44.2531C31.739 43.1006 31.9899 41.9579 32.5018 40.9248C32.9767 40.0454 33.2432 39.0687 33.2806 38.07C33.3181 37.0712 33.1255 36.0773 32.7178 35.1648C31.4074 32.0976 29.8378 28.6704 31.7818 25.3584C33.5242 22.2768 37.3978 22.68 40.609 22.8384C42.769 22.8816 43.5754 20.0592 46.2394 20.7216Z" stroke="white" stroke-width="0.56" stroke-miterlimit="10"/>
<path d="M46.2394 20.7216C47.9242 21.1392 49.1194 22.3488 50.7754 22.9104C52.0741 23.1435 53.3548 23.4702 54.6058 23.8896C57.241 25.2432 57.889 28.6416 57.8746 31.2336C57.8763 33.2782 58.074 35.3179 58.465 37.3248C59.0122 40.2048 59.3722 43.8192 57.2698 45.7776C54.2314 48.6576 50.617 48.4704 45.7498 50.0976C43.3635 51.0003 40.801 51.3403 38.2618 51.0912C37.1125 50.9993 36.0033 50.6272 35.0311 50.0074C34.0589 49.3876 33.2534 48.539 32.6851 47.5359C32.1167 46.5328 31.8028 45.4057 31.7709 44.2531C31.739 43.1006 31.9899 41.9579 32.5018 40.9248C32.9767 40.0454 33.2432 39.0687 33.2806 38.07C33.3181 37.0712 33.1255 36.0773 32.7178 35.1648C31.4074 32.0976 29.8378 28.6704 31.7818 25.3584C33.5242 22.2768 37.3978 22.68 40.609 22.8384C42.769 22.8816 43.5754 20.0592 46.2394 20.7216Z" stroke="url(#paint11_linear_16515_1080)" stroke-width="0.56" stroke-miterlimit="10"/>
<path d="M46.6699 22.3777C48.0844 22.8779 49.4649 23.4695 50.8027 24.1489C51.9565 24.382 53.0887 24.7141 54.1867 25.1425C56.5051 26.3953 57.2683 29.2609 57.4123 31.5937C57.5131 33.3505 57.7579 35.2657 58.0315 37.0369C58.4491 39.6721 58.5355 42.8689 56.6779 44.7121C53.9995 47.3905 50.6587 47.5921 46.2523 48.7585C44.1426 49.4341 41.906 49.6164 39.7147 49.2913C38.7257 49.1609 37.7782 48.8117 36.9411 48.2691C36.104 47.7264 35.3985 47.004 34.8757 46.1544C34.353 45.3047 34.0262 44.3493 33.9192 43.3574C33.8122 42.3656 33.9276 41.3624 34.2571 40.4209C34.8836 38.7893 34.8836 36.9836 34.2571 35.3521C33.2635 32.5873 32.2987 29.5921 33.9691 26.7121C35.6395 23.8321 38.7643 24.0049 41.5867 24.0625C43.5163 24.0913 44.3803 21.8881 46.6699 22.3777Z" stroke="white" stroke-width="0.544" stroke-miterlimit="10"/>
<path d="M46.6699 22.3777C48.0844 22.8779 49.4649 23.4695 50.8027 24.1489C51.9565 24.382 53.0887 24.7141 54.1867 25.1425C56.5051 26.3953 57.2683 29.2609 57.4123 31.5937C57.5131 33.3505 57.7579 35.2657 58.0315 37.0369C58.4491 39.6721 58.5355 42.8689 56.6779 44.7121C53.9995 47.3905 50.6587 47.5921 46.2523 48.7585C44.1426 49.4341 41.906 49.6164 39.7147 49.2913C38.7257 49.1609 37.7782 48.8117 36.9411 48.2691C36.104 47.7264 35.3985 47.004 34.8757 46.1544C34.353 45.3047 34.0262 44.3493 33.9192 43.3574C33.8122 42.3656 33.9276 41.3624 34.2571 40.4209C34.8836 38.7893 34.8836 36.9836 34.2571 35.3521C33.2635 32.5873 32.2987 29.5921 33.9691 26.7121C35.6395 23.8321 38.7643 24.0049 41.5867 24.0625C43.5163 24.0913 44.3803 21.8881 46.6699 22.3777Z" stroke="url(#paint12_linear_16515_1080)" stroke-width="0.544" stroke-miterlimit="10"/>
<path d="M47.0872 24.0336C48.3724 24.3765 49.6252 24.8301 50.8312 25.3872C51.823 25.6266 52.7878 25.9641 53.7112 26.3952C54.6217 27.0301 55.3797 27.8595 55.9302 28.8233C56.4808 29.7871 56.8101 30.8613 56.8945 31.968C57.1105 33.48 57.3553 35.1504 57.5425 36.7344C57.8161 39.168 57.6433 41.9184 56.1025 43.6464C53.7553 46.08 50.6881 46.6992 46.8145 47.52C44.9713 47.961 43.0525 47.9853 41.1985 47.592C39.5028 47.2639 38.0053 46.2795 37.0316 44.853C36.0579 43.4264 35.6869 41.6731 35.9992 39.9744C36.2953 38.5434 36.2458 37.062 35.8552 35.6544C35.1784 33.1776 34.7464 30.5712 36.2008 28.1952C37.6552 25.8192 40.3192 25.5744 42.6808 25.344C44.2504 25.2 45.2008 23.7168 47.0872 24.0336Z" stroke="white" stroke-width="0.512" stroke-miterlimit="10"/>
<path d="M47.0872 24.0336C48.3724 24.3765 49.6252 24.8301 50.8312 25.3872C51.823 25.6266 52.7878 25.9641 53.7112 26.3952C54.6217 27.0301 55.3797 27.8595 55.9302 28.8233C56.4808 29.7871 56.8101 30.8613 56.8945 31.968C57.1105 33.48 57.3553 35.1504 57.5425 36.7344C57.8161 39.168 57.6433 41.9184 56.1025 43.6464C53.7553 46.08 50.6881 46.6992 46.8145 47.52C44.9713 47.961 43.0525 47.9853 41.1985 47.592C39.5028 47.2639 38.0053 46.2795 37.0316 44.853C36.0579 43.4264 35.6869 41.6731 35.9992 39.9744C36.2953 38.5434 36.2458 37.062 35.8552 35.6544C35.1784 33.1776 34.7464 30.5712 36.2008 28.1952C37.6552 25.8192 40.3192 25.5744 42.6808 25.344C44.2504 25.2 45.2008 23.7168 47.0872 24.0336Z" stroke="url(#paint13_linear_16515_1080)" stroke-width="0.512" stroke-miterlimit="10"/>
<path d="M47.5208 25.6897C48.6714 25.8643 49.7976 26.1736 50.876 26.6113C51.7103 26.875 52.5167 27.2224 53.2808 27.6481C54.885 28.7541 56.0115 30.4259 56.4344 32.3281C56.7809 33.6736 57.0077 35.047 57.1112 36.4321C57.369 38.6227 56.7649 40.8277 55.4264 42.5809C53.2948 44.7932 50.3891 46.0938 47.3192 46.2097C45.7514 46.4365 44.1512 46.3087 42.6392 45.8353C41.2806 45.4161 40.0856 44.5857 39.2189 43.4585C38.3523 42.3314 37.8568 40.9631 37.8008 39.5425C37.771 38.3173 37.6604 37.0954 37.4696 35.8849C36.978 33.7376 37.334 31.4834 38.4632 29.5921C39.088 28.7739 39.872 28.0905 40.7678 27.5832C41.6637 27.0759 42.6529 26.7551 43.676 26.6401C45.0008 26.3809 46.0808 25.5457 47.5208 25.6897Z" stroke="white" stroke-width="0.496" stroke-miterlimit="10"/>
<path d="M47.5208 25.6897C48.6714 25.8643 49.7976 26.1736 50.876 26.6113C51.7103 26.875 52.5167 27.2224 53.2808 27.6481C54.885 28.7541 56.0115 30.4259 56.4344 32.3281C56.7809 33.6736 57.0077 35.047 57.1112 36.4321C57.369 38.6227 56.7649 40.8277 55.4264 42.5809C53.2948 44.7932 50.3891 46.0938 47.3192 46.2097C45.7514 46.4365 44.1512 46.3087 42.6392 45.8353C41.2806 45.4161 40.0856 44.5857 39.2189 43.4585C38.3523 42.3314 37.8568 40.9631 37.8008 39.5425C37.771 38.3173 37.6604 37.0954 37.4696 35.8849C36.978 33.7376 37.334 31.4834 38.4632 29.5921C39.088 28.7739 39.872 28.0905 40.7678 27.5832C41.6637 27.0759 42.6529 26.7551 43.676 26.6401C45.0008 26.3809 46.0808 25.5457 47.5208 25.6897Z" stroke="url(#paint14_linear_16515_1080)" stroke-width="0.496" stroke-miterlimit="10"/>
<path d="M47.9371 44.9424C52.7971 44.9424 56.7355 41.0031 56.7355 36.144C56.7355 31.284 52.7962 27.3456 47.9371 27.3456C43.078 27.3456 39.1387 31.2849 39.1387 36.144C39.1387 41.0031 43.078 44.9424 47.9371 44.9424Z" stroke="white" stroke-width="0.464" stroke-miterlimit="10"/>
<path d="M47.9371 44.9424C52.7971 44.9424 56.7355 41.0031 56.7355 36.144C56.7355 31.284 52.7962 27.3456 47.9371 27.3456C43.078 27.3456 39.1387 31.2849 39.1387 36.144C39.1387 41.0031 43.078 44.9424 47.9371 44.9424Z" stroke="url(#paint15_linear_16515_1080)" stroke-width="0.464" stroke-miterlimit="10"/>
<defs>
<linearGradient id="paint0_linear_16515_1080" x1="5.68945" y1="35.6766" x2="66.187" y2="35.6766" gradientUnits="userSpaceOnUse">
<stop stop-color="#7755FF"/>
<stop offset="0.198933" stop-color="#6371F2"/>
<stop offset="0.39624" stop-color="#40A4DA"/>
<stop offset="0.60106" stop-color="#34AED2"/>
<stop offset="0.796668" stop-color="#1BC4BF"/>
<stop offset="1" stop-color="#0DCFB3"/>
</linearGradient>
<linearGradient id="paint1_linear_16515_1080" x1="8.04102" y1="35.6891" x2="65.5043" y2="35.6891" gradientUnits="userSpaceOnUse">
<stop stop-color="#7755FF"/>
<stop offset="0.198933" stop-color="#6371F2"/>
<stop offset="0.39624" stop-color="#40A4DA"/>
<stop offset="0.60106" stop-color="#34AED2"/>
<stop offset="0.796668" stop-color="#1BC4BF"/>
<stop offset="1" stop-color="#0DCFB3"/>
</linearGradient>
<linearGradient id="paint2_linear_16515_1080" x1="10.293" y1="35.6557" x2="64.8276" y2="35.6557" gradientUnits="userSpaceOnUse">
<stop stop-color="#7755FF"/>
<stop offset="0.198933" stop-color="#6371F2"/>
<stop offset="0.39624" stop-color="#40A4DA"/>
<stop offset="0.60106" stop-color="#34AED2"/>
<stop offset="0.796668" stop-color="#1BC4BF"/>
<stop offset="1" stop-color="#0DCFB3"/>
</linearGradient>
<linearGradient id="paint3_linear_16515_1080" x1="12.5742" y1="35.6771" x2="64.1392" y2="35.6771" gradientUnits="userSpaceOnUse">
<stop stop-color="#7755FF"/>
<stop offset="0.198933" stop-color="#6371F2"/>
<stop offset="0.39624" stop-color="#40A4DA"/>
<stop offset="0.60106" stop-color="#34AED2"/>
<stop offset="0.796668" stop-color="#1BC4BF"/>
<stop offset="1" stop-color="#0DCFB3"/>
</linearGradient>
<linearGradient id="paint4_linear_16515_1080" x1="14.8926" y1="35.7168" x2="63.482" y2="35.7168" gradientUnits="userSpaceOnUse">
<stop stop-color="#7755FF"/>
<stop offset="0.198933" stop-color="#6371F2"/>
<stop offset="0.39624" stop-color="#40A4DA"/>
<stop offset="0.60106" stop-color="#34AED2"/>
<stop offset="0.796668" stop-color="#1BC4BF"/>
<stop offset="1" stop-color="#0DCFB3"/>
</linearGradient>
<linearGradient id="paint5_linear_16515_1080" x1="17.1855" y1="35.6549" x2="62.8029" y2="35.6549" gradientUnits="userSpaceOnUse">
<stop stop-color="#7755FF"/>
<stop offset="0.198933" stop-color="#6371F2"/>
<stop offset="0.39624" stop-color="#40A4DA"/>
<stop offset="0.60106" stop-color="#34AED2"/>
<stop offset="0.796668" stop-color="#1BC4BF"/>
<stop offset="1" stop-color="#0DCFB3"/>
</linearGradient>
<linearGradient id="paint6_linear_16515_1080" x1="19.5742" y1="35.7209" x2="62.1428" y2="35.7209" gradientUnits="userSpaceOnUse">
<stop stop-color="#7755FF"/>
<stop offset="0.198933" stop-color="#6371F2"/>
<stop offset="0.39624" stop-color="#40A4DA"/>
<stop offset="0.60106" stop-color="#34AED2"/>
<stop offset="0.796668" stop-color="#1BC4BF"/>
<stop offset="1" stop-color="#0DCFB3"/>
</linearGradient>
<linearGradient id="paint7_linear_16515_1080" x1="21.7676" y1="35.6744" x2="61.4696" y2="35.6744" gradientUnits="userSpaceOnUse">
<stop stop-color="#7755FF"/>
<stop offset="0.198933" stop-color="#6371F2"/>
<stop offset="0.39624" stop-color="#40A4DA"/>
<stop offset="0.60106" stop-color="#34AED2"/>
<stop offset="0.796668" stop-color="#1BC4BF"/>
<stop offset="1" stop-color="#0DCFB3"/>
</linearGradient>
<linearGradient id="paint8_linear_16515_1080" x1="24.1133" y1="35.7214" x2="60.87" y2="35.7214" gradientUnits="userSpaceOnUse">
<stop stop-color="#7755FF"/>
<stop offset="0.198933" stop-color="#6371F2"/>
<stop offset="0.39624" stop-color="#40A4DA"/>
<stop offset="0.60106" stop-color="#34AED2"/>
<stop offset="0.796668" stop-color="#1BC4BF"/>
<stop offset="1" stop-color="#0DCFB3"/>
</linearGradient>
<linearGradient id="paint9_linear_16515_1080" x1="26.3945" y1="35.6757" x2="60.1603" y2="35.6757" gradientUnits="userSpaceOnUse">
<stop stop-color="#7755FF"/>
<stop offset="0.198933" stop-color="#6371F2"/>
<stop offset="0.39624" stop-color="#40A4DA"/>
<stop offset="0.60106" stop-color="#34AED2"/>
<stop offset="0.796668" stop-color="#1BC4BF"/>
<stop offset="1" stop-color="#0DCFB3"/>
</linearGradient>
<linearGradient id="paint10_linear_16515_1080" x1="28.6504" y1="35.6853" x2="59.5541" y2="35.6853" gradientUnits="userSpaceOnUse">
<stop stop-color="#7755FF"/>
<stop offset="0.198933" stop-color="#6371F2"/>
<stop offset="0.39624" stop-color="#40A4DA"/>
<stop offset="0.60106" stop-color="#34AED2"/>
<stop offset="0.796668" stop-color="#1BC4BF"/>
<stop offset="1" stop-color="#0DCFB3"/>
</linearGradient>
<linearGradient id="paint11_linear_16515_1080" x1="30.8691" y1="35.7382" x2="58.8869" y2="35.7382" gradientUnits="userSpaceOnUse">
<stop stop-color="#7755FF"/>
<stop offset="0.198933" stop-color="#6371F2"/>
<stop offset="0.39624" stop-color="#40A4DA"/>
<stop offset="0.60106" stop-color="#34AED2"/>
<stop offset="0.796668" stop-color="#1BC4BF"/>
<stop offset="1" stop-color="#0DCFB3"/>
</linearGradient>
<linearGradient id="paint12_linear_16515_1080" x1="33.0625" y1="35.7374" x2="58.2792" y2="35.7374" gradientUnits="userSpaceOnUse">
<stop stop-color="#7755FF"/>
<stop offset="0.198933" stop-color="#6371F2"/>
<stop offset="0.39624" stop-color="#40A4DA"/>
<stop offset="0.60106" stop-color="#34AED2"/>
<stop offset="0.796668" stop-color="#1BC4BF"/>
<stop offset="1" stop-color="#0DCFB3"/>
</linearGradient>
<linearGradient id="paint13_linear_16515_1080" x1="35.2285" y1="35.8066" x2="57.6497" y2="35.8066" gradientUnits="userSpaceOnUse">
<stop stop-color="#7755FF"/>
<stop offset="0.198933" stop-color="#6371F2"/>
<stop offset="0.39624" stop-color="#40A4DA"/>
<stop offset="0.60106" stop-color="#34AED2"/>
<stop offset="0.796668" stop-color="#1BC4BF"/>
<stop offset="1" stop-color="#0DCFB3"/>
</linearGradient>
<linearGradient id="paint14_linear_16515_1080" x1="37.2539" y1="35.8895" x2="57.1695" y2="35.8895" gradientUnits="userSpaceOnUse">
<stop stop-color="#7755FF"/>
<stop offset="0.198933" stop-color="#6371F2"/>
<stop offset="0.39624" stop-color="#40A4DA"/>
<stop offset="0.60106" stop-color="#34AED2"/>
<stop offset="0.796668" stop-color="#1BC4BF"/>
<stop offset="1" stop-color="#0DCFB3"/>
</linearGradient>
<linearGradient id="paint15_linear_16515_1080" x1="39.1387" y1="36.0533" x2="56.7355" y2="36.0533" gradientUnits="userSpaceOnUse">
<stop stop-color="#7755FF"/>
<stop offset="0.198933" stop-color="#6371F2"/>
<stop offset="0.39624" stop-color="#40A4DA"/>
<stop offset="0.60106" stop-color="#34AED2"/>
<stop offset="0.796668" stop-color="#1BC4BF"/>
<stop offset="1" stop-color="#0DCFB3"/>
</linearGradient>
</defs>
</svg>
