<svg width="32" height="32" viewBox="0 0 32 32" fill="none" xmlns="http://www.w3.org/2000/svg">
<path d="M19.5175 4.87496C19.5508 4.74699 19.6334 4.6374 19.7472 4.57017C19.8611 4.50293 19.9969 4.48353 20.125 4.51621C21.8952 4.97726 23.5103 5.9023 24.8036 7.19588C26.097 8.48945 27.0218 10.1047 27.4825 11.875C27.5152 12.0029 27.496 12.1386 27.429 12.2524C27.362 12.3662 27.2528 12.4489 27.125 12.4825C27.0844 12.4941 27.0423 12.4999 27 12.5C26.8894 12.4996 26.7821 12.4626 26.6948 12.3947C26.6075 12.3269 26.5452 12.232 26.5175 12.125C26.1001 10.5275 25.2648 9.07014 24.0973 7.90268C22.9298 6.73522 21.4724 5.89983 19.875 5.48246C19.7473 5.44894 19.638 5.36624 19.571 5.25242C19.504 5.1386 19.4848 5.00291 19.5175 4.87496ZM18.875 9.48246C20.75 9.98621 22.0138 11.25 22.5175 13.125C22.5452 13.232 22.6075 13.3269 22.6948 13.3947C22.7821 13.4626 22.8894 13.4996 23 13.5C23.0423 13.4999 23.0844 13.4941 23.125 13.4825C23.2529 13.4482 23.3619 13.3646 23.4283 13.25C23.4946 13.1354 23.5127 12.9992 23.4788 12.8712C22.8788 10.6212 21.3725 9.12121 19.125 8.51621C19.0001 8.49206 18.8707 8.51643 18.7631 8.58437C18.6555 8.65231 18.5779 8.7587 18.546 8.88188C18.5142 9.00505 18.5304 9.13574 18.5916 9.24732C18.6527 9.35891 18.7541 9.443 18.875 9.48246ZM28.4925 21.8225C28.285 23.3961 27.5116 24.8404 26.3167 25.8853C25.1218 26.9302 23.5873 27.5042 22 27.5C12.35 27.5 4.50001 19.65 4.50001 9.99996C4.49673 8.41331 5.07112 6.87972 6.11593 5.68563C7.16073 4.49154 8.60448 3.71861 10.1775 3.51121C10.4998 3.47203 10.8261 3.53846 11.1073 3.70052C11.3886 3.86258 11.6098 4.11152 11.7375 4.40996L14.375 10.3025C14.4736 10.5309 14.5138 10.7804 14.492 11.0283C14.4702 11.2761 14.387 11.5147 14.25 11.7225C14.2388 11.7387 14.2275 11.755 14.215 11.77L11.565 14.9212C11.5234 14.9902 11.4996 15.0685 11.4957 15.149C11.4918 15.2295 11.5078 15.3097 11.5425 15.3825C12.5225 17.3887 14.6238 19.4737 16.6538 20.4537C16.7271 20.4877 16.8076 20.5031 16.8883 20.4985C16.969 20.4939 17.0473 20.4695 17.1163 20.4275L20.225 17.7875L20.2725 17.7512C20.4806 17.6138 20.7196 17.5304 20.9679 17.5086C21.2163 17.4868 21.4662 17.5272 21.695 17.6262L27.5975 20.2712C27.893 20.3998 28.1392 20.62 28.2997 20.8994C28.4602 21.1788 28.5265 21.5025 28.4888 21.8225H28.4925ZM27.1988 21.1825L21.2938 18.5375C21.222 18.5073 21.1442 18.4947 21.0666 18.5006C20.989 18.5064 20.9139 18.5306 20.8475 18.5712L17.75 21.2112L17.7038 21.2462C17.4884 21.39 17.2395 21.4756 16.9812 21.4947C16.7229 21.5137 16.4642 21.4656 16.23 21.355C13.98 20.2687 11.7413 18.045 10.655 15.8212C10.5433 15.5889 10.4933 15.3317 10.51 15.0744C10.5266 14.8171 10.6093 14.5685 10.75 14.3525C10.7613 14.335 10.7738 14.32 10.7863 14.3037L13.435 11.1537C13.4747 11.0862 13.498 11.0103 13.503 10.9321C13.508 10.854 13.4946 10.7757 13.4638 10.7037L10.8213 4.81121C10.784 4.71986 10.7206 4.64157 10.639 4.58618C10.5573 4.5308 10.4612 4.5008 10.3625 4.49996C10.3425 4.49872 10.3225 4.49872 10.3025 4.49996C8.97033 4.67648 7.74804 5.33215 6.86417 6.34439C5.9803 7.35663 5.49536 8.65614 5.50001 9.99996C5.50001 19.0975 12.9025 26.5 22 26.5C23.3438 26.5046 24.6433 26.0197 25.6556 25.1358C26.6678 24.2519 27.3235 23.0296 27.5 21.6975C27.5115 21.5902 27.4881 21.4821 27.4331 21.3893C27.3781 21.2965 27.2946 21.2239 27.195 21.1825H27.1988Z" fill="white"/>
<path d="M19.5175 4.87496C19.5508 4.74699 19.6334 4.6374 19.7472 4.57017C19.8611 4.50293 19.9969 4.48353 20.125 4.51621C21.8952 4.97726 23.5103 5.9023 24.8036 7.19588C26.097 8.48945 27.0218 10.1047 27.4825 11.875C27.5152 12.0029 27.496 12.1386 27.429 12.2524C27.362 12.3662 27.2528 12.4489 27.125 12.4825C27.0844 12.4941 27.0423 12.4999 27 12.5C26.8894 12.4996 26.7821 12.4626 26.6948 12.3947C26.6075 12.3269 26.5452 12.232 26.5175 12.125C26.1001 10.5275 25.2648 9.07014 24.0973 7.90268C22.9298 6.73522 21.4724 5.89983 19.875 5.48246C19.7473 5.44894 19.638 5.36624 19.571 5.25242C19.504 5.1386 19.4848 5.00291 19.5175 4.87496ZM18.875 9.48246C20.75 9.98621 22.0138 11.25 22.5175 13.125C22.5452 13.232 22.6075 13.3269 22.6948 13.3947C22.7821 13.4626 22.8894 13.4996 23 13.5C23.0423 13.4999 23.0844 13.4941 23.125 13.4825C23.2529 13.4482 23.3619 13.3646 23.4283 13.25C23.4946 13.1354 23.5127 12.9992 23.4788 12.8712C22.8788 10.6212 21.3725 9.12121 19.125 8.51621C19.0001 8.49206 18.8707 8.51643 18.7631 8.58437C18.6555 8.65231 18.5779 8.7587 18.546 8.88188C18.5142 9.00505 18.5304 9.13574 18.5916 9.24732C18.6527 9.35891 18.7541 9.443 18.875 9.48246ZM28.4925 21.8225C28.285 23.3961 27.5116 24.8404 26.3167 25.8853C25.1218 26.9302 23.5873 27.5042 22 27.5C12.35 27.5 4.50001 19.65 4.50001 9.99996C4.49673 8.41331 5.07112 6.87972 6.11593 5.68563C7.16073 4.49154 8.60448 3.71861 10.1775 3.51121C10.4998 3.47203 10.8261 3.53846 11.1073 3.70052C11.3886 3.86258 11.6098 4.11152 11.7375 4.40996L14.375 10.3025C14.4736 10.5309 14.5138 10.7804 14.492 11.0283C14.4702 11.2761 14.387 11.5147 14.25 11.7225C14.2388 11.7387 14.2275 11.755 14.215 11.77L11.565 14.9212C11.5234 14.9902 11.4996 15.0685 11.4957 15.149C11.4918 15.2295 11.5078 15.3097 11.5425 15.3825C12.5225 17.3887 14.6238 19.4737 16.6538 20.4537C16.7271 20.4877 16.8076 20.5031 16.8883 20.4985C16.969 20.4939 17.0473 20.4695 17.1163 20.4275L20.225 17.7875L20.2725 17.7512C20.4806 17.6138 20.7196 17.5304 20.9679 17.5086C21.2163 17.4868 21.4662 17.5272 21.695 17.6262L27.5975 20.2712C27.893 20.3998 28.1392 20.62 28.2997 20.8994C28.4602 21.1788 28.5265 21.5025 28.4888 21.8225H28.4925ZM27.1988 21.1825L21.2938 18.5375C21.222 18.5073 21.1442 18.4947 21.0666 18.5006C20.989 18.5064 20.9139 18.5306 20.8475 18.5712L17.75 21.2112L17.7038 21.2462C17.4884 21.39 17.2395 21.4756 16.9812 21.4947C16.7229 21.5137 16.4642 21.4656 16.23 21.355C13.98 20.2687 11.7413 18.045 10.655 15.8212C10.5433 15.5889 10.4933 15.3317 10.51 15.0744C10.5266 14.8171 10.6093 14.5685 10.75 14.3525C10.7613 14.335 10.7738 14.32 10.7863 14.3037L13.435 11.1537C13.4747 11.0862 13.498 11.0103 13.503 10.9321C13.508 10.854 13.4946 10.7757 13.4638 10.7037L10.8213 4.81121C10.784 4.71986 10.7206 4.64157 10.639 4.58618C10.5573 4.5308 10.4612 4.5008 10.3625 4.49996C10.3425 4.49872 10.3225 4.49872 10.3025 4.49996C8.97033 4.67648 7.74804 5.33215 6.86417 6.34439C5.9803 7.35663 5.49536 8.65614 5.50001 9.99996C5.50001 19.0975 12.9025 26.5 22 26.5C23.3438 26.5046 24.6433 26.0197 25.6556 25.1358C26.6678 24.2519 27.3235 23.0296 27.5 21.6975C27.5115 21.5902 27.4881 21.4821 27.4331 21.3893C27.3781 21.2965 27.2946 21.2239 27.195 21.1825H27.1988Z" fill="url(#paint0_linear_16446_1807)"/>
<defs>
<linearGradient id="paint0_linear_16446_1807" x1="4.5" y1="15.3764" x2="28.4991" y2="15.3764" gradientUnits="userSpaceOnUse">
<stop stop-color="#7755FF"/>
<stop offset="0.198933" stop-color="#6371F2"/>
<stop offset="0.39624" stop-color="#40A4DA"/>
<stop offset="0.60106" stop-color="#34AED2"/>
<stop offset="0.796668" stop-color="#1BC4BF"/>
<stop offset="1" stop-color="#0DCFB3"/>
</linearGradient>
</defs>
</svg>
