<svg width="780" height="494" viewBox="0 0 780 494" fill="none" xmlns="http://www.w3.org/2000/svg">
<path d="M443.79 309.433C441.532 295.69 438.948 278.408 436.037 256.421C429.257 209.286 419.565 148.418 412.786 99.3242C408.583 70.6556 404.386 41.5893 400.183 12.5317L309.848 12.5317C266.075 75.8487 207.928 160.895 181.842 197.512C121.446 282.336 48.7743 384.839 1.59139e-05 453.573L96.576 453.573C132.748 402.51 183.461 328.287 225.767 267.419C250.637 231.68 275.834 195.544 301.35 158.631L325.255 124.463L325.255 124.066L343.664 249.739L261.301 249.739L334.619 330.644L447.02 330.644C446.047 324.359 444.755 317.289 443.79 309.433Z" fill="#212121"/>
<path d="M507.096 130.741C497.41 162.155 484.16 211.637 471.898 254.059C464.787 278.799 457.683 304.326 450.25 330.639L521.919 330.639C523.536 329.511 525.189 328.328 526.931 327.081C531.972 323.467 537.167 319.632 542.419 315.648C548.47 294.456 559.817 253.329 570.404 217.137C577.193 193.182 584.619 166.87 592.688 138.987C593.018 137.415 593.332 135.844 594.956 130.743C594.971 130.678 594.985 130.613 595.008 130.548L507.096 130.741Z" fill="#212121"/>
<path d="M567.632 97.8953C589.032 97.8953 606.38 75.9807 606.38 48.9477C606.38 21.9147 589.032 2.83473e-05 567.632 2.91195e-05C546.233 2.98916e-05 528.885 21.9147 528.885 48.9477C528.885 75.9807 546.233 97.8953 567.632 97.8953Z" fill="#1F1F1F"/>
<path d="M627.04 315.536C622.709 319.503 618.3 323.458 613.807 327.385C594.529 344.26 573.773 360.745 551.799 376.49C549.326 378.267 546.833 380.031 544.326 381.784C538.377 385.949 532.338 390.062 526.223 394.101C523.561 395.869 520.881 397.618 518.191 399.356C514.999 401.423 511.787 403.47 508.554 405.489C494.331 414.396 480.192 422.655 466.229 430.244C456.719 435.417 447.29 440.279 437.969 444.831C305.954 509.318 194.606 511.742 174.65 443.976C161.142 398.1 192.468 330.05 252.274 261.329C214.122 312.827 195.755 362.175 206.136 397.441C219.175 441.711 274.458 453.345 348.015 434.786C377.973 427.228 410.96 414.664 445.358 397.25C454.718 392.516 464.182 387.424 473.726 381.967C481.585 377.476 489.493 372.743 497.439 367.767C506.018 362.387 514.436 356.858 522.672 351.2C523.794 350.426 524.914 349.651 526.03 348.875C528.754 346.984 531.455 345.071 534.136 343.146C540.353 338.694 546.452 334.158 552.432 329.578C554.976 327.627 557.499 325.663 559.997 323.693C583.134 305.431 604.357 286.288 623.2 266.893C627.906 262.051 632.455 257.201 636.854 252.336C694.671 188.439 725.564 123.524 712.77 80.0536C702.379 44.7848 665.201 30.2383 613.326 35.1393C688.673 19.1984 744.069 32.9114 757.581 78.7889C774.65 136.764 720.133 230.116 627.04 315.536Z" fill="#1F1F1F"/>
</svg>
