<svg width="484" height="306" viewBox="0 0 484 306" fill="none" xmlns="http://www.w3.org/2000/svg">
<g opacity="0.04">
<path d="M274.897 191.673C273.499 183.16 271.898 172.455 270.095 158.835C265.895 129.639 259.892 91.9347 255.693 61.5247C253.089 43.7665 250.49 25.7619 247.886 7.76269L191.929 7.76269C164.815 46.9833 128.797 99.6634 112.639 122.345C75.2274 174.888 30.2124 238.382 9.85757e-06 280.958L59.8222 280.958C82.2285 249.328 113.641 203.352 139.847 165.648C155.253 143.51 170.86 121.126 186.666 98.261L201.473 77.0964L201.473 76.8504L212.876 154.697L161.858 154.697L207.274 204.812L276.898 204.812C276.296 200.919 275.495 196.539 274.897 191.673Z" fill="#F0F2F4"/>
<path d="M314.111 80.9859C308.111 100.445 299.903 131.095 292.308 157.373C287.903 172.698 283.503 188.51 278.898 204.809L323.293 204.809C324.294 204.11 325.318 203.377 326.397 202.605C329.52 200.366 332.737 197.991 335.991 195.523C339.739 182.396 346.768 156.921 353.325 134.502C357.531 119.664 362.131 103.365 367.129 86.0932C367.333 85.1198 367.528 84.1467 368.534 80.9867C368.543 80.9465 368.552 80.9064 368.566 80.8662L314.111 80.9859Z" fill="#F0F2F4"/>
</g>
<path opacity="0.02" d="M351.609 60.6395C364.865 60.6395 375.61 47.0649 375.61 30.3197C375.61 13.5746 364.865 -1.34433e-06 351.609 -8.66034e-07C338.353 -3.87737e-07 327.607 13.5746 327.607 30.3197C327.607 47.0649 338.353 60.6395 351.609 60.6395Z" fill="#F0F2F4"/>
<path opacity="0.02" d="M388.408 195.453C385.725 197.911 382.994 200.361 380.21 202.793C368.269 213.246 355.412 223.457 341.801 233.21C340.269 234.311 338.725 235.403 337.172 236.49C333.487 239.069 329.746 241.617 325.959 244.119C324.31 245.214 322.649 246.298 320.983 247.374C319.006 248.654 317.017 249.923 315.014 251.173C306.203 256.69 297.445 261.807 288.796 266.507C282.905 269.711 277.065 272.724 271.291 275.543C189.517 315.488 120.544 316.99 108.183 275.013C99.8157 246.596 119.22 204.444 156.266 161.876C132.633 193.775 121.256 224.343 127.686 246.188C135.763 273.61 170.007 280.817 215.571 269.32C234.128 264.639 254.561 256.857 275.868 246.069C281.666 243.137 287.528 239.983 293.44 236.603C298.308 233.821 303.207 230.89 308.128 227.807C313.443 224.474 318.657 221.05 323.759 217.545C324.454 217.065 325.148 216.585 325.839 216.105C327.526 214.933 329.199 213.749 330.86 212.556C334.711 209.798 338.489 206.989 342.193 204.152C343.769 202.943 345.332 201.727 346.879 200.506C361.211 189.194 374.357 177.337 386.029 165.322C388.944 162.323 391.762 159.319 394.486 156.305C430.3 116.725 449.436 76.5151 441.512 49.5881C435.075 27.7415 412.046 18.731 379.913 21.7668C426.585 11.8925 460.899 20.3867 469.269 48.8047C479.842 84.7166 446.072 142.541 388.408 195.453Z" fill="#F0F2F4"/>
</svg>
