<svg width="18" height="18" viewBox="0 0 18 18" fill="none" xmlns="http://www.w3.org/2000/svg">
<path d="M17.031 8.46937C17.1008 8.53903 17.1561 8.62174 17.1938 8.71279C17.2316 8.80384 17.251 8.90144 17.251 9C17.251 9.09856 17.2316 9.19615 17.1938 9.2872C17.1561 9.37825 17.1008 9.46097 17.031 9.53062L9.53104 17.0306C9.46139 17.1004 9.37867 17.1557 9.28762 17.1934C9.19657 17.2312 9.09898 17.2506 9.00042 17.2506C8.90186 17.2506 8.80426 17.2312 8.71321 17.1934C8.62216 17.1557 8.53945 17.1004 8.46979 17.0306L0.969792 9.53062C0.829062 9.38989 0.75 9.19902 0.75 9C0.75 8.80097 0.829062 8.6101 0.969792 8.46937C1.11052 8.32864 1.30139 8.24958 1.50042 8.24958C1.69944 8.24958 1.89031 8.32864 2.03104 8.46937L9.00042 15.4397L15.9698 8.46937C16.0394 8.39964 16.1222 8.34432 16.2132 8.30658C16.3043 8.26883 16.4019 8.24941 16.5004 8.24941C16.599 8.24941 16.6966 8.26883 16.7876 8.30658C16.8787 8.34432 16.9614 8.39964 17.031 8.46937ZM8.46979 9.53062C8.53945 9.60036 8.62216 9.65567 8.71321 9.69342C8.80426 9.73116 8.90186 9.75059 9.00042 9.75059C9.09898 9.75059 9.19657 9.73116 9.28762 9.69342C9.37867 9.65567 9.46139 9.60036 9.53104 9.53062L17.031 2.03062C17.1718 1.88989 17.2508 1.69902 17.2508 1.5C17.2508 1.30097 17.1718 1.1101 17.031 0.969372C16.8903 0.828642 16.6994 0.74958 16.5004 0.74958C16.3014 0.74958 16.1105 0.828642 15.9698 0.969372L9.00042 7.93968L2.03104 0.969372C1.89031 0.828642 1.69944 0.74958 1.50042 0.74958C1.30139 0.74958 1.11052 0.828642 0.969792 0.969372C0.829062 1.1101 0.75 1.30097 0.75 1.5C0.75 1.69902 0.829062 1.88989 0.969792 2.03062L8.46979 9.53062Z" fill="#1A1A1A"/>
</svg>
