<svg width="60" height="60" viewBox="0 0 60 60" fill="none" xmlns="http://www.w3.org/2000/svg">
<path fill-rule="evenodd" clip-rule="evenodd" d="M0.845 33.6889H4.97143C5.0824 33.6889 5.19228 33.7101 5.2948 33.7514C5.39732 33.7928 5.49047 33.8533 5.56893 33.9296C5.6474 34.0059 5.70964 34.0965 5.75211 34.1962C5.79457 34.296 5.81643 34.4028 5.81643 34.5108V45.1779C5.81643 45.3959 5.72741 45.6049 5.56894 45.7591C5.41048 45.9132 5.19555 45.9999 4.97143 45.9999H0.845C0.734023 45.9999 0.624133 45.9786 0.521605 45.9373C0.419077 45.896 0.32592 45.8355 0.247453 45.7591C0.168986 45.6828 0.106746 45.5922 0.0642876 45.4925C0.0218294 45.3927 -1.56266e-05 45.2858 8.38676e-09 45.1779V34.5108C8.38676e-09 34.4028 0.0218566 34.296 0.0643218 34.1962C0.106787 34.0965 0.169029 34.0059 0.247495 33.9296C0.32596 33.8533 0.419112 33.7928 0.521632 33.7514C0.624153 33.7101 0.734033 33.6889 0.845 33.6889ZM47.5563 17.397C54.4287 17.397 60 22.8156 60 29.5C60 36.1844 54.4287 41.603 47.5563 41.603C40.6838 41.603 35.1126 36.1844 35.1126 29.5C35.1126 22.8156 40.6838 17.397 47.5563 17.397ZM46.349 20.1124V28.3258H40.5502C39.8836 28.3258 39.343 28.8515 39.343 29.5C39.343 30.1484 39.8835 30.6742 40.5502 30.6742H47.5563C48.223 30.6742 48.7636 30.1484 48.7636 29.5V20.1124C48.7636 19.4639 48.2231 18.9382 47.5563 18.9382C46.8895 18.9382 46.349 19.4639 46.349 20.1124ZM27.9923 14.5843C28.6177 14.5843 29.1842 14.8311 29.5942 15.2299C30.0042 15.6286 30.2579 16.1796 30.2579 16.7879C30.2579 17.3963 30.0043 17.9472 29.5942 18.346C29.384 18.5509 29.1344 18.7134 28.8594 18.8242C28.5845 18.935 28.2898 18.9918 27.9923 18.9915C27.7194 18.9915 27.458 18.9446 27.2157 18.8586L21.6612 24.8924C21.8163 25.1965 21.8968 25.5314 21.8963 25.8708C21.8967 26.1602 21.8382 26.4469 21.7243 26.7143C21.6105 26.9816 21.4434 27.2245 21.2327 27.4289C20.8227 27.8275 20.2563 28.0743 19.6308 28.0743C19.0054 28.0743 18.4389 27.8275 18.0289 27.4288C17.6189 27.03 17.3652 26.4791 17.3652 25.8707C17.3652 25.4579 17.482 25.0715 17.6852 24.7412L11.8742 17.3276C11.6772 17.3805 11.4738 17.4072 11.2694 17.407C10.9206 17.407 10.5901 17.3303 10.295 17.1933L5.02607 21.9186C5.12392 22.1689 5.17391 22.4345 5.17357 22.7023C5.17357 23.3106 4.92 23.8616 4.50988 24.2603C4.29976 24.4653 4.05007 24.6278 3.77516 24.7386C3.50025 24.8494 3.20555 24.9062 2.90798 24.9059C2.6104 24.9062 2.31569 24.8494 2.04078 24.7386C1.76587 24.6278 1.51618 24.4653 1.30607 24.2603C1.09536 24.056 0.928257 23.8131 0.814358 23.5457C0.70046 23.2783 0.642014 22.9917 0.642381 22.7023C0.642381 22.0939 0.895952 21.543 1.30595 21.1442C1.71595 20.7455 2.28238 20.4988 2.90786 20.4988C3.25667 20.4988 3.58714 20.5756 3.88238 20.7126L9.15131 15.9872C9.05341 15.7369 9.00338 15.4713 9.00369 15.2035C9.00369 14.5951 9.25738 14.0442 9.66738 13.6454C10.0774 13.2466 10.6438 13 11.2693 13C11.8948 13 12.4612 13.2466 12.8712 13.6455C13.0819 13.8499 13.249 14.0928 13.3629 14.3601C13.4768 14.6275 13.5352 14.9142 13.5349 15.2036C13.5349 15.6165 13.4181 16.0027 13.2149 16.3331L19.0258 23.7467C19.2228 23.6938 19.4262 23.6671 19.6306 23.6673C19.9033 23.6673 20.1649 23.7142 20.407 23.8002L25.9615 17.7663C25.8064 17.4623 25.7259 17.1273 25.7264 16.7879C25.7264 16.1796 25.98 15.6286 26.39 15.2299C26.6002 15.0249 26.85 14.8624 27.1249 14.7516C27.3999 14.6408 27.6946 14.584 27.9923 14.5843ZM28.3992 16.392C28.3458 16.34 28.2823 16.2987 28.2125 16.2706C28.1427 16.2425 28.0678 16.2281 27.9923 16.2282C27.8332 16.2282 27.6893 16.2908 27.5852 16.392C27.4812 16.4932 27.4168 16.6332 27.4168 16.7879C27.4168 16.9426 27.4812 17.0826 27.5852 17.1838C27.6893 17.285 27.8332 17.3476 27.9923 17.3476C28.1512 17.3476 28.2951 17.285 28.3992 17.1838C28.5032 17.0826 28.5676 16.9426 28.5676 16.788C28.5678 16.7145 28.5529 16.6416 28.524 16.5737C28.4951 16.5057 28.4527 16.444 28.3992 16.392ZM20.0379 25.475C19.9338 25.3738 19.7899 25.3111 19.6308 25.3111C19.4718 25.3111 19.3279 25.3738 19.2238 25.475C19.1198 25.5762 19.0554 25.7161 19.0554 25.8707C19.0554 26.0254 19.1198 26.1653 19.2238 26.2666C19.2772 26.3186 19.3406 26.3599 19.4105 26.388C19.4803 26.4161 19.5551 26.4305 19.6307 26.4304C19.7898 26.4304 19.9337 26.3678 20.0377 26.2666C20.1418 26.1654 20.2062 26.0254 20.2062 25.8707C20.2062 25.7161 20.1419 25.5762 20.0379 25.475ZM3.31524 22.3065C3.21119 22.2053 3.06726 22.1427 2.90821 22.1427C2.74917 22.1427 2.60524 22.2053 2.50119 22.3065C2.39714 22.4077 2.33274 22.5477 2.33274 22.7024C2.33274 22.857 2.39714 22.997 2.50119 23.0982C2.60524 23.1994 2.74917 23.262 2.90821 23.262C3.06714 23.262 3.21107 23.1994 3.31512 23.0982C3.41917 22.997 3.48357 22.857 3.48357 22.7024C3.48374 22.6289 3.46895 22.556 3.44006 22.4881C3.41117 22.4202 3.36875 22.3584 3.31524 22.3065ZM11.6765 14.8078C11.6232 14.7558 11.5597 14.7145 11.4899 14.6864C11.4201 14.6583 11.3452 14.6439 11.2696 14.644C11.1106 14.644 10.9667 14.7066 10.8626 14.8078C10.7586 14.909 10.6942 15.049 10.6942 15.2037C10.6942 15.3584 10.7586 15.4984 10.8626 15.5996C10.9667 15.7008 11.1106 15.7634 11.2696 15.7634C11.4286 15.7634 11.5725 15.7008 11.6765 15.5996C11.7806 15.4984 11.845 15.3584 11.845 15.2037C11.845 15.049 11.7806 14.909 11.6765 14.8078ZM25.929 27.7744C25.7049 27.7744 25.49 27.861 25.3315 28.0151C25.1731 28.1692 25.084 28.3783 25.084 28.5963V45.1779C25.084 45.3959 25.1731 45.6049 25.3315 45.7591C25.49 45.9132 25.7049 45.9999 25.929 45.9999H30.0554C30.2795 45.9999 30.4944 45.9132 30.6529 45.7591C30.8114 45.6049 30.9004 45.3959 30.9005 45.1779V28.5963C30.9005 28.4883 30.8786 28.3814 30.8361 28.2817C30.7937 28.182 30.7314 28.0914 30.6529 28.0151C30.5745 27.9388 30.4813 27.8782 30.3788 27.8369C30.2762 27.7956 30.1663 27.7744 30.0554 27.7744H25.929ZM17.5677 36.8573H21.694C21.9182 36.8573 22.1331 36.9439 22.2916 37.0981C22.4501 37.2522 22.5392 37.4613 22.5392 37.6793V45.178C22.5391 45.396 22.4501 45.6051 22.2916 45.7592C22.1331 45.9134 21.9182 46 21.694 46H17.5677C17.4568 46 17.3469 45.9787 17.2443 45.9374C17.1418 45.8961 17.0487 45.8356 16.9702 45.7592C16.8917 45.6829 16.8295 45.5923 16.787 45.4926C16.7446 45.3928 16.7227 45.286 16.7227 45.178V37.6793C16.7227 37.5714 16.7445 37.4645 16.787 37.3647C16.8294 37.265 16.8917 37.1744 16.9702 37.0981C17.0486 37.0217 17.1418 36.9612 17.2443 36.9199C17.3469 36.8786 17.4568 36.8573 17.5677 36.8573ZM9.20643 26.1902C9.09546 26.1902 8.98558 26.2114 8.88306 26.2527C8.78054 26.294 8.68739 26.3546 8.60892 26.4309C8.53046 26.5072 8.46822 26.5978 8.42575 26.6975C8.38329 26.7972 8.36143 26.9041 8.36143 27.012V45.178C8.36143 45.396 8.45045 45.6051 8.60892 45.7592C8.76738 45.9134 8.98231 46 9.20643 46H13.3327C13.5569 46 13.7718 45.9134 13.9303 45.7592C14.0888 45.6051 14.1778 45.396 14.1779 45.178V27.012C14.1779 26.9041 14.156 26.7972 14.1135 26.6975C14.0711 26.5978 14.0088 26.5072 13.9303 26.4309C13.8518 26.3545 13.7587 26.294 13.6561 26.2527C13.5536 26.2114 13.4437 26.1902 13.3327 26.1902H9.20643Z" fill="white"/>
<path fill-rule="evenodd" clip-rule="evenodd" d="M0.845 33.6889H4.97143C5.0824 33.6889 5.19228 33.7101 5.2948 33.7514C5.39732 33.7928 5.49047 33.8533 5.56893 33.9296C5.6474 34.0059 5.70964 34.0965 5.75211 34.1962C5.79457 34.296 5.81643 34.4028 5.81643 34.5108V45.1779C5.81643 45.3959 5.72741 45.6049 5.56894 45.7591C5.41048 45.9132 5.19555 45.9999 4.97143 45.9999H0.845C0.734023 45.9999 0.624133 45.9786 0.521605 45.9373C0.419077 45.896 0.32592 45.8355 0.247453 45.7591C0.168986 45.6828 0.106746 45.5922 0.0642876 45.4925C0.0218294 45.3927 -1.56266e-05 45.2858 8.38676e-09 45.1779V34.5108C8.38676e-09 34.4028 0.0218566 34.296 0.0643218 34.1962C0.106787 34.0965 0.169029 34.0059 0.247495 33.9296C0.32596 33.8533 0.419112 33.7928 0.521632 33.7514C0.624153 33.7101 0.734033 33.6889 0.845 33.6889ZM47.5563 17.397C54.4287 17.397 60 22.8156 60 29.5C60 36.1844 54.4287 41.603 47.5563 41.603C40.6838 41.603 35.1126 36.1844 35.1126 29.5C35.1126 22.8156 40.6838 17.397 47.5563 17.397ZM46.349 20.1124V28.3258H40.5502C39.8836 28.3258 39.343 28.8515 39.343 29.5C39.343 30.1484 39.8835 30.6742 40.5502 30.6742H47.5563C48.223 30.6742 48.7636 30.1484 48.7636 29.5V20.1124C48.7636 19.4639 48.2231 18.9382 47.5563 18.9382C46.8895 18.9382 46.349 19.4639 46.349 20.1124ZM27.9923 14.5843C28.6177 14.5843 29.1842 14.8311 29.5942 15.2299C30.0042 15.6286 30.2579 16.1796 30.2579 16.7879C30.2579 17.3963 30.0043 17.9472 29.5942 18.346C29.384 18.5509 29.1344 18.7134 28.8594 18.8242C28.5845 18.935 28.2898 18.9918 27.9923 18.9915C27.7194 18.9915 27.458 18.9446 27.2157 18.8586L21.6612 24.8924C21.8163 25.1965 21.8968 25.5314 21.8963 25.8708C21.8967 26.1602 21.8382 26.4469 21.7243 26.7143C21.6105 26.9816 21.4434 27.2245 21.2327 27.4289C20.8227 27.8275 20.2563 28.0743 19.6308 28.0743C19.0054 28.0743 18.4389 27.8275 18.0289 27.4288C17.6189 27.03 17.3652 26.4791 17.3652 25.8707C17.3652 25.4579 17.482 25.0715 17.6852 24.7412L11.8742 17.3276C11.6772 17.3805 11.4738 17.4072 11.2694 17.407C10.9206 17.407 10.5901 17.3303 10.295 17.1933L5.02607 21.9186C5.12392 22.1689 5.17391 22.4345 5.17357 22.7023C5.17357 23.3106 4.92 23.8616 4.50988 24.2603C4.29976 24.4653 4.05007 24.6278 3.77516 24.7386C3.50025 24.8494 3.20555 24.9062 2.90798 24.9059C2.6104 24.9062 2.31569 24.8494 2.04078 24.7386C1.76587 24.6278 1.51618 24.4653 1.30607 24.2603C1.09536 24.056 0.928257 23.8131 0.814358 23.5457C0.70046 23.2783 0.642014 22.9917 0.642381 22.7023C0.642381 22.0939 0.895952 21.543 1.30595 21.1442C1.71595 20.7455 2.28238 20.4988 2.90786 20.4988C3.25667 20.4988 3.58714 20.5756 3.88238 20.7126L9.15131 15.9872C9.05341 15.7369 9.00338 15.4713 9.00369 15.2035C9.00369 14.5951 9.25738 14.0442 9.66738 13.6454C10.0774 13.2466 10.6438 13 11.2693 13C11.8948 13 12.4612 13.2466 12.8712 13.6455C13.0819 13.8499 13.249 14.0928 13.3629 14.3601C13.4768 14.6275 13.5352 14.9142 13.5349 15.2036C13.5349 15.6165 13.4181 16.0027 13.2149 16.3331L19.0258 23.7467C19.2228 23.6938 19.4262 23.6671 19.6306 23.6673C19.9033 23.6673 20.1649 23.7142 20.407 23.8002L25.9615 17.7663C25.8064 17.4623 25.7259 17.1273 25.7264 16.7879C25.7264 16.1796 25.98 15.6286 26.39 15.2299C26.6002 15.0249 26.85 14.8624 27.1249 14.7516C27.3999 14.6408 27.6946 14.584 27.9923 14.5843ZM28.3992 16.392C28.3458 16.34 28.2823 16.2987 28.2125 16.2706C28.1427 16.2425 28.0678 16.2281 27.9923 16.2282C27.8332 16.2282 27.6893 16.2908 27.5852 16.392C27.4812 16.4932 27.4168 16.6332 27.4168 16.7879C27.4168 16.9426 27.4812 17.0826 27.5852 17.1838C27.6893 17.285 27.8332 17.3476 27.9923 17.3476C28.1512 17.3476 28.2951 17.285 28.3992 17.1838C28.5032 17.0826 28.5676 16.9426 28.5676 16.788C28.5678 16.7145 28.5529 16.6416 28.524 16.5737C28.4951 16.5057 28.4527 16.444 28.3992 16.392ZM20.0379 25.475C19.9338 25.3738 19.7899 25.3111 19.6308 25.3111C19.4718 25.3111 19.3279 25.3738 19.2238 25.475C19.1198 25.5762 19.0554 25.7161 19.0554 25.8707C19.0554 26.0254 19.1198 26.1653 19.2238 26.2666C19.2772 26.3186 19.3406 26.3599 19.4105 26.388C19.4803 26.4161 19.5551 26.4305 19.6307 26.4304C19.7898 26.4304 19.9337 26.3678 20.0377 26.2666C20.1418 26.1654 20.2062 26.0254 20.2062 25.8707C20.2062 25.7161 20.1419 25.5762 20.0379 25.475ZM3.31524 22.3065C3.21119 22.2053 3.06726 22.1427 2.90821 22.1427C2.74917 22.1427 2.60524 22.2053 2.50119 22.3065C2.39714 22.4077 2.33274 22.5477 2.33274 22.7024C2.33274 22.857 2.39714 22.997 2.50119 23.0982C2.60524 23.1994 2.74917 23.262 2.90821 23.262C3.06714 23.262 3.21107 23.1994 3.31512 23.0982C3.41917 22.997 3.48357 22.857 3.48357 22.7024C3.48374 22.6289 3.46895 22.556 3.44006 22.4881C3.41117 22.4202 3.36875 22.3584 3.31524 22.3065ZM11.6765 14.8078C11.6232 14.7558 11.5597 14.7145 11.4899 14.6864C11.4201 14.6583 11.3452 14.6439 11.2696 14.644C11.1106 14.644 10.9667 14.7066 10.8626 14.8078C10.7586 14.909 10.6942 15.049 10.6942 15.2037C10.6942 15.3584 10.7586 15.4984 10.8626 15.5996C10.9667 15.7008 11.1106 15.7634 11.2696 15.7634C11.4286 15.7634 11.5725 15.7008 11.6765 15.5996C11.7806 15.4984 11.845 15.3584 11.845 15.2037C11.845 15.049 11.7806 14.909 11.6765 14.8078ZM25.929 27.7744C25.7049 27.7744 25.49 27.861 25.3315 28.0151C25.1731 28.1692 25.084 28.3783 25.084 28.5963V45.1779C25.084 45.3959 25.1731 45.6049 25.3315 45.7591C25.49 45.9132 25.7049 45.9999 25.929 45.9999H30.0554C30.2795 45.9999 30.4944 45.9132 30.6529 45.7591C30.8114 45.6049 30.9004 45.3959 30.9005 45.1779V28.5963C30.9005 28.4883 30.8786 28.3814 30.8361 28.2817C30.7937 28.182 30.7314 28.0914 30.6529 28.0151C30.5745 27.9388 30.4813 27.8782 30.3788 27.8369C30.2762 27.7956 30.1663 27.7744 30.0554 27.7744H25.929ZM17.5677 36.8573H21.694C21.9182 36.8573 22.1331 36.9439 22.2916 37.0981C22.4501 37.2522 22.5392 37.4613 22.5392 37.6793V45.178C22.5391 45.396 22.4501 45.6051 22.2916 45.7592C22.1331 45.9134 21.9182 46 21.694 46H17.5677C17.4568 46 17.3469 45.9787 17.2443 45.9374C17.1418 45.8961 17.0487 45.8356 16.9702 45.7592C16.8917 45.6829 16.8295 45.5923 16.787 45.4926C16.7446 45.3928 16.7227 45.286 16.7227 45.178V37.6793C16.7227 37.5714 16.7445 37.4645 16.787 37.3647C16.8294 37.265 16.8917 37.1744 16.9702 37.0981C17.0486 37.0217 17.1418 36.9612 17.2443 36.9199C17.3469 36.8786 17.4568 36.8573 17.5677 36.8573ZM9.20643 26.1902C9.09546 26.1902 8.98558 26.2114 8.88306 26.2527C8.78054 26.294 8.68739 26.3546 8.60892 26.4309C8.53046 26.5072 8.46822 26.5978 8.42575 26.6975C8.38329 26.7972 8.36143 26.9041 8.36143 27.012V45.178C8.36143 45.396 8.45045 45.6051 8.60892 45.7592C8.76738 45.9134 8.98231 46 9.20643 46H13.3327C13.5569 46 13.7718 45.9134 13.9303 45.7592C14.0888 45.6051 14.1778 45.396 14.1779 45.178V27.012C14.1779 26.9041 14.156 26.7972 14.1135 26.6975C14.0711 26.5978 14.0088 26.5072 13.9303 26.4309C13.8518 26.3545 13.7587 26.294 13.6561 26.2527C13.5536 26.2114 13.4437 26.1902 13.3327 26.1902H9.20643Z" fill="url(#paint0_linear_16409_416)"/>
<defs>
<linearGradient id="paint0_linear_16409_416" x1="-3.06164e-07" y1="29.3299" x2="60" y2="29.3299" gradientUnits="userSpaceOnUse">
<stop stop-color="#7755FF"/>
<stop offset="0.198933" stop-color="#6371F2"/>
<stop offset="0.39624" stop-color="#40A4DA"/>
<stop offset="0.60106" stop-color="#34AED2"/>
<stop offset="0.796668" stop-color="#1BC4BF"/>
<stop offset="1" stop-color="#0DCFB3"/>
</linearGradient>
</defs>
</svg>
