<svg width="60" height="60" viewBox="0 0 60 60" fill="none" xmlns="http://www.w3.org/2000/svg">
<path d="M23.9998 34.0009C23.3431 34.001 22.6929 33.8717 22.0862 33.6204C21.4795 33.3691 20.9283 33.0008 20.464 32.5364C19.9997 32.0721 19.6315 31.5208 19.3803 30.9141C19.1291 30.3074 18.9998 29.6571 19 29.0005H16C16 31.3945 17.0722 33.5179 18.7378 34.9855C17.4604 37.5967 17.878 40.8283 20.0488 43.0009L22.1716 40.8775C21.6102 40.3163 21.2288 39.6005 21.0761 38.8215C20.9234 38.0425 21.0063 37.2357 21.3142 36.5041C22.1554 36.8077 23.0518 37.0009 23.9998 37.0009H28V34.0009H23.9998Z" fill="white"/>
<path d="M23.9998 34.0009C23.3431 34.001 22.6929 33.8717 22.0862 33.6204C21.4795 33.3691 20.9283 33.0008 20.464 32.5364C19.9997 32.0721 19.6315 31.5208 19.3803 30.9141C19.1291 30.3074 18.9998 29.6571 19 29.0005H16C16 31.3945 17.0722 33.5179 18.7378 34.9855C17.4604 37.5967 17.878 40.8283 20.0488 43.0009L22.1716 40.8775C21.6102 40.3163 21.2288 39.6005 21.0761 38.8215C20.9234 38.0425 21.0063 37.2357 21.3142 36.5041C22.1554 36.8077 23.0518 37.0009 23.9998 37.0009H28V34.0009H23.9998Z" fill="url(#paint0_linear_16409_420)"/>
<path d="M17.877 16.0044L20.2908 16.2186C20.8398 16.2696 21.435 15.8826 21.6168 15.363L22.3104 13.3692C23.0136 11.3538 24.8964 10.0002 26.9994 10.0002C27.3432 10.0002 27.675 10.047 27.9996 10.1172V6.0978C27.6696 6.0552 27.3414 6 27 6C23.0664 6 19.758 8.5392 18.5334 12.0552C18.3534 12.039 18.1818 12 17.9982 12C14.6856 12 12 14.6874 12 17.9982C12 18.0936 12.0234 18.18 12.0276 18.2736C8.568 19.1568 6 22.2654 6 25.998C6 28.1016 6.828 30 8.1564 31.4298C6.8478 32.5302 6 34.1568 6 35.9988C6 38.6568 7.74 40.8858 10.1328 41.6742C10.0468 42.1104 10.0024 42.5538 10.0002 42.9984C10.0002 46.8654 13.1352 50.0004 16.998 50.0004C17.8068 50.0004 18.57 49.8366 19.293 49.5846C20.8632 52.2174 23.7114 54 27 54C27.3414 54 27.6696 53.946 28.0002 53.9028V49.8858C27.6717 49.9584 27.3365 49.9968 27 50.0004C25.2462 50.0004 23.6484 49.0782 22.7286 47.5362L21.8262 46.0224C21.4026 45.3132 20.4198 44.9562 19.6404 45.228L17.9766 45.8082C17.6034 45.9384 17.2836 46.0014 16.998 46.0014C16.2026 45.9996 15.4404 45.6826 14.8784 45.1198C14.3164 44.557 14.0004 43.7944 13.9998 42.999C13.9998 42.8058 14.0256 42.6156 14.061 42.4332L14.4438 40.4502C14.6004 39.639 14.088 38.766 13.3032 38.5086L11.3856 37.8756C10.6962 37.6494 10.0008 36.9792 10.0008 35.9994C10.0008 35.2212 10.4598 34.7196 10.7334 34.4886L12.417 33.0732C12.6161 32.9085 12.7793 32.7046 12.8964 32.4742C13.0135 32.2438 13.0821 31.9918 13.0979 31.7338C13.1136 31.4759 13.0762 31.2174 12.988 30.9745C12.8998 30.7316 12.7626 30.5093 12.585 30.3216L11.0868 28.7082C10.5906 28.1724 10.0008 27.2706 9.999 26.001C9.999 24.9401 10.4204 23.9226 11.1706 23.1724C11.9208 22.4222 12.9383 22.0008 13.9992 22.0008C18.4188 22.0008 21.999 25.5828 21.999 30.0006H24.999C24.999 27.2934 24.0186 24.8208 22.3974 22.9074C23.2494 20.6298 25.4268 19.0008 28.0014 19.0008V16.0008C24.5346 16.0008 21.54 17.9736 20.0388 20.8482C18.8496 20.0628 17.5212 19.4772 16.0698 19.2018C16.0698 19.2018 16.0152 17.9346 16.0074 17.8482C16.0434 17.3667 16.2526 16.9146 16.5964 16.5756C16.9401 16.2366 17.3951 16.0337 17.877 16.0044ZM31.0002 19.5H40.9998V22.5H31.0002V19.5ZM45.621 25.5H31.0002V28.5H44.379L49.9392 34.0608L52.0608 31.9392L45.621 25.5Z" fill="white"/>
<path d="M17.877 16.0044L20.2908 16.2186C20.8398 16.2696 21.435 15.8826 21.6168 15.363L22.3104 13.3692C23.0136 11.3538 24.8964 10.0002 26.9994 10.0002C27.3432 10.0002 27.675 10.047 27.9996 10.1172V6.0978C27.6696 6.0552 27.3414 6 27 6C23.0664 6 19.758 8.5392 18.5334 12.0552C18.3534 12.039 18.1818 12 17.9982 12C14.6856 12 12 14.6874 12 17.9982C12 18.0936 12.0234 18.18 12.0276 18.2736C8.568 19.1568 6 22.2654 6 25.998C6 28.1016 6.828 30 8.1564 31.4298C6.8478 32.5302 6 34.1568 6 35.9988C6 38.6568 7.74 40.8858 10.1328 41.6742C10.0468 42.1104 10.0024 42.5538 10.0002 42.9984C10.0002 46.8654 13.1352 50.0004 16.998 50.0004C17.8068 50.0004 18.57 49.8366 19.293 49.5846C20.8632 52.2174 23.7114 54 27 54C27.3414 54 27.6696 53.946 28.0002 53.9028V49.8858C27.6717 49.9584 27.3365 49.9968 27 50.0004C25.2462 50.0004 23.6484 49.0782 22.7286 47.5362L21.8262 46.0224C21.4026 45.3132 20.4198 44.9562 19.6404 45.228L17.9766 45.8082C17.6034 45.9384 17.2836 46.0014 16.998 46.0014C16.2026 45.9996 15.4404 45.6826 14.8784 45.1198C14.3164 44.557 14.0004 43.7944 13.9998 42.999C13.9998 42.8058 14.0256 42.6156 14.061 42.4332L14.4438 40.4502C14.6004 39.639 14.088 38.766 13.3032 38.5086L11.3856 37.8756C10.6962 37.6494 10.0008 36.9792 10.0008 35.9994C10.0008 35.2212 10.4598 34.7196 10.7334 34.4886L12.417 33.0732C12.6161 32.9085 12.7793 32.7046 12.8964 32.4742C13.0135 32.2438 13.0821 31.9918 13.0979 31.7338C13.1136 31.4759 13.0762 31.2174 12.988 30.9745C12.8998 30.7316 12.7626 30.5093 12.585 30.3216L11.0868 28.7082C10.5906 28.1724 10.0008 27.2706 9.999 26.001C9.999 24.9401 10.4204 23.9226 11.1706 23.1724C11.9208 22.4222 12.9383 22.0008 13.9992 22.0008C18.4188 22.0008 21.999 25.5828 21.999 30.0006H24.999C24.999 27.2934 24.0186 24.8208 22.3974 22.9074C23.2494 20.6298 25.4268 19.0008 28.0014 19.0008V16.0008C24.5346 16.0008 21.54 17.9736 20.0388 20.8482C18.8496 20.0628 17.5212 19.4772 16.0698 19.2018C16.0698 19.2018 16.0152 17.9346 16.0074 17.8482C16.0434 17.3667 16.2526 16.9146 16.5964 16.5756C16.9401 16.2366 17.3951 16.0337 17.877 16.0044ZM31.0002 19.5H40.9998V22.5H31.0002V19.5ZM45.621 25.5H31.0002V28.5H44.379L49.9392 34.0608L52.0608 31.9392L45.621 25.5Z" fill="url(#paint1_linear_16409_420)"/>
<path d="M45.6208 28.5L44.3788 25.5L49.939 19.9392L52.0606 22.0608L45.6208 28.5ZM31 31.5H38.9998V34.5H31V31.5ZM31 37.5H44.9998V40.5H31V37.5ZM31 49.5H37V52.5H31V49.5ZM47.2438 49.5L41.242 43.5H31V46.5H40L46.0018 52.5H50.9998V49.5H47.2438ZM31 7.5H37V10.5H31V7.5ZM47.2438 10.5L41.242 16.5H31V13.5H40L46.0018 7.5H50.9998V10.5H47.2438Z" fill="white"/>
<path d="M45.6208 28.5L44.3788 25.5L49.939 19.9392L52.0606 22.0608L45.6208 28.5ZM31 31.5H38.9998V34.5H31V31.5ZM31 37.5H44.9998V40.5H31V37.5ZM31 49.5H37V52.5H31V49.5ZM47.2438 49.5L41.242 43.5H31V46.5H40L46.0018 52.5H50.9998V49.5H47.2438ZM31 7.5H37V10.5H31V7.5ZM47.2438 10.5L41.242 16.5H31V13.5H40L46.0018 7.5H50.9998V10.5H47.2438Z" fill="url(#paint2_linear_16409_420)"/>
<path d="M51 24C52.6569 24 54 22.6569 54 21C54 19.3431 52.6569 18 51 18C49.3431 18 48 19.3431 48 21C48 22.6569 49.3431 24 51 24Z" fill="white"/>
<path d="M51 24C52.6569 24 54 22.6569 54 21C54 19.3431 52.6569 18 51 18C49.3431 18 48 19.3431 48 21C48 22.6569 49.3431 24 51 24Z" fill="url(#paint3_linear_16409_420)"/>
<path d="M51 36C52.6569 36 54 34.6569 54 33C54 31.3431 52.6569 30 51 30C49.3431 30 48 31.3431 48 33C48 34.6569 49.3431 36 51 36Z" fill="white"/>
<path d="M51 36C52.6569 36 54 34.6569 54 33C54 31.3431 52.6569 30 51 30C49.3431 30 48 31.3431 48 33C48 34.6569 49.3431 36 51 36Z" fill="url(#paint4_linear_16409_420)"/>
<path d="M39 36C40.6569 36 42 34.6569 42 33C42 31.3431 40.6569 30 39 30C37.3431 30 36 31.3431 36 33C36 34.6569 37.3431 36 39 36Z" fill="white"/>
<path d="M39 36C40.6569 36 42 34.6569 42 33C42 31.3431 40.6569 30 39 30C37.3431 30 36 31.3431 36 33C36 34.6569 37.3431 36 39 36Z" fill="url(#paint5_linear_16409_420)"/>
<path d="M41 24C42.6569 24 44 22.6569 44 21C44 19.3431 42.6569 18 41 18C39.3431 18 38 19.3431 38 21C38 22.6569 39.3431 24 41 24Z" fill="white"/>
<path d="M41 24C42.6569 24 44 22.6569 44 21C44 19.3431 42.6569 18 41 18C39.3431 18 38 19.3431 38 21C38 22.6569 39.3431 24 41 24Z" fill="url(#paint6_linear_16409_420)"/>
<path d="M45 42C46.6569 42 48 40.6569 48 39C48 37.3431 46.6569 36 45 36C43.3431 36 42 37.3431 42 39C42 40.6569 43.3431 42 45 42Z" fill="white"/>
<path d="M45 42C46.6569 42 48 40.6569 48 39C48 37.3431 46.6569 36 45 36C43.3431 36 42 37.3431 42 39C42 40.6569 43.3431 42 45 42Z" fill="url(#paint7_linear_16409_420)"/>
<path d="M51 54C52.6569 54 54 52.6569 54 51C54 49.3431 52.6569 48 51 48C49.3431 48 48 49.3431 48 51C48 52.6569 49.3431 54 51 54Z" fill="white"/>
<path d="M51 54C52.6569 54 54 52.6569 54 51C54 49.3431 52.6569 48 51 48C49.3431 48 48 49.3431 48 51C48 52.6569 49.3431 54 51 54Z" fill="url(#paint8_linear_16409_420)"/>
<path d="M37 54C38.6569 54 40 52.6569 40 51C40 49.3431 38.6569 48 37 48C35.3431 48 34 49.3431 34 51C34 52.6569 35.3431 54 37 54Z" fill="white"/>
<path d="M37 54C38.6569 54 40 52.6569 40 51C40 49.3431 38.6569 48 37 48C35.3431 48 34 49.3431 34 51C34 52.6569 35.3431 54 37 54Z" fill="url(#paint9_linear_16409_420)"/>
<path d="M51 12C52.6569 12 54 10.6569 54 9C54 7.34315 52.6569 6 51 6C49.3431 6 48 7.34315 48 9C48 10.6569 49.3431 12 51 12Z" fill="white"/>
<path d="M51 12C52.6569 12 54 10.6569 54 9C54 7.34315 52.6569 6 51 6C49.3431 6 48 7.34315 48 9C48 10.6569 49.3431 12 51 12Z" fill="url(#paint10_linear_16409_420)"/>
<path d="M37 12C38.6569 12 40 10.6569 40 9C40 7.34315 38.6569 6 37 6C35.3431 6 34 7.34315 34 9C34 10.6569 35.3431 12 37 12Z" fill="white"/>
<path d="M37 12C38.6569 12 40 10.6569 40 9C40 7.34315 38.6569 6 37 6C35.3431 6 34 7.34315 34 9C34 10.6569 35.3431 12 37 12Z" fill="url(#paint11_linear_16409_420)"/>
<defs>
<linearGradient id="paint0_linear_16409_420" x1="16" y1="35.9285" x2="28" y2="35.9285" gradientUnits="userSpaceOnUse">
<stop stop-color="#7755FF"/>
<stop offset="0.198933" stop-color="#6371F2"/>
<stop offset="0.39624" stop-color="#40A4DA"/>
<stop offset="0.60106" stop-color="#34AED2"/>
<stop offset="0.796668" stop-color="#1BC4BF"/>
<stop offset="1" stop-color="#0DCFB3"/>
</linearGradient>
<linearGradient id="paint1_linear_16409_420" x1="6" y1="29.7526" x2="52.0608" y2="29.7526" gradientUnits="userSpaceOnUse">
<stop stop-color="#7755FF"/>
<stop offset="0.198933" stop-color="#6371F2"/>
<stop offset="0.39624" stop-color="#40A4DA"/>
<stop offset="0.60106" stop-color="#34AED2"/>
<stop offset="0.796668" stop-color="#1BC4BF"/>
<stop offset="1" stop-color="#0DCFB3"/>
</linearGradient>
<linearGradient id="paint2_linear_16409_420" x1="31" y1="29.768" x2="52.0606" y2="29.768" gradientUnits="userSpaceOnUse">
<stop stop-color="#7755FF"/>
<stop offset="0.198933" stop-color="#6371F2"/>
<stop offset="0.39624" stop-color="#40A4DA"/>
<stop offset="0.60106" stop-color="#34AED2"/>
<stop offset="0.796668" stop-color="#1BC4BF"/>
<stop offset="1" stop-color="#0DCFB3"/>
</linearGradient>
<linearGradient id="paint3_linear_16409_420" x1="48" y1="20.9691" x2="54" y2="20.9691" gradientUnits="userSpaceOnUse">
<stop stop-color="#7755FF"/>
<stop offset="0.198933" stop-color="#6371F2"/>
<stop offset="0.39624" stop-color="#40A4DA"/>
<stop offset="0.60106" stop-color="#34AED2"/>
<stop offset="0.796668" stop-color="#1BC4BF"/>
<stop offset="1" stop-color="#0DCFB3"/>
</linearGradient>
<linearGradient id="paint4_linear_16409_420" x1="48" y1="32.9691" x2="54" y2="32.9691" gradientUnits="userSpaceOnUse">
<stop stop-color="#7755FF"/>
<stop offset="0.198933" stop-color="#6371F2"/>
<stop offset="0.39624" stop-color="#40A4DA"/>
<stop offset="0.60106" stop-color="#34AED2"/>
<stop offset="0.796668" stop-color="#1BC4BF"/>
<stop offset="1" stop-color="#0DCFB3"/>
</linearGradient>
<linearGradient id="paint5_linear_16409_420" x1="36" y1="32.9691" x2="42" y2="32.9691" gradientUnits="userSpaceOnUse">
<stop stop-color="#7755FF"/>
<stop offset="0.198933" stop-color="#6371F2"/>
<stop offset="0.39624" stop-color="#40A4DA"/>
<stop offset="0.60106" stop-color="#34AED2"/>
<stop offset="0.796668" stop-color="#1BC4BF"/>
<stop offset="1" stop-color="#0DCFB3"/>
</linearGradient>
<linearGradient id="paint6_linear_16409_420" x1="38" y1="20.9691" x2="44" y2="20.9691" gradientUnits="userSpaceOnUse">
<stop stop-color="#7755FF"/>
<stop offset="0.198933" stop-color="#6371F2"/>
<stop offset="0.39624" stop-color="#40A4DA"/>
<stop offset="0.60106" stop-color="#34AED2"/>
<stop offset="0.796668" stop-color="#1BC4BF"/>
<stop offset="1" stop-color="#0DCFB3"/>
</linearGradient>
<linearGradient id="paint7_linear_16409_420" x1="42" y1="38.9691" x2="48" y2="38.9691" gradientUnits="userSpaceOnUse">
<stop stop-color="#7755FF"/>
<stop offset="0.198933" stop-color="#6371F2"/>
<stop offset="0.39624" stop-color="#40A4DA"/>
<stop offset="0.60106" stop-color="#34AED2"/>
<stop offset="0.796668" stop-color="#1BC4BF"/>
<stop offset="1" stop-color="#0DCFB3"/>
</linearGradient>
<linearGradient id="paint8_linear_16409_420" x1="48" y1="50.9691" x2="54" y2="50.9691" gradientUnits="userSpaceOnUse">
<stop stop-color="#7755FF"/>
<stop offset="0.198933" stop-color="#6371F2"/>
<stop offset="0.39624" stop-color="#40A4DA"/>
<stop offset="0.60106" stop-color="#34AED2"/>
<stop offset="0.796668" stop-color="#1BC4BF"/>
<stop offset="1" stop-color="#0DCFB3"/>
</linearGradient>
<linearGradient id="paint9_linear_16409_420" x1="34" y1="50.9691" x2="40" y2="50.9691" gradientUnits="userSpaceOnUse">
<stop stop-color="#7755FF"/>
<stop offset="0.198933" stop-color="#6371F2"/>
<stop offset="0.39624" stop-color="#40A4DA"/>
<stop offset="0.60106" stop-color="#34AED2"/>
<stop offset="0.796668" stop-color="#1BC4BF"/>
<stop offset="1" stop-color="#0DCFB3"/>
</linearGradient>
<linearGradient id="paint10_linear_16409_420" x1="48" y1="8.96907" x2="54" y2="8.96907" gradientUnits="userSpaceOnUse">
<stop stop-color="#7755FF"/>
<stop offset="0.198933" stop-color="#6371F2"/>
<stop offset="0.39624" stop-color="#40A4DA"/>
<stop offset="0.60106" stop-color="#34AED2"/>
<stop offset="0.796668" stop-color="#1BC4BF"/>
<stop offset="1" stop-color="#0DCFB3"/>
</linearGradient>
<linearGradient id="paint11_linear_16409_420" x1="34" y1="8.96907" x2="40" y2="8.96907" gradientUnits="userSpaceOnUse">
<stop stop-color="#7755FF"/>
<stop offset="0.198933" stop-color="#6371F2"/>
<stop offset="0.39624" stop-color="#40A4DA"/>
<stop offset="0.60106" stop-color="#34AED2"/>
<stop offset="0.796668" stop-color="#1BC4BF"/>
<stop offset="1" stop-color="#0DCFB3"/>
</linearGradient>
</defs>
</svg>
