<svg width="2190" height="3132" viewBox="0 0 2190 3132" fill="none" xmlns="http://www.w3.org/2000/svg">
<g opacity="0.5" filter="url(#filter0_f_18201_575)">
<path d="M601.091 1800.76L821.047 1717.18C1000.94 2165.52 1370.78 2445.28 1645.55 2340.87L1789.56 2699.77C1393.52 2850.26 860.37 2446.96 601.091 1800.76Z" fill="url(#paint0_linear_18201_575)" fill-opacity="0.5"/>
</g>
<g opacity="0.5" filter="url(#filter1_f_18201_575)">
<path d="M755.242 1793.35L917.49 1731.69C1076.01 2126.76 1369.85 2385.55 1572.49 2308.55L1699.41 2624.87C1407.28 2735.87 983.723 2362.78 755.242 1793.35Z" fill="url(#paint1_linear_18201_575)" fill-opacity="0.5"/>
</g>
<g opacity="0.6" filter="url(#filter2_f_18201_575)">
<path d="M589.998 1813.12L806.876 1730.71C956.969 2104.78 1299.44 2325.32 1570.37 2222.37L1690.52 2521.81C1300.03 2670.19 806.327 2352.27 589.998 1813.12Z" fill="url(#paint2_linear_18201_575)" fill-opacity="0.5"/>
</g>
<g opacity="0.6" filter="url(#filter3_f_18201_575)">
<path d="M490.345 1735.49L713.837 1650.57C863.282 2023.03 1211.98 2239.77 1491.11 2133.71L1610.77 2431.93C1208.37 2584.84 705.752 2272.35 490.345 1735.49Z" fill="url(#paint3_linear_18201_575)" fill-opacity="0.5"/>
</g>
<defs>
<filter id="filter0_f_18201_575" x="201.092" y="1317.18" width="1988.46" height="1814.08" filterUnits="userSpaceOnUse" color-interpolation-filters="sRGB">
<feFlood flood-opacity="0" result="BackgroundImageFix"/>
<feBlend mode="normal" in="SourceGraphic" in2="BackgroundImageFix" result="shape"/>
<feGaussianBlur stdDeviation="200" result="effect1_foregroundBlur_18201_575"/>
</filter>
<filter id="filter1_f_18201_575" x="355.242" y="1331.69" width="1744.17" height="1712.72" filterUnits="userSpaceOnUse" color-interpolation-filters="sRGB">
<feFlood flood-opacity="0" result="BackgroundImageFix"/>
<feBlend mode="normal" in="SourceGraphic" in2="BackgroundImageFix" result="shape"/>
<feGaussianBlur stdDeviation="200" result="effect1_foregroundBlur_18201_575"/>
</filter>
<filter id="filter2_f_18201_575" x="189.998" y="1330.71" width="1900.52" height="1627.57" filterUnits="userSpaceOnUse" color-interpolation-filters="sRGB">
<feFlood flood-opacity="0" result="BackgroundImageFix"/>
<feBlend mode="normal" in="SourceGraphic" in2="BackgroundImageFix" result="shape"/>
<feGaussianBlur stdDeviation="200" result="effect1_foregroundBlur_18201_575"/>
</filter>
<filter id="filter3_f_18201_575" x="90.3457" y="1250.57" width="1920.42" height="1620.18" filterUnits="userSpaceOnUse" color-interpolation-filters="sRGB">
<feFlood flood-opacity="0" result="BackgroundImageFix"/>
<feBlend mode="normal" in="SourceGraphic" in2="BackgroundImageFix" result="shape"/>
<feGaussianBlur stdDeviation="200" result="effect1_foregroundBlur_18201_575"/>
</filter>
<linearGradient id="paint0_linear_18201_575" x1="960.228" y1="1664.28" x2="1408.7" y2="2844.51" gradientUnits="userSpaceOnUse">
<stop stop-color="#9403FD"/>
<stop offset="1" stop-color="#00ADFE"/>
</linearGradient>
<linearGradient id="paint1_linear_18201_575" x1="1020.1" y1="1692.69" x2="1415.32" y2="2732.77" gradientUnits="userSpaceOnUse">
<stop stop-color="#9403FD"/>
<stop offset="1" stop-color="#00ADFE"/>
</linearGradient>
<linearGradient id="paint2_linear_18201_575" x1="944.11" y1="1678.55" x2="1318.29" y2="2663.27" gradientUnits="userSpaceOnUse">
<stop stop-color="#9403FD"/>
<stop offset="1" stop-color="#00ADFE"/>
</linearGradient>
<linearGradient id="paint3_linear_18201_575" x1="855.18" y1="1596.85" x2="1227.79" y2="2577.41" gradientUnits="userSpaceOnUse">
<stop stop-color="#9403FD"/>
<stop offset="1" stop-color="#00ADFE"/>
</linearGradient>
</defs>
</svg>
