<svg width="133" height="48" viewBox="0 0 133 48" fill="none" xmlns="http://www.w3.org/2000/svg">
<path fill-rule="evenodd" clip-rule="evenodd" d="M47.6036 14.4445V28.8889H51.2049H54.8063V23.3334C54.8063 19.6667 54.8063 17.6667 54.8063 17.4445C54.9188 16.8889 55.0314 16.3334 55.369 15.8889C55.8192 15.1111 56.607 14.7778 57.5073 14.8889C58.7453 15 59.5331 15.6667 59.7581 17.1111C59.7581 17.3334 59.7581 19.5556 59.7581 23.1112V28.7778H63.3595H66.9609V22.1112C66.9609 16.4445 66.9609 15.3334 66.8483 14.7778C66.6232 12.7778 65.948 11.2222 64.71 10.1111C63.6971 9.11113 62.4592 8.55557 60.9961 8.33335C60.4334 8.22224 58.8578 8.33335 58.4076 8.44446C57.0571 8.77779 56.0442 9.22224 55.1439 10.2222L54.5812 10.6667V5.33334V0H50.9798H47.3785V14.4445H47.6036ZM124.133 0.222223C123.907 0.666669 116.592 18.1111 116.592 18.1111C116.592 18.1111 118.505 18.1111 120.869 18.1111H125.145L128.972 9.11113C131.11 4.11112 132.798 0 132.798 0C132.798 0 130.885 0 128.522 0H124.245L124.133 0.222223ZM31.8476 8.44446C30.272 8.66668 29.034 9.11113 27.7961 9.88891C25.3201 11.4445 23.7445 14.1111 23.2944 17.2223C23.0693 18.6667 23.1818 20.4445 23.5194 21.7778C24.4198 25.2223 26.7832 27.8889 29.8218 28.8889C30.9473 29.2223 31.3974 29.3334 32.7479 29.3334C33.7608 29.3334 34.0984 29.3334 34.4361 29.2223C35.8991 28.8889 36.912 28.3334 37.8123 27.4445L38.2625 27V27.8889V28.7778H41.7513H45.2402V18.7778V8.7778H41.7513H38.2625V9.66669V10.5556L37.9249 10.2222C37.1371 9.33335 36.0117 8.77779 34.5486 8.44446C34.0984 8.33335 33.8734 8.33335 32.973 8.33335C32.4103 8.44446 31.9601 8.44446 31.8476 8.44446ZM77.765 8.44446C75.8517 8.66668 73.826 9.55557 72.3629 10.6667C69.5494 13 68.0863 16.6667 68.649 20.4445C69.2117 24.6667 72.2504 27.8889 76.527 29.0001C77.4273 29.2223 78.3277 29.3334 79.4531 29.3334C81.4789 29.3334 82.9419 29.0001 84.5175 28.2223C87.6687 26.6667 89.6945 23.8889 90.1446 20.4445C90.2572 19.5556 90.2572 18.1111 90.1446 17.3334C89.9196 15.6667 89.2443 14 88.2314 12.6667C87.7813 12.1111 86.8809 11.1111 86.3182 10.6667C84.7426 9.44446 82.9419 8.66668 80.9162 8.44446C80.1284 8.33335 78.5528 8.33335 77.765 8.44446ZM100.724 8.44446C98.8104 8.66668 96.8972 9.44446 95.4341 10.6667C94.8714 11.1111 93.8585 12.1111 93.5209 12.6667C92.508 14 91.9453 15.6667 91.6077 17.3334C91.4952 18.1111 91.4952 19.6667 91.6077 20.4445C92.283 24.8889 95.5467 28.3334 100.048 29.2223C100.949 29.4445 101.399 29.4445 102.412 29.4445C104.325 29.4445 106.013 29.1112 107.589 28.2223C111.753 26.1112 114.004 21.4445 112.991 16.6667C112.09 12.2222 108.489 9.00002 103.875 8.44446C103.087 8.33335 101.511 8.33335 100.724 8.44446ZM-0.00195312 8.88891C-0.00195312 8.88891 1.91127 13.4445 4.27466 19C6.63806 24.5556 8.55128 29.1112 8.55128 29.1112C8.55128 29.1112 7.87603 30.7778 6.97569 32.7778C6.07535 34.7778 5.40009 36.3334 5.40009 36.4445C5.40009 36.5556 7.08823 36.4445 9.22654 36.4445H13.053L18.7927 22.7778C21.9438 15.2223 24.5323 9.11113 24.5323 9.00002C24.5323 9.00002 23.7445 8.8889 20.7059 9.00002H16.8794L14.516 14.7778C13.5032 17.8889 12.4903 20.5556 12.4903 20.5556C12.4903 20.5556 11.4774 17.8889 10.1269 14.7778L7.87603 9.00002H3.93704C1.79873 8.8889 -0.00195312 8.88891 -0.00195312 8.88891ZM35.3364 14.8889C36.7995 15.2223 37.9249 16.3334 38.3751 17.7778C38.4876 18.3334 38.4876 19.3334 38.3751 19.8889C38.0374 21.3334 36.912 22.4445 35.449 22.7778C34.8862 22.8889 33.8734 22.8889 33.3106 22.7778C32.0727 22.4445 30.9473 21.5556 30.4971 20.4445C29.9344 19.2223 30.1595 17.6667 30.8347 16.5556C31.8476 15.1111 33.5357 14.5556 35.3364 14.8889ZM80.2409 15C81.8165 15.2223 83.0545 16.4445 83.3921 18C83.5046 18.5556 83.5046 19.4445 83.3921 20C83.0545 21.4445 81.929 22.4445 80.5785 22.8889C80.1284 23 78.8904 23 78.4402 22.8889C77.3148 22.5556 76.4145 21.7778 75.8517 20.7778C75.5141 20.1111 75.5141 19.7778 75.5141 19C75.5141 18.3334 75.6267 18 75.8517 17.4445C76.1894 16.7778 76.6395 16.1111 77.3148 15.6667C77.99 15 79.1155 14.7778 80.2409 15ZM103.087 15C104.438 15.2223 105.563 16.1111 106.013 17.3334C106.238 17.8889 106.351 18.2223 106.351 18.8889C106.351 19.6667 106.238 20 106.013 20.6667C105.563 21.6667 104.55 22.4445 103.425 22.7778C102.974 22.8889 101.737 22.8889 101.286 22.7778C99.9358 22.4445 98.8104 21.3334 98.4728 19.8889C98.3603 19.3334 98.3603 18.3334 98.4728 17.7778C98.923 16 100.499 14.7778 102.299 14.7778C102.524 14.8889 102.862 14.8889 103.087 15ZM118.393 19.8889C116.255 20.1112 114.679 21.6667 114.229 23.6667C114.116 24.2223 114.116 25.2223 114.229 25.7778C114.679 27.5556 116.029 28.7778 117.83 29.2223C118.055 29.2223 118.505 29.3334 118.843 29.3334C120.194 29.3334 121.319 28.8889 122.219 28.0001C123.232 27.0001 123.57 26 123.57 24.6667C123.57 23 122.782 21.5556 121.431 20.7778C120.531 20 119.293 19.7778 118.393 19.8889ZM59.0829 30.7778C57.6198 31.2223 56.9446 32.889 57.7324 34.1112C57.9575 34.4445 58.4076 34.889 58.7453 35.0001C59.0829 35.1112 59.0829 35.1112 59.7581 35.1112C60.3209 35.1112 60.4334 35.1112 60.771 35.0001C61.2212 34.7778 61.6714 34.3334 61.8965 33.889C62.4592 32.7778 61.8965 31.4445 60.771 30.8889C60.4334 30.6667 60.3209 30.6667 59.8707 30.6667C59.4205 30.6667 59.308 30.6667 59.0829 30.7778ZM53.0056 30.8889C51.0924 31.2223 49.8544 32.4445 49.2917 34.4445C49.1791 34.7778 49.1792 35.1112 49.1792 35.5556V36.3334H48.3914H47.6036V38.0001V39.6667H48.3914H49.1792V43.6668V47.6668H51.3175H53.4558V43.6668V39.6667H54.9188H56.3819V38.0001V36.3334H54.9188H53.4558V36.0001C53.5683 35.2223 53.9059 34.6667 54.5812 34.5556C55.0314 34.4445 55.7066 34.4445 56.1568 34.6667C56.3819 34.7778 56.4944 34.7778 56.4944 34.7778C56.4944 34.7778 56.4944 34.0001 56.4944 33.0001V31.2223L56.1568 31.1112C55.7066 30.8889 55.1439 30.8889 54.3561 30.8889C53.7934 30.7778 53.3432 30.8889 53.0056 30.8889ZM70.1121 36.1112C69.2117 36.3334 68.5365 36.7778 68.0863 37.3334L67.8612 37.6667V37.0001V36.3334H65.7229H63.5846V42.0001V47.6668H65.7229H67.8612V44.5556C67.8612 42.7779 67.8612 41.3334 67.8612 41.1112C67.9738 40.6667 68.1988 40.2223 68.4239 40.0001C68.9866 39.5556 69.9995 39.6667 70.4497 40.2223C70.7873 40.6667 70.7873 40.6667 70.7873 44.2223V47.5556H72.9256H75.0639V43.7779C75.0639 39.7779 75.0639 39.3334 74.8389 38.5556C74.6138 37.889 74.3887 37.3334 73.826 36.889C73.3758 36.4445 72.9256 36.1112 72.2504 36.0001C71.6877 36.0001 70.5622 36.0001 70.1121 36.1112ZM80.8036 36.0001C80.1284 36.1112 79.1155 36.4445 78.5528 36.889C77.3148 37.7778 76.527 39.1112 76.1894 40.7779C76.0768 41.4445 76.0768 42.6667 76.1894 43.3334C76.4144 44.3334 76.7521 45.3334 77.3148 46.0001C78.1026 47.0001 79.1155 47.6668 80.3534 47.889C81.0287 48.0001 82.1541 48.0001 82.7168 47.7779C83.3921 47.5556 83.8423 47.3334 84.405 46.889L84.8551 46.4445V47.0001V47.5556H86.9935H89.1318V41.889V36.2223H86.9935H84.8551V36.7778V37.3334L84.5175 37.2223C83.9548 36.6667 83.167 36.2223 82.2667 36.1112C81.929 36.0001 81.1412 36.0001 80.8036 36.0001ZM97.1223 36.1112C96.3345 36.2223 95.5467 36.7778 95.0965 37.3334L94.8714 37.5556V36.889V36.2223H92.7331H90.5948V41.889V47.5556H92.7331H94.8714V44.3334C94.8714 40.889 94.8714 40.889 95.0965 40.3334C95.3216 39.889 95.7718 39.6667 96.2219 39.6667C96.6721 39.6667 96.8972 39.7779 97.2348 40.0001C97.685 40.4445 97.685 40.3334 97.685 44.1112V47.4445H99.8233H101.962V43.3334C101.962 39.2223 101.962 39.2223 101.849 38.7779C101.737 38.5556 101.624 38.1112 101.511 37.7778C101.286 37.3334 101.174 37.2223 100.836 36.889C100.386 36.4445 100.048 36.2223 99.5982 36.0001C98.8104 36.0001 97.9101 35.889 97.1223 36.1112ZM108.264 36.1112C106.351 36.4445 104.888 37.3334 103.987 38.889C103.762 39.3334 103.537 39.889 103.312 40.4445C103.2 41.0001 103.2 41.1112 103.2 42.0001C103.2 43.0001 103.2 43.3334 103.537 44.1112C104.212 46.0001 105.788 47.4445 107.926 47.889C108.264 48.0001 108.602 48.0001 109.389 48.0001C110.515 48.0001 110.965 47.889 111.753 47.5556L112.203 47.3334V45.4445V43.5556L111.865 43.7779C111.303 44.1112 110.965 44.2223 110.29 44.2223C109.615 44.2223 109.277 44.2223 108.827 44.0001C108.377 43.7779 108.039 43.4445 107.814 43.0001C107.701 42.6667 107.701 42.6667 107.701 42.1112C107.701 41.6667 107.701 41.5556 107.814 41.2223C108.151 40.3334 108.939 39.889 110.065 39.7779C110.852 39.7779 111.19 39.7779 112.316 40.3334C112.316 40.3334 112.316 39.4445 112.316 38.4445V36.5556L111.978 36.4445C110.74 36.0001 109.389 35.889 108.264 36.1112ZM117.943 36.1112C114.679 36.6667 112.653 39.4445 112.878 42.6667C112.991 43.7779 113.328 44.7779 113.891 45.5556C114.679 46.7779 115.917 47.5556 117.492 47.889C118.168 48.0001 119.968 48.0001 120.756 47.889C121.882 47.6668 122.895 47.1112 123.682 46.3334C124.02 46.0001 124.583 45.2223 124.583 45.2223C124.583 45.2223 123.795 44.889 122.782 44.5556L120.981 43.889L120.756 44.1112C120.419 44.4445 120.194 44.5556 119.743 44.6667C118.505 45.0001 117.267 44.3334 117.042 43.2223V43.0001H120.981H124.92V42.0001C124.92 41.3334 124.92 40.889 124.808 40.6667C124.583 39.3334 124.02 38.4445 123.232 37.5556C122.444 36.7779 121.544 36.3334 120.306 36.1112C119.856 36.0001 118.505 36.0001 117.943 36.1112ZM57.6198 42.0001V47.6668H59.7581H61.8965V42.0001V36.3334H59.7581H57.6198V42.0001ZM119.631 39.2223C119.968 39.3334 120.081 39.4445 120.419 39.6667C120.644 39.889 120.869 40.1112 120.869 40.4445V40.6667H118.956C116.817 40.6667 116.93 40.6667 117.155 40.2223C117.492 39.4445 118.505 39.0001 119.631 39.2223ZM83.2795 39.7779C83.8423 39.889 84.5175 40.4445 84.7426 41.0001C85.3053 42.2223 84.7426 43.6667 83.3921 44.1112C82.9419 44.2223 82.2667 44.2223 81.8165 44.1112C81.1412 43.889 80.466 43.3334 80.3534 42.6667C80.2409 42.3334 80.2409 42.2223 80.2409 41.889C80.2409 41.4445 80.2409 41.3334 80.466 41.0001C80.9162 40.0001 82.0416 39.5556 83.2795 39.7779Z" fill="#F0F2F4"/>
</svg>
