<svg width="217" height="48" viewBox="0 0 217 48" fill="none" xmlns="http://www.w3.org/2000/svg">
<g opacity="0.5">
<path d="M16.0527 35.7374C16.8314 36.0382 17.4485 36.227 17.9936 36.5809C19.4134 37.4952 20.1323 38.7871 20.1802 40.4329C20.2042 41.2292 20.2761 42.0314 20.0364 42.8219C19.3835 45.0103 17.73 46.1193 15.6693 46.7977C14.549 47.1693 13.3868 47.2696 12.2246 47.2814C9.30719 47.3109 6.39574 47.2932 3.4783 47.2932C2.60366 47.2932 2.50781 47.1988 2.50781 46.3494C2.50781 39.5834 2.50781 32.8234 2.50781 26.0575C2.50781 25.2257 2.60965 25.1196 3.4124 25.1196C6.37777 25.1196 9.33714 25.096 12.3025 25.1372C13.9619 25.1608 15.6034 25.385 17.101 26.1931C18.7065 27.0603 19.5152 28.3875 19.6231 30.1925C19.7309 31.9917 19.3056 33.5548 17.8498 34.7464C17.3646 35.1416 16.7835 35.3776 16.0586 35.7433L16.0527 35.7374ZM10.3316 43.282C10.679 43.282 11.0325 43.2879 11.38 43.282C12.003 43.2643 12.62 43.2938 13.243 43.0755C14.7886 42.5328 15.2619 41.7896 15.0882 39.9963C14.9923 38.9876 13.938 38.0379 12.6799 37.9731C11.1883 37.8964 9.69658 37.9318 8.20491 37.9141C7.76161 37.9141 7.57589 38.1323 7.58189 38.5511C7.58189 39.902 7.59387 41.2587 7.58189 42.6095C7.57589 43.1227 7.82151 43.2938 8.31274 43.282C8.98969 43.2643 9.66663 43.282 10.3436 43.282H10.3316ZM7.58189 31.6082C7.58189 32.2276 7.59986 32.847 7.58189 33.4605C7.56391 33.9619 7.79156 34.1683 8.28878 34.1624C9.1754 34.1506 10.062 34.1919 10.9426 34.1388C11.7034 34.0916 12.4762 34.0916 13.2071 33.7908C14.1536 33.4015 14.7467 32.5108 14.6748 31.5139C14.5969 30.4108 13.938 29.6557 12.9315 29.3726C11.35 28.9302 9.73852 29.1956 8.14501 29.1248C7.7676 29.1071 7.59387 29.3136 7.59986 29.6734C7.59986 30.3164 7.59986 30.9535 7.59986 31.5964L7.58189 31.6082Z" fill="#F0F2F4"/>
<path d="M56.1536 8.19589C56.9264 7.47033 57.5195 6.85686 58.2863 6.45574C61.2637 4.88076 64.9539 6.1667 66.3317 9.33436C67.2363 11.4107 67.5119 13.5874 67.1764 15.8525C66.9248 17.5396 66.4635 19.1264 65.3553 20.4654C64.3608 21.6688 63.0189 22.2586 61.4733 22.3825C59.5324 22.5359 57.7771 22.064 56.3394 20.7485C56.1117 20.8075 56.1596 20.9668 56.1536 21.0907C56.1257 21.7749 55.7702 22.1171 55.0873 22.1171C53.9431 22.1171 52.7989 22.1112 51.6607 22.1171C51.1934 22.1171 51.0137 21.9519 51.0137 21.4623C51.0376 14.7436 51.0376 8.03072 51.0436 1.31198C51.0436 1.08192 51.0496 0.851871 51.0436 0.621817C51.0316 0.185306 51.2533 0.0142403 51.6906 0.0201391C52.9007 0.0319367 54.1168 0.0437343 55.3269 0.0142403C55.938 -0.00345611 56.1536 0.220699 56.1477 0.810579C56.1297 2.94005 56.1417 5.07542 56.1417 7.20489C56.1417 7.45264 56.1417 7.70629 56.1417 8.18999L56.1536 8.19589ZM56.1536 14.3306C56.1536 14.8792 56.1536 15.4337 56.1536 15.9823C56.1536 17.3862 56.3693 17.7048 57.6932 18.2416C59.6642 19.0438 61.5153 18.1649 61.8567 16.2655C62.0844 14.9972 62.2162 13.7526 61.9107 12.4548C61.6111 11.1807 61.042 10.4197 59.76 10.1484C58.5379 9.89474 57.5315 10.3725 56.6089 11.104C56.2974 11.3517 56.1477 11.6526 56.1596 12.0596C56.1776 12.8147 56.1596 13.5697 56.1596 14.3306H56.1536Z" fill="#F0F2F4"/>
<path d="M18.7732 22.123C18.1921 22.123 17.605 22.0994 17.0239 22.1289C16.4488 22.1584 16.1313 21.9637 15.9576 21.3915C15.5981 20.2059 15.1548 19.0497 14.7774 17.8699C14.6456 17.4511 14.412 17.28 13.9687 17.28C11.9379 17.2918 9.90703 17.2977 7.8762 17.28C7.39096 17.28 7.15133 17.4806 7.01355 17.8994C6.64812 18.9848 6.23476 20.0584 5.89929 21.1556C5.67763 21.8811 5.30621 22.1938 4.49748 22.1407C3.45511 22.0699 2.40075 22.123 1.3464 22.1171C0.807242 22.1171 0.699411 21.8398 0.87913 21.3974C2.07726 18.4657 3.05972 15.4573 4.13804 12.4843C5.54584 8.6029 6.94166 4.71559 8.31352 0.822373C8.53517 0.208897 8.85867 -0.0270551 9.53561 0.00243895C10.6738 0.061427 11.824 0.031933 12.9623 0.0142366C13.3936 0.00833776 13.6152 0.14401 13.765 0.580522C15.4783 5.39985 17.2156 10.2133 18.9469 15.0267C19.7077 17.1444 20.4446 19.2679 21.2353 21.3679C21.457 21.9519 21.3012 22.1289 20.7261 22.123C20.0731 22.1171 19.4202 22.123 18.7672 22.123H18.7732ZM10.9913 6.72708C10.9254 6.82736 10.8715 6.87455 10.8535 6.93354C10.1646 8.87424 9.48169 10.8209 8.79277 12.7616C8.63701 13.1981 8.75682 13.4222 9.24806 13.4222C10.4342 13.434 11.6204 13.4399 12.8125 13.4635C13.1899 13.4694 13.2678 13.2925 13.1599 12.9916C12.4471 10.9152 11.7282 8.84475 10.9913 6.72708Z" fill="#F0F2F4"/>
<path d="M184.259 33.9324C184.259 35.584 184.169 37.2416 184.283 38.8815C184.409 40.6511 183.055 42.6272 180.665 42.7157C179.281 42.7629 177.855 42.9399 176.561 42.1966C176.327 42.0609 176.124 42.1553 175.902 42.2556C174.201 43.0224 172.434 42.9458 170.726 42.3913C169.486 41.9902 168.923 40.9284 168.845 39.6601C168.743 38.038 168.911 36.404 168.725 34.7818C168.528 33.0358 167.545 31.7911 166.065 30.9653C163.573 29.5673 160.051 31.2071 159.434 33.9914C158.907 36.3686 159.763 38.3447 161.812 39.4242C162.741 39.9138 163.765 39.9669 164.801 39.9669C166.85 39.961 166.635 39.6896 166.641 41.7424C166.641 42.6685 166.563 42.7334 165.586 42.7511C163.873 42.7806 162.196 42.7098 160.608 41.9194C157.816 40.5331 156.097 37.4599 156.415 34.3512C156.726 31.3428 159.182 28.4819 162.106 27.7917C164.262 27.2844 166.317 27.5735 168.21 28.7591C168.36 28.8535 168.498 29.0659 168.695 28.9538C168.887 28.8476 168.785 28.6235 168.779 28.4465C168.743 27.6325 168.881 27.485 169.714 27.4673C171.004 27.4437 171.649 28.0532 171.649 29.2959C171.649 32.3928 171.649 35.4897 171.649 38.5806C171.649 39.8253 171.787 39.9492 173.057 39.9551C174.263 39.9551 174.866 39.3691 174.866 38.1972C174.866 35.0355 174.866 31.8678 174.866 28.706C174.866 27.5617 174.95 27.4791 176.076 27.4732C177.162 27.4693 177.705 28.0041 177.705 29.0777C177.705 32.2866 177.705 35.4956 177.705 38.7104C177.705 39.7958 177.873 39.9551 178.951 39.961C179.467 39.961 179.976 39.9492 180.491 39.961C181.054 39.9787 181.3 39.7073 181.294 39.1705C181.294 38.4568 181.294 37.7489 181.294 37.0352C181.294 34.2155 181.294 31.3959 181.294 28.5763C181.294 27.5971 181.419 27.4732 182.432 27.4791C184.313 27.485 184.247 27.2549 184.241 29.2664C184.241 30.8237 184.241 32.3869 184.241 33.9442L184.259 33.9324Z" fill="#F0F2F4"/>
<path d="M211.455 30.5229C211.455 33.3661 211.455 36.2093 211.455 39.0584C211.455 41.1702 209.909 42.7275 207.765 42.7334C202.301 42.7452 196.844 42.7393 191.38 42.7098C190.835 42.7098 190.799 42.9753 190.793 43.3292C190.763 44.9396 190.122 46.2963 189.098 47.5232C188.6 48.119 188.427 48.1544 187.882 47.6412C187.444 47.2283 186.791 46.9569 186.6 46.4025C186.39 45.7949 187.127 45.4528 187.366 44.9455C187.804 44.0016 187.882 42.9988 187.888 41.9902C187.9 37.566 187.888 33.136 187.894 28.7119C187.894 27.544 187.965 27.4732 189.17 27.4673C190.276 27.4673 190.829 28.0041 190.829 29.0777C190.829 31.6908 190.805 34.3099 190.841 36.9231C190.853 37.8669 190.41 39.0407 191.105 39.7073C191.793 40.368 192.98 39.8489 193.938 39.9492C194.124 39.9669 194.31 39.9492 194.495 39.9492C194.915 39.9492 194.993 39.8253 194.735 39.4655C193.669 37.9908 193.231 36.3332 193.345 34.5341C193.549 31.2838 196.418 28.1044 199.527 27.6973C200.15 27.6148 200.761 27.4673 201.396 27.4555C201.996 27.4437 202.253 27.7209 202.277 28.2695C202.277 28.3167 202.283 28.3639 202.289 28.4052C202.377 29.6675 201.784 30.3184 200.51 30.3577C198.467 30.4167 196.43 32.4577 196.274 34.4574C196.137 36.2565 196.616 37.7548 198.06 38.9169C198.862 39.5657 199.779 39.9315 200.815 39.9433C203.008 39.9669 205.201 39.9551 207.399 39.9492C208.406 39.9492 208.477 39.8784 208.483 38.8992C208.483 33.3248 208.483 27.7504 208.483 22.1761C208.483 20.7898 208.549 20.7309 209.927 20.725C210.934 20.725 211.437 21.2165 211.437 22.1997C211.437 24.978 211.437 27.7504 211.437 30.5288L211.455 30.5229Z" fill="#F0F2F4"/>
<path d="M48.7218 15.9764C48.7218 17.3449 48.7218 18.5424 48.7218 19.734C48.7218 20.3061 48.7218 20.8783 48.9255 21.4328C49.0752 21.8398 48.9674 22.1171 48.4702 22.123C47.1403 22.123 45.8103 22.123 44.4804 22.123C43.8334 22.123 43.8694 21.5921 43.7615 21.1969C43.5039 20.2295 43.5159 20.2236 42.7371 20.8842C40.7842 22.5477 37.4174 22.9016 35.4825 21.7042C32.8047 20.0525 33.0503 16.584 34.5779 14.838C35.6981 13.5638 37.1778 12.9444 38.7534 12.4725C40.0713 12.0773 41.4372 11.9416 42.797 11.747C43.6178 11.629 43.8035 11.1394 43.3302 10.4433C42.9408 9.87116 42.3298 9.70599 41.6828 9.70599C40.0294 9.70599 38.5257 10.2192 37.1479 11.0981C36.2792 11.6526 36.2672 11.6408 35.6622 10.8209C35.2788 10.3018 34.8834 9.79447 34.488 9.28128C34.2125 8.92145 34.2424 8.62651 34.6078 8.33157C36.0396 7.1813 37.6451 6.42035 39.4722 6.06643C40.7003 5.83047 41.9284 5.76559 43.1565 5.83637C45.9541 5.99564 48.0448 7.46444 48.5121 10.3903C48.8176 12.3133 48.6199 14.2363 48.7278 15.9705L48.7218 15.9764ZM43.5399 16.1062C43.5399 15.7405 43.5399 15.3747 43.5399 15.0031C43.5399 14.7731 43.462 14.5902 43.1685 14.6433C42.0243 14.8439 40.8561 14.9618 39.7957 15.4809C39.3584 15.6992 38.957 15.9705 38.7054 16.4129C38.2202 17.2565 38.5197 18.0705 39.4303 18.4244C40.263 18.7489 41.0418 18.4598 41.8266 18.2652C43.2583 17.9112 43.5519 17.5219 43.5459 16.1003L43.5399 16.1062Z" fill="#F0F2F4"/>
<path d="M68.4769 33.2304C69.3814 32.3515 70.3639 31.5965 71.592 31.2189C72.9399 30.806 74.3058 30.7529 75.6477 31.2071C77.7204 31.9032 78.4633 33.5667 78.5052 35.5133C78.5831 39.1587 78.5232 42.8042 78.5351 46.4497C78.5351 47.0631 78.2656 47.3109 77.6425 47.2932C76.5223 47.2696 75.402 47.2932 74.2818 47.2873C73.4431 47.2873 73.3532 47.1929 73.3473 46.3789C73.3473 43.4413 73.3473 40.5096 73.3473 37.572C73.3473 37.2534 73.3592 36.929 73.3233 36.6104C73.2274 35.702 72.6823 35.2301 71.7597 35.177C70.5616 35.1063 69.6031 35.6548 68.6746 36.2919C68.2912 36.5574 68.3091 36.9526 68.3091 37.3478C68.3091 40.2854 68.3091 43.2171 68.3091 46.1547C68.3091 47.2283 68.2432 47.2873 67.1649 47.2932C66.0686 47.2932 64.9723 47.2814 63.876 47.2932C63.3429 47.2932 63.1152 47.069 63.1152 46.5499C63.1212 41.6893 63.1212 36.8287 63.1152 31.9681C63.1152 31.4018 63.3908 31.1894 63.93 31.1894C65.0981 31.1894 66.2603 31.2012 67.4285 31.1894C68.0156 31.1835 68.2971 31.4372 68.2971 32.0094C68.2971 32.3928 68.2971 32.7821 68.2971 33.1655C68.357 33.1891 68.411 33.2186 68.4709 33.2422L68.4769 33.2304Z" fill="#F0F2F4"/>
<path d="M37.7818 39.2472C37.7818 41.5595 37.7818 43.8778 37.7818 46.1901C37.7818 47.1693 37.662 47.2814 36.6436 47.2873C35.5952 47.2873 34.5468 47.2637 33.4985 47.2932C32.8335 47.3109 32.5699 47.0513 32.5879 46.4025C32.5999 46.0603 32.7916 45.5471 32.4321 45.3997C32.1506 45.2817 31.9169 45.7772 31.6533 45.9895C29.7663 47.5114 27.6456 47.9598 25.3033 47.3463C23.578 46.898 22.4517 45.4174 22.4098 43.3292C22.3379 39.5245 22.3858 35.7197 22.3738 31.915C22.3738 31.4313 22.6015 31.1835 23.0867 31.1835C24.2968 31.1776 25.5129 31.1835 26.723 31.1835C27.394 31.1835 27.5797 31.567 27.5797 32.1686C27.5677 35.2183 27.5677 38.268 27.5797 41.3118C27.5797 43.341 28.3585 43.8837 30.3594 43.3115C31.0962 43.0991 31.6953 42.6803 32.2943 42.2379C32.6238 41.9961 32.6059 41.648 32.6059 41.3C32.6059 38.2975 32.6059 35.295 32.6059 32.2925C32.6059 31.2425 32.6777 31.1717 33.768 31.1717C34.7265 31.1717 35.6791 31.1717 36.6376 31.1717C37.614 31.1776 37.7878 31.3428 37.7878 32.2925C37.7938 34.6049 37.7878 36.9231 37.7878 39.2354L37.7818 39.2472Z" fill="#F0F2F4"/>
<path d="M90.8827 14.7908C90.9306 17.2919 90.7389 19.4272 91.2182 21.5331C91.32 21.9755 91.1044 22.123 90.697 22.123C89.415 22.123 88.133 22.123 86.851 22.123C86.3059 22.123 86.1381 21.8103 86.0782 21.3443C85.9285 20.2 85.9225 20.2 85.0059 20.8901C83.1548 22.2881 81.106 22.7718 78.8355 22.1525C76.8227 21.6039 75.5826 19.7222 75.7683 17.634C75.996 14.9913 77.7093 13.6523 80.0217 12.8206C81.4235 12.3133 82.8613 11.9534 84.3649 11.8767C84.5985 11.865 84.8262 11.8119 85.0538 11.7647C85.3414 11.7057 85.7008 11.7116 85.7847 11.3459C85.8745 10.9506 85.8027 10.5672 85.4851 10.2664C84.7363 9.56442 83.8198 9.6411 82.9152 9.78267C81.5852 9.98913 80.3452 10.4492 79.2549 11.2338C78.7696 11.5818 78.4342 11.5228 78.0987 11.0391C77.6554 10.3961 77.1761 9.77088 76.6909 9.1574C76.4752 8.88016 76.4872 8.69139 76.7628 8.46134C78.2245 7.22259 79.8899 6.44395 81.7949 6.07822C83.047 5.83637 84.299 5.75969 85.551 5.85407C87.7316 6.01923 89.5288 6.85097 90.4095 8.97454C90.691 9.647 90.8887 10.3608 90.8887 11.1099C90.8887 12.4607 90.8887 13.8175 90.8887 14.7967L90.8827 14.7908ZM85.8266 16.1062C85.8266 15.1742 85.3653 14.7416 84.4428 14.8085C84.4428 14.8085 84.3949 14.8085 84.3709 14.8085C83.3645 14.9972 82.364 15.2155 81.5193 15.829C80.8963 16.2832 80.6387 17.0264 80.8604 17.6399C81.07 18.2239 81.8009 18.6368 82.5737 18.5542C83.0829 18.5011 83.5861 18.3949 84.0773 18.2711C85.5331 17.9112 85.8206 17.5396 85.8206 16.1003L85.8266 16.1062Z" fill="#F0F2F4"/>
<path d="M93.248 14.077C93.248 11.7411 93.248 9.39925 93.248 7.06333C93.248 6.208 93.3439 6.11952 94.2125 6.11362C95.3328 6.11362 96.453 6.13132 97.5733 6.10772C98.2023 6.09002 98.4599 6.32598 98.4539 6.95125C98.4539 7.31698 98.2323 7.85967 98.6216 8.01893C98.9332 8.14281 99.1848 7.62371 99.4723 7.39956C101.533 5.77149 103.81 5.31728 106.272 6.31418C107.967 6.99844 108.602 8.45545 108.626 10.1366C108.68 13.9177 108.644 17.6989 108.656 21.4859C108.656 21.9578 108.434 22.1348 107.973 22.1348C106.763 22.123 105.547 22.1112 104.337 22.1348C103.696 22.1466 103.474 21.887 103.48 21.2736C103.498 18.2947 103.408 15.3099 103.51 12.3369C103.582 10.231 102.42 9.79447 100.82 10.2192C100.029 10.4256 99.3825 10.8445 98.7475 11.3164C98.418 11.5641 98.4539 11.918 98.4539 12.2602C98.4539 15.2155 98.4539 18.1767 98.4539 21.132C98.4539 22.1112 98.43 22.1289 97.4295 22.1348C96.3572 22.1348 95.2849 22.1348 94.2125 22.1348C93.3499 22.1348 93.266 22.0463 93.26 21.1733C93.26 18.8138 93.26 16.4483 93.26 14.0888L93.248 14.077Z" fill="#F0F2F4"/>
<path d="M90.4701 40.6865C89.0024 40.6865 87.5287 40.6865 86.061 40.6865C85.3002 40.6865 85.1445 40.8871 85.3541 41.6067C85.7435 42.9222 86.6062 43.7303 88.014 43.9073C89.8471 44.1314 91.4766 43.5769 92.9263 42.5151C93.3756 42.1848 93.6332 42.1848 93.9208 42.6508C94.3221 43.2938 94.7295 43.9368 95.1788 44.5502C95.5382 45.0339 95.3645 45.3112 94.9392 45.6179C93.1899 46.8862 91.213 47.4701 89.0683 47.5763C86.3246 47.712 83.8325 47.1398 81.9215 45.0221C80.7174 43.6949 80.2501 42.0845 80.1183 40.3562C79.9086 37.566 80.3999 35.0178 82.6104 33.0122C85.3961 30.4816 90.0628 30.1866 92.9383 32.381C94.4 33.4959 95.1069 35.0532 95.4783 36.7638C95.7 37.7902 95.8138 38.8461 95.8018 39.9079C95.7958 40.4624 95.5921 40.6983 95.023 40.6865C93.5074 40.6688 91.9918 40.6806 90.4761 40.6865H90.4701ZM88.0739 37.5071C88.8646 37.5071 89.6554 37.5071 90.4462 37.5071C90.8116 37.5071 91.0512 37.3596 90.9793 36.9703C90.8116 36.1149 90.4582 35.354 89.6135 34.9352C87.8462 34.0504 85.7675 35.0885 85.3781 37.0352C85.2942 37.4599 85.5399 37.5071 85.8454 37.5071C86.5882 37.5071 87.331 37.5071 88.0739 37.5071Z" fill="#F0F2F4"/>
<path d="M46.1072 30.8827C48.5693 30.9535 50.7499 31.3841 52.6669 32.7467C53.2121 33.1301 53.278 33.4664 52.8527 33.9796C52.4153 34.5104 52.02 35.0885 51.6485 35.6666C51.4089 36.0323 51.1873 36.109 50.8039 35.8554C49.7255 35.1475 48.5454 34.7051 47.2634 34.4692C46.5565 34.3394 45.9215 34.4397 45.2745 34.6461C44.8252 34.7877 44.6035 35.1416 44.5736 35.584C44.5496 36.0028 44.7293 36.345 45.1247 36.5455C45.8136 36.8995 46.5625 37.0705 47.3233 37.1944C48.5154 37.3891 49.7076 37.6014 50.8398 38.0379C52.649 38.734 53.8112 39.9609 53.8711 41.9253C53.931 43.866 53.1821 45.4763 51.4149 46.4791C49.5997 47.5114 47.6108 47.7179 45.5441 47.5586C43.3635 47.3934 41.3386 46.8213 39.5594 45.5235C39.1101 45.1932 38.9963 44.9336 39.3737 44.4735C39.811 43.9426 40.2064 43.3705 40.5778 42.7865C40.8893 42.3028 41.2009 42.2792 41.6621 42.6036C43.2856 43.7421 45.0828 44.3497 47.1016 44.2199C47.3772 44.2022 47.6648 44.1786 47.9283 44.096C48.5274 43.9072 48.9647 43.5474 48.9767 42.875C48.9887 42.2143 48.6173 41.8309 47.9883 41.6244C46.6823 41.182 45.3044 41.0581 43.9865 40.6865C42.411 40.2441 40.9013 39.6719 40.1585 38.0792C38.9124 35.4012 40.2723 32.4341 43.1718 31.39C44.1722 31.0302 45.2086 30.9417 46.0952 30.8827H46.1072Z" fill="#F0F2F4"/>
<path d="M103.463 30.8886C105.811 30.9417 107.974 31.3841 109.891 32.6819C110.55 33.1302 110.61 33.3071 110.161 33.9501C109.795 34.481 109.388 34.9883 109.046 35.5369C108.747 36.0147 108.411 36.0796 107.95 35.7787C106.884 35.0886 105.71 34.6874 104.458 34.4456C103.751 34.3099 103.11 34.4633 102.475 34.6933C102.079 34.8349 101.84 35.1711 101.822 35.5959C101.804 36.0265 102.043 36.3332 102.415 36.5397C103.116 36.9349 103.9 37.0647 104.679 37.2062C105.871 37.4186 107.063 37.6251 108.196 38.0675C109.921 38.7458 111.017 39.9079 111.125 41.8014C111.233 43.6123 110.67 45.1637 109.112 46.2255C107.369 47.4171 105.38 47.6884 103.313 47.594C101.013 47.4879 98.8563 46.9452 96.9453 45.5943C96.4001 45.2109 96.3163 44.9042 96.7476 44.391C97.1609 43.8955 97.5204 43.3587 97.8738 42.816C98.1913 42.3264 98.4909 42.2615 99.0001 42.6213C100.6 43.7598 102.397 44.3025 104.38 44.2199C104.757 44.2022 105.117 44.1491 105.47 43.9958C105.991 43.7716 106.267 43.4295 106.273 42.8337C106.273 42.2261 105.961 41.9017 105.452 41.6834C104.655 41.3413 103.799 41.2292 102.954 41.0582C101.882 40.8399 100.815 40.598 99.8028 40.1733C97.1849 39.0703 96.2144 36.0088 97.6761 33.6021C98.5867 32.1038 100.006 31.3959 101.654 31.0656C102.265 30.9417 102.894 30.8296 103.457 30.8827L103.463 30.8886Z" fill="#F0F2F4"/>
<path d="M118.48 30.8945C121.068 30.9181 123.183 31.4254 125.082 32.6995C125.621 33.0594 125.741 33.4074 125.333 33.9383C124.926 34.4692 124.531 35.0119 124.183 35.5781C123.89 36.056 123.548 36.0795 123.141 35.7964C122.128 35.0944 120.996 34.7287 119.792 34.481C119.091 34.3335 118.45 34.4161 117.809 34.6461C117.36 34.8054 117.042 35.1239 116.989 35.5899C116.935 36.0265 117.234 36.3214 117.588 36.5279C118.3 36.9408 119.109 37.0705 119.918 37.2121C121.314 37.4599 122.698 37.7194 123.998 38.3506C127.286 39.961 126.855 44.4264 124.423 46.137C122.494 47.4937 120.313 47.7297 118.031 47.5704C115.916 47.423 113.957 46.8508 112.208 45.6592C111.483 45.1637 111.471 45.0398 111.968 44.3497C112.322 43.866 112.693 43.3941 113.011 42.8868C113.364 42.3264 113.7 42.3028 114.251 42.6803C115.82 43.748 117.564 44.3438 119.505 44.2435C119.93 44.2199 120.331 44.1432 120.721 43.9721C121.23 43.748 121.493 43.3882 121.481 42.8455C121.464 42.2851 121.164 41.8899 120.643 41.6834C119.858 41.3767 119.031 41.241 118.211 41.0817C117.204 40.8871 116.186 40.7042 115.251 40.2972C112.795 39.2413 112.28 37.9436 112.196 36.0383C112.106 33.9973 113.514 32.2394 115.587 31.4313C116.629 31.0302 117.713 30.9594 118.486 30.9004L118.48 30.8945Z" fill="#F0F2F4"/>
<path d="M135.483 47.2873C134.878 47.2873 134.273 47.2932 133.662 47.2873C132.901 47.2755 132.811 47.1339 133.183 46.4968C134.764 43.8011 136.358 41.1053 137.951 38.4155C140.39 34.2981 142.846 30.1925 145.254 26.0634C145.667 25.3555 146.147 25.0547 146.979 25.1019C148.046 25.1668 149.124 25.1078 150.196 25.1196C150.945 25.1255 151.047 25.3083 150.676 25.9218C146.596 32.8057 142.516 39.6896 138.455 46.5912C138.155 47.0985 137.808 47.3227 137.233 47.2991C136.651 47.2755 136.064 47.2991 135.483 47.2991V47.2873Z" fill="#F0F2F4"/>
<path d="M27.729 8.2844C28.0885 8.21361 28.1604 7.99535 28.2922 7.84199C29.4184 6.54425 30.8861 5.95437 32.5815 5.82459C33.1206 5.7833 33.3483 6.01335 33.3363 6.54425C33.3123 7.50575 33.2944 8.47316 33.3183 9.43466C33.3363 10.113 33.0248 10.3136 32.3778 10.2723C30.94 10.172 29.664 10.5849 28.5617 11.4933C28.0166 11.9417 27.7051 12.449 27.7171 13.204C27.759 15.888 27.7171 18.5719 27.741 21.25C27.747 21.8988 27.5314 22.1584 26.8544 22.1348C25.7102 22.0935 24.566 22.0994 23.4278 22.1348C22.7508 22.1525 22.5352 21.8694 22.5352 21.2323C22.5531 16.5073 22.5352 11.7824 22.5471 7.06334C22.5471 6.2847 22.7089 6.12543 23.4877 6.11953C24.6319 6.10774 25.7761 6.13723 26.9143 6.10774C27.5254 6.09594 27.759 6.35549 27.735 6.93357C27.7171 7.36418 27.735 7.80069 27.735 8.2844H27.729Z" fill="#F0F2F4"/>
<path d="M69.0215 14.1065C69.0215 11.747 69.0215 9.38745 69.0215 7.02793C69.0215 6.21389 69.1173 6.11951 69.95 6.11361C71.1122 6.10772 72.2804 6.12541 73.4426 6.11361C73.9817 6.10772 74.1974 6.33777 74.1974 6.85686C74.1914 11.7116 74.1914 16.5663 74.1974 21.4269C74.1974 21.9696 73.9338 22.1466 73.4186 22.1348C72.2744 22.1171 71.1362 22.1348 69.992 22.1289C69.1113 22.1289 69.0215 22.0463 69.0215 21.191C69.0215 18.8314 69.0215 16.4719 69.0215 14.1124V14.1065Z" fill="#F0F2F4"/>
<path d="M60.522 39.3062C60.522 41.6657 60.522 44.0253 60.522 46.3848C60.522 47.2165 60.4561 47.2814 59.5994 47.2873C58.5031 47.2873 57.4068 47.2696 56.3105 47.2932C55.6995 47.305 55.4179 47.0867 55.4239 46.4556C55.4359 41.6657 55.4359 36.8759 55.4239 32.092C55.4239 31.4313 55.7414 31.1836 56.3585 31.1836C57.4787 31.1836 58.599 31.1953 59.7132 31.1777C60.3243 31.1659 60.522 31.449 60.522 32.0212C60.51 34.4515 60.516 36.8759 60.516 39.3062H60.522Z" fill="#F0F2F4"/>
<path d="M216.794 31.7911C216.794 35.1417 216.794 38.4863 216.794 41.8368C216.794 42.6862 216.746 42.7393 215.884 42.7334C213.709 42.7275 213.943 42.9517 213.943 40.8163C213.943 34.5577 213.943 28.2931 213.943 22.0345C213.943 20.8193 214.033 20.725 215.237 20.725C216.974 20.725 216.794 20.6247 216.794 22.2292C216.794 25.4145 216.794 28.6058 216.794 31.7911Z" fill="#F0F2F4"/>
<path d="M71.647 4.32629C71.0659 4.32629 70.4788 4.31449 69.8977 4.32629C69.2926 4.33809 68.9871 4.11393 69.0111 3.47686C69.041 2.62743 69.029 1.778 69.0111 0.934474C68.9991 0.338694 69.2387 0.0496526 69.8797 0.0614502C71.0479 0.0850454 72.2101 0.0850454 73.3783 0.0614502C73.9893 0.0496526 74.2169 0.332795 74.211 0.899081C74.199 1.7957 74.199 2.68642 74.211 3.58304C74.2169 4.10213 73.9953 4.34398 73.4621 4.33219C72.8571 4.32039 72.252 4.33219 71.641 4.33219L71.647 4.32629Z" fill="#F0F2F4"/>
<path d="M57.9582 29.4021C57.3532 29.4021 56.7421 29.3903 56.1371 29.4021C55.6399 29.4139 55.4062 29.2134 55.4122 28.712C55.4242 27.7976 55.4242 26.8774 55.4122 25.9631C55.4062 25.4676 55.6399 25.2553 56.1311 25.2612C57.3652 25.2671 58.6052 25.2671 59.8393 25.2612C60.3485 25.2612 60.6241 25.4617 60.6121 25.9985C60.5941 26.8951 60.6001 27.7858 60.6121 28.6825C60.6181 29.2075 60.3725 29.4257 59.8393 29.408C59.2103 29.3903 58.5813 29.408 57.9523 29.408L57.9582 29.4021Z" fill="#F0F2F4"/>
<path d="M162.429 26.7535C161.722 26.7535 161.129 26.14 161.135 25.4204C161.135 24.7184 161.776 24.0814 162.459 24.0932C163.16 24.105 163.807 24.742 163.801 25.4086C163.801 26.1577 163.196 26.7535 162.429 26.7535Z" fill="#F0F2F4"/>
<path d="M174.9 44.8747C174.912 45.6887 174.439 46.1901 173.654 46.2019C172.863 46.2137 172.228 45.6474 172.234 44.9278C172.234 44.2612 172.965 43.5592 173.642 43.571C174.301 43.5828 174.894 44.1963 174.906 44.8688L174.9 44.8747Z" fill="#F0F2F4"/>
<path d="M180.281 46.2019C179.532 46.1901 178.951 45.612 178.975 44.8924C178.993 44.2376 179.688 43.5651 180.341 43.571C180.976 43.571 181.695 44.2789 181.707 44.9101C181.725 45.6002 181.048 46.2137 180.281 46.2019Z" fill="#F0F2F4"/>
<path d="M165.317 26.7417C164.562 26.6887 164.035 26.0811 164.094 25.3437C164.154 24.6182 164.801 24.0637 165.514 24.1345C166.239 24.1994 166.814 24.86 166.76 25.5443C166.7 26.2521 166.041 26.7948 165.317 26.7417Z" fill="#F0F2F4"/>
<path d="M177.718 44.9513C177.706 45.7477 177.22 46.2137 176.4 46.2019C175.615 46.196 175.106 45.671 175.13 44.8924C175.148 44.1845 175.783 43.5533 176.46 43.571C177.143 43.5946 177.73 44.2317 177.718 44.9455V44.9513Z" fill="#F0F2F4"/>
</g>
</svg>
