<svg width="155" height="48" viewBox="0 0 155 48" fill="none" xmlns="http://www.w3.org/2000/svg">
<g opacity="0.5">
<path fill-rule="evenodd" clip-rule="evenodd" d="M114.32 47.6051V38.0501H111.342V35.7563C113.287 35.9241 114.959 35.1796 115.246 33.6905H117.481V47.6051H114.32ZM125.156 45.6602C125.9 45.6602 126.19 45.5541 126.19 43.7161V37.5951C126.19 36.5017 126.068 35.7571 125.156 35.7571C124.229 35.7571 124.062 36.5017 124.062 37.5951V43.7161C124.062 45.0983 124.411 45.6602 125.156 45.6602ZM120.915 44.3546V36.9567C120.915 35.6502 121.539 33.3564 125.155 33.3564C128.59 33.3564 129.501 35.1796 129.501 37.3063V44.0658C129.501 47.2102 127.389 48 124.972 48C121.995 47.8783 120.915 46.4657 120.915 44.3546ZM136.205 45.6602C136.949 45.6602 137.238 45.5541 137.238 43.7161V37.5951C137.238 36.5017 137.132 35.7571 136.205 35.7571C135.293 35.7571 135.125 36.5017 135.125 37.5951V43.7161C135.125 45.0983 135.46 45.6602 136.205 45.6602ZM131.965 44.3546V36.9567C131.965 35.6502 132.602 33.3564 136.204 33.3564C139.653 33.3564 140.566 35.1796 140.566 37.3063V44.0658C140.566 47.2102 138.439 48 136.037 48C133.058 47.8783 131.965 46.4657 131.965 44.3546ZM147.784 45.6602C148.53 45.6602 148.818 45.5541 148.818 43.7161V37.5951C148.818 36.5017 148.698 35.7571 147.784 35.7571C146.873 35.7571 146.691 36.5017 146.691 37.5951V43.7161C146.691 45.0983 147.04 45.6602 147.784 45.6602ZM143.545 44.3546V36.9567C143.545 35.6502 144.169 33.3564 147.784 33.3564C151.22 33.3564 152.131 35.1796 152.131 37.3063V44.0658C152.131 47.2102 150.019 48 147.617 48C144.64 47.8783 143.545 46.4657 143.545 44.3546ZM143.637 20.0358H154.199V24.759H137.299V0.515891H154.199V5.54354H143.637V20.0358ZM147.268 10.2684H153.469V15.3117H147.268V10.2684ZM110.232 0.515891H119.518L127.45 18.531V0.515891H133.332V24.759H124.136L116.204 6.65256V24.759H110.231L110.232 0.515891ZM85.7484 5.55917L77.3894 5.54354V24.7582H71.3253V5.54354H64.3343V0.515891H91.8413V14.8098C91.8413 18.2274 92.997 20.6429 96.0516 20.6429C99.6241 20.6429 100.52 18.2274 100.52 14.5063V0.515891H106.584V15.6153C106.584 21.3414 103.56 25.4583 96.0516 25.4583C89.79 25.4583 85.7475 21.3422 85.7475 15.8127L85.7484 5.55917ZM50.4586 5.54354V10.8748H52.8597C54.6081 10.8748 56.5227 10.5712 56.5227 8.15568C56.5227 6.34816 55.0641 5.54272 53.133 5.54272L50.4586 5.54354ZM44.2126 0.515891H54.0459C58.453 0.515891 64.061 2.03546 64.061 7.27537C64.061 11.3009 62.6634 12.4404 60.4746 14.1262L65.3534 24.759H58.1945L54.5167 15.6153H50.4586V24.759H44.2126V0.515891ZM23.4365 12.6831C23.4365 16.6174 25.3215 20.6429 29.1969 20.6429C32.6014 20.6429 34.5012 17.9238 34.5012 12.6831C34.5012 8.46008 32.8903 4.73892 28.9088 4.73892C25.0178 4.73892 23.7263 8.76367 23.4365 12.6831ZM16.765 15.7971L10.0473 15.8127V11.0739H16.5369C17.1296 5.17989 19.8345 4.57764e-05 29.196 4.57764e-05C35.1836 4.57764e-05 41.4609 2.43036 41.4609 12.6839C41.4609 17.7272 39.6672 25.2609 29.5154 25.2609C20.7012 25.26 17.5864 20.8256 16.765 15.7971ZM6.55223 24.759H0.199219V0.515891H15.9138V5.54354H6.55223V24.759Z" fill="#F0F2F4"/>
</g>
</svg>
