<svg width="292" height="48" viewBox="0 0 292 48" fill="none" xmlns="http://www.w3.org/2000/svg">
<g opacity="0.5" clip-path="url(#clip0_16331_813)">
<path d="M109.77 18.7437V36.5718H103.16V18.7437H96.474V13.0677H116.436V18.7437H109.77Z" fill="#F0F2F4"/>
<path d="M131.885 29.4819H121.384C121.592 31.4359 122.744 32.292 124.425 32.292C125.992 32.292 127.296 31.957 129.052 31.0451L131.394 34.9159C129.184 36.2 126.899 36.9258 124.104 36.9258C118.721 36.9258 115.756 33.1666 115.756 27.7512C115.756 21.6658 119.231 18.558 123.934 18.558C128.844 18.558 131.904 21.7402 131.904 28.2909C131.904 28.8119 131.904 29.1841 131.885 29.4819ZM123.764 23.0429C122.366 23.0429 121.592 23.992 121.384 25.7227H126.502C126.181 23.9362 125.577 23.0429 123.764 23.0429Z" fill="#F0F2F4"/>
<path d="M143.292 36.9439C138.042 36.9439 134.907 33.65 134.907 27.7135C134.907 22.2981 137.702 18.5761 143.424 18.5761C146.805 18.5761 148.731 20.1208 150.298 22.5958L146.068 25.7595C145.218 24.2149 144.633 23.4705 143.311 23.4705C141.743 23.4705 140.95 25.0151 140.95 27.8066C140.95 30.598 141.8 32.031 143.481 32.031C144.633 32.031 145.464 31.3982 146.578 29.742L150.468 32.7381C148.391 35.7529 146.465 36.9439 143.292 36.9439Z" fill="#F0F2F4"/>
<path d="M164.198 36.572V26.5599C164.198 24.2709 163.424 23.6754 162.159 23.6754C160.855 23.6754 160.081 24.2709 160.081 26.5041V36.572H153.943V14.5008L160.081 12.0816V20.121C161.214 19.2835 162.461 18.5764 164.576 18.5764C168.504 18.5764 170.374 21.1631 170.374 25.7969V36.572H164.198Z" fill="#F0F2F4"/>
<path d="M185.048 36.9442C177.966 36.9442 174.17 31.7707 174.17 24.8293C174.17 17.2737 178.665 12.7143 185.067 12.7143C190.922 12.7143 193.245 15.208 194.888 19.6372L188.901 21.9261C188.051 19.7488 187.239 18.3717 185.048 18.3717C182.291 18.3717 181.101 21.0887 181.101 24.8107C181.101 28.4023 182.253 31.2496 185.124 31.2496C187.201 31.2496 188.089 30.133 189.373 27.9185L194.963 30.8402C193.377 33.948 190.714 36.9442 185.048 36.9442Z" fill="#F0F2F4"/>
<path d="M210.053 25.5924C209.279 24.755 208.391 24.1222 207.201 24.1222C205.709 24.1222 204.784 24.8294 204.784 26.9695V36.5721H198.646V18.9487H204.784V20.2328C205.841 19.2279 207.031 18.5951 208.599 18.5951C209.902 18.5951 210.771 18.8929 211.488 19.3395L210.053 25.5924Z" fill="#F0F2F4"/>
<path d="M224.633 36.572V35.3996C223.537 36.2371 222.253 36.9442 220.176 36.9442C216.247 36.9442 214.378 34.3575 214.378 29.7237V18.9486H220.553V28.9607C220.553 31.2496 221.328 31.8452 222.593 31.8452C223.858 31.8452 224.633 31.2496 224.633 29.0165V18.9486H230.808V36.572H224.633Z" fill="#F0F2F4"/>
<path d="M245.482 36.5718V26.5597C245.482 24.2707 244.708 23.6752 243.443 23.6752C242.14 23.6752 241.365 24.2707 241.365 26.5039V36.5718H235.228V18.9483H241.365V20.1208C242.499 19.2833 243.745 18.5761 245.86 18.5761C249.788 18.5761 251.658 21.1629 251.658 25.7967V36.5718H245.482Z" fill="#F0F2F4"/>
<path d="M263.613 36.9439C258.363 36.9439 255.228 33.65 255.228 27.7135C255.228 22.2981 258.023 18.5761 263.745 18.5761C267.126 18.5761 269.052 20.1208 270.619 22.5958L266.389 25.7595C265.539 24.2149 264.954 23.4705 263.632 23.4705C262.064 23.4705 261.271 25.0151 261.271 27.8066C261.271 30.598 262.121 32.031 263.802 32.031C264.954 32.031 265.785 31.3982 266.899 29.742L270.789 32.7381C268.712 35.7529 266.786 36.9439 263.613 36.9439Z" fill="#F0F2F4"/>
<path d="M284.519 36.572V26.5599C284.519 24.2709 283.745 23.6754 282.48 23.6754C281.177 23.6754 280.402 24.2709 280.402 26.5041V36.572H274.264V14.5008L280.402 12.0816V20.121C281.535 19.2835 282.782 18.5764 284.897 18.5764C288.825 18.5764 290.695 21.1631 290.695 25.7969V36.572H284.519Z" fill="#F0F2F4"/>
<path d="M0.798828 3.00002V16.4362H14.4343V43.2901H28.0509V16.4362H41.6864V3.00002H0.798828Z" fill="#F0F2F4"/>
<path d="M55.3031 29.854V16.4364L41.6864 16.4362L41.6864 43.2902H82.5552V29.854H55.3031Z" fill="#F0F2F4"/>
<path d="M82.5552 3.00002H55.3031L55.3031 16.4364L82.5552 16.4362V3.00002Z" fill="#F0F2F4"/>
</g>
<defs>
<clipPath id="clip0_16331_813">
<rect width="290.401" height="48.0001" fill="white" transform="translate(0.798828)"/>
</clipPath>
</defs>
</svg>
