<svg width="341" height="48" viewBox="0 0 341 48" fill="none" xmlns="http://www.w3.org/2000/svg">
<path fill-rule="evenodd" clip-rule="evenodd" d="M85.5619 47.0715H77.4321L77.9402 44.1429H77.795C75.9077 46.7858 72.2783 48.0001 69.0845 48.0001C60.4465 48.0001 56.672 41.2857 58.1237 33.5C59.7207 24.6429 67.1972 19.0714 74.5286 19.0714C78.9564 19.0714 81.0614 21.2143 81.7873 22.8571H81.9325L82.4406 20H90.5704L85.5619 47.0715ZM71.8428 40.5C76.9965 40.5 79.4645 36.2143 79.9726 33.6429C80.5533 30.3572 79.029 26.7857 74.3834 26.7857C69.7378 26.7857 66.9068 30.7143 66.3987 33.7143C65.818 36.2143 66.9068 40.5 71.8428 40.5Z" fill="#F0F2F4"/>
<path fill-rule="evenodd" clip-rule="evenodd" d="M94.9981 20.0715H102.692L102.184 22.9286H102.329C103.201 21.6429 105.16 19.1429 109.879 19.1429L108.354 27.2858C104.58 27.4286 101.821 28.1429 101.023 32.2858L98.2646 47.1429H90.1348L94.9981 20.0715Z" fill="#F0F2F4"/>
<path fill-rule="evenodd" clip-rule="evenodd" d="M115.25 9.57142H123.379L119.605 29.8572H119.75L129.114 20.0714H138.768L126.283 31.9286L133.397 47.0715H124.178L118.952 34.0715H118.806L116.411 47.0715H108.281L115.25 9.57142Z" fill="#F0F2F4"/>
<path fill-rule="evenodd" clip-rule="evenodd" d="M161.996 38.6429C160.109 41.6429 157.786 44.0001 155.173 45.5001C152.633 47.0715 149.729 47.9287 146.971 47.9287C139.131 47.9287 133.687 41.6429 135.211 33.6429C136.591 26.1429 143.922 19.1429 152.197 19.1429C160.472 19.1429 165.335 25.6429 163.811 33.9286C163.666 35.0001 163.448 35.4286 163.23 36.0715H142.833C142.688 39.2858 145.083 41.1429 148.277 41.1429C150.818 41.1429 152.342 40.0001 153.721 38.5715H161.996V38.6429ZM156.262 30.5715C156.189 29.0001 155.173 25.9286 150.963 25.9286C146.753 25.9286 144.575 28.9286 143.922 30.5715H156.262Z" fill="#F0F2F4"/>
<path fill-rule="evenodd" clip-rule="evenodd" d="M258.683 47.0715H250.553L251.061 44.1429H250.916C249.029 46.7858 245.399 48.0001 242.206 48.0001C233.568 48.0001 229.793 41.2857 231.245 33.5C232.842 24.6429 240.318 19.0714 247.65 19.0714C252.077 19.0714 254.183 21.2143 254.908 22.8571H255.054L255.562 20H263.691L258.683 47.0715ZM244.964 40.5C250.118 40.5 252.586 36.2143 253.094 33.6429C253.674 30.3572 252.15 26.7857 247.504 26.7857C242.859 26.7857 240.028 30.7143 239.52 33.7143C239.012 36.2143 240.101 40.5 244.964 40.5Z" fill="#F0F2F4"/>
<path fill-rule="evenodd" clip-rule="evenodd" d="M310.73 36.7857C308.117 42.9286 301.729 47.9286 294.325 47.9286C286.05 47.9286 280.969 41.5 282.421 33.5C283.945 25.5714 291.349 19.1428 299.479 19.1428C306.737 19.1428 311.673 23.8571 311.746 30.5H303.471C302.963 28.6429 301.656 26.7143 298.317 26.7143C294.47 26.5714 291.276 29.7143 290.55 33.5714C289.825 37.5 291.857 40.4286 295.704 40.4286C299.043 40.4286 301.076 38.5 302.237 36.7857H310.73Z" fill="#F0F2F4"/>
<path fill-rule="evenodd" clip-rule="evenodd" d="M318.423 9.57142H326.553L324.157 22.5714H324.302C326.117 20.1429 329.093 19.2143 331.924 19.2143C334.537 19.2143 337.441 20.1429 338.82 22.2143C340.635 24.8572 340.417 27.2857 339.546 32.0714L336.715 47.1429H328.585L331.343 32.4286C331.561 31.1429 332.36 26.7857 328.004 26.7857C323.431 26.7857 322.706 30.7857 322.488 32.1429L319.729 47.1429H311.6L318.423 9.57142Z" fill="#F0F2F4"/>
<path fill-rule="evenodd" clip-rule="evenodd" d="M47.0908 9.50001L32.6459 30.8572V9.50001H25.6775L0.199219 47.0715H10.0711L24.5161 25.7143V47.0715H31.5571L46.002 25.7143V47.0715H54.1318V9.50001H47.0908Z" fill="#F0F2F4"/>
<path fill-rule="evenodd" clip-rule="evenodd" d="M184.428 20.0715H179.274L180.799 12.1429H173.613L173.032 15.2143C172.379 18.7143 170.201 19.7858 167.152 20.0715H167.007L165.846 26.2144H169.838L165.918 47.0715H174.048L177.968 26.2144H183.122L184.428 20.0715Z" fill="#F0F2F4"/>
<path fill-rule="evenodd" clip-rule="evenodd" d="M243.004 -1.52588e-05L227.325 9.57144H231.68L217.235 30.8572V9.5H210.194L195.749 30.8572V9.5H187.619V47.0715H194.66L209.105 25.7143V47.0715H216.074L241.552 9.57144H245.472L243.004 -1.52588e-05Z" fill="#F0F2F4"/>
<path fill-rule="evenodd" clip-rule="evenodd" d="M284.163 20.0715H279.009L280.533 12.1429H273.347L272.766 15.2143C272.113 18.7143 269.935 19.7858 266.887 20.0715H266.741L265.58 26.2144H269.572L265.653 47.0715H273.782L277.702 26.2144H282.856L284.163 20.0715Z" fill="#F0F2F4"/>
</svg>
