<svg width="185" height="48" viewBox="0 0 185 48" fill="none" xmlns="http://www.w3.org/2000/svg">
<g opacity="0.5">
<path d="M48.649 47.5949V0H35.0307V7.43768H41.0808V40.1274H35.0307V47.5949H48.649ZM13.8388 7.43768V0H0.201172V47.5949H13.8388V40.1274H7.77485V7.43768H13.8388Z" fill="#F0F2F4"/>
<path d="M32.0049 47.5949L31.9967 38.6776L16.8673 23.8266V47.5922L32.0049 47.5949ZM16.8672 8.916L31.9966 23.767V0H16.8672V8.916Z" fill="#F0F2F4"/>
<path d="M79.9903 47.6003V25.271H73.943V39.4689L66.9539 25.271H58.9004V47.6003H64.9478V33.3713L71.9065 47.6003H79.9903ZM92.4904 37.0976C85.3442 37.5909 81.3333 39.1613 81.3333 43.0421C81.3333 45.9987 84.0908 48.0001 87.3503 48.0001C89.7328 48.0001 91.8314 47.2914 93.0847 45.4445V47.6003H98.9142C98.757 46.2453 98.6012 44.2738 98.6012 42.58V40.9472L98.6315 37.7751C98.7266 32.2318 95.2783 30.4458 90.4208 30.4458C84.9056 30.4458 81.9909 33.4635 81.7399 36.5746H87.131C87.3502 35.1274 88.3843 34.4499 89.9823 34.4499C91.3308 34.4499 92.4903 34.8185 92.4903 36.6356L92.4904 37.0976ZM92.7096 40.6708C92.7096 43.2264 91.2991 43.8741 89.7011 43.8741C88.2272 43.8741 87.6329 43.0732 87.6329 42.3646C87.6329 40.9174 89.3564 40.393 92.7096 40.1776V40.6708ZM102.043 31.0312H98.6591V34.912H102.043V42.6112C102.043 47.1694 103.61 47.6003 108.279 47.6003H112.604V43.4418H109.532C108.687 43.4418 108.311 43.2575 108.311 42.3022V34.912H112.604V31.0312H108.311V26.4729H102.043V31.0312ZM113.915 47.6003H120.183V31.0312H113.915V47.6003ZM113.915 29.645H120.183V25.2724H113.915V29.645ZM130.426 35.1274C132.024 35.1274 133.246 36.2047 133.246 39.2846C133.246 42.3646 132.024 43.412 130.426 43.412C128.827 43.412 127.605 42.3646 127.605 39.2846C127.605 36.2047 128.827 35.1274 130.426 35.1274ZM130.426 48.0001C135.408 48.0001 139.701 45.1058 139.701 39.2846C139.701 33.4946 135.408 30.538 130.426 30.538C125.38 30.538 121.15 33.4946 121.15 39.2846C121.15 45.1058 125.38 48.0001 130.426 48.0001ZM146.936 31.0312H140.668V47.6003H146.936V38.9147C146.936 36.4824 147.938 35.5881 149.474 35.5881C151.323 35.5881 151.511 37.0678 151.511 38.4526V47.6003H157.779V37.2209C157.779 33.187 156.37 30.6613 152.17 30.6613C149.819 30.6613 148.096 31.4933 146.936 33.187V31.0312ZM170.404 37.0976C163.258 37.5909 159.247 39.1613 159.247 43.0421C159.247 45.9987 162.005 48.0001 165.264 48.0001C167.645 48.0001 169.745 47.2914 170.999 45.4445V47.6003H176.828C176.671 46.2453 176.515 44.2738 176.515 42.58V40.9472L176.545 37.7751C176.641 32.2318 173.192 30.4458 168.335 30.4458C162.82 30.4458 159.905 33.4635 159.655 36.5746H165.045C165.264 35.1274 166.298 34.4499 167.896 34.4499C169.245 34.4499 170.404 34.8185 170.404 36.6356L170.404 37.0976ZM170.624 40.6708C170.624 43.2264 169.213 43.8741 167.615 43.8741C166.141 43.8741 165.547 43.0732 165.547 42.3646C165.547 40.9174 167.27 40.393 170.624 40.1776V40.6708ZM185.002 25.271H178.735V47.6003H185.002V25.271Z" fill="#F0F2F4"/>
<path d="M58.9984 22.3456H65.5476V5.52981H72.3478V0.0176086H52.2285V5.52981H58.9984V22.3456ZM79.6457 0.0176086H73.3777V22.3456H79.6457V13.6911C79.6457 11.2588 80.6481 10.3659 82.1827 10.3659C84.033 10.3659 84.2205 11.8428 84.2205 13.229V22.3456H90.4885V11.9675C90.4885 7.93226 89.078 5.40651 84.8782 5.40651C82.5288 5.40651 80.8053 6.23849 79.6457 7.93227V0.0176086ZM101.202 22.7765C106.466 22.7765 109.287 19.2046 110.038 16.771H104.147C103.77 17.664 102.517 18.2494 101.295 18.2494C99.321 18.2494 98.1298 17.1721 97.9105 15.4783H110.07C110.477 9.71817 106.811 5.1599 100.919 5.1599C95.8106 5.1599 91.8314 8.54879 91.8314 13.8455C91.8314 19.0502 95.2467 22.7765 101.202 22.7765ZM101.326 9.37941C102.674 9.37941 104.366 10.0881 104.523 12.0596H98.0043C98.4124 10.0881 100.01 9.37941 101.326 9.37941Z" fill="#F0F2F4"/>
</g>
</svg>
