<svg width="60" height="38" viewBox="0 0 60 38" fill="none" xmlns="http://www.w3.org/2000/svg">
<path d="M34.1376 23.8025C33.964 22.7453 33.7652 21.4159 33.5412 19.7246C33.0197 16.0989 32.2742 11.4167 31.7527 7.64024C31.4294 5.43497 31.1066 3.1991 30.7833 0.963898H23.8344C20.4673 5.83444 15.9945 12.3764 13.9878 15.1931C9.34197 21.718 3.75186 29.6029 0 34.8902H7.42891C10.2114 30.9623 14.1124 25.2528 17.3667 20.5706C19.2798 17.8215 21.218 15.0417 23.1808 12.2023L25.0196 9.57398V9.54344L26.4357 19.2106H20.1001L25.7399 25.4341H34.3861C34.3113 24.9506 34.2119 24.4068 34.1376 23.8025Z" fill="white"/>
<path d="M34.1376 23.8025C33.964 22.7453 33.7652 21.4159 33.5412 19.7246C33.0197 16.0989 32.2742 11.4167 31.7527 7.64024C31.4294 5.43497 31.1066 3.1991 30.7833 0.963898H23.8344C20.4673 5.83444 15.9945 12.3764 13.9878 15.1931C9.34197 21.718 3.75186 29.6029 0 34.8902H7.42891C10.2114 30.9623 14.1124 25.2528 17.3667 20.5706C19.2798 17.8215 21.218 15.0417 23.1808 12.2023L25.0196 9.57398V9.54344L26.4357 19.2106H20.1001L25.7399 25.4341H34.3861C34.3113 24.9506 34.2119 24.4068 34.1376 23.8025Z" fill="url(#paint0_linear_16690_199)"/>
<path d="M39.0076 10.0569C38.2624 12.4734 37.2432 16.2796 36.3 19.5429C35.753 21.446 35.2065 23.4096 34.6348 25.4336H40.1478C40.2721 25.3469 40.3993 25.2559 40.5333 25.1599C40.9211 24.882 41.3206 24.5869 41.7247 24.2805C42.1901 22.6504 43.063 19.4868 43.8773 16.7028C44.3996 14.86 44.9708 12.836 45.5916 10.6912C45.6169 10.5703 45.6411 10.4494 45.766 10.057C45.7671 10.052 45.7682 10.047 45.77 10.0421L39.0076 10.0569Z" fill="white"/>
<path d="M39.0076 10.0569C38.2624 12.4734 37.2432 16.2796 36.3 19.5429C35.753 21.446 35.2065 23.4096 34.6348 25.4336H40.1478C40.2721 25.3469 40.3993 25.2559 40.5333 25.1599C40.9211 24.882 41.3206 24.5869 41.7247 24.2805C42.1901 22.6504 43.063 19.4868 43.8773 16.7028C44.3996 14.86 44.9708 12.836 45.5916 10.6912C45.6169 10.5703 45.6411 10.4494 45.766 10.057C45.7671 10.052 45.7682 10.047 45.77 10.0421L39.0076 10.0569Z" fill="url(#paint1_linear_16690_199)"/>
<path d="M43.6642 7.53035C45.3103 7.53035 46.6448 5.84461 46.6448 3.76514C46.6448 1.68568 45.3103 -6.10352e-05 43.6642 -6.10352e-05C42.018 -6.10352e-05 40.6836 1.68568 40.6836 3.76514C40.6836 5.84461 42.018 7.53035 43.6642 7.53035Z" fill="#F0F2F4"/>
<path d="M48.2338 24.2719C47.9007 24.5771 47.5615 24.8813 47.2159 25.1834C45.733 26.4815 44.1363 27.7495 42.4461 28.9607C42.2558 29.0974 42.064 29.2331 41.8712 29.3679C41.4136 29.6883 40.9491 30.0047 40.4787 30.3154C40.2739 30.4514 40.0677 30.5859 39.8608 30.7196C39.6153 30.8786 39.3682 31.0361 39.1195 31.1914C38.0254 31.8765 36.9378 32.5119 35.8637 33.0956C35.1322 33.4935 34.4069 33.8676 33.6899 34.2177C23.5349 39.1782 14.9697 39.3647 13.4346 34.1519C12.3955 30.623 14.8052 25.3884 19.4057 20.1022C16.4709 24.0635 15.0581 27.8596 15.8566 30.5724C16.8596 33.9777 21.1122 34.8726 26.7704 33.445C29.0748 32.8636 31.6123 31.8972 34.2583 30.5576C34.9783 30.1935 35.7063 29.8018 36.4404 29.382C37.045 29.0366 37.6533 28.6725 38.2645 28.2897C38.9244 27.8758 39.5719 27.4506 40.2055 27.0154C40.2918 26.9558 40.378 26.8962 40.4638 26.8365C40.6734 26.691 40.8811 26.5439 41.0873 26.3958C41.5656 26.0533 42.0347 25.7044 42.4948 25.3521C42.6904 25.202 42.8845 25.051 43.0767 24.8994C44.8564 23.4946 46.489 22.0221 47.9384 20.5302C48.3004 20.1577 48.6503 19.7846 48.9887 19.4104C53.4362 14.4952 55.8126 9.5018 54.8284 6.15792C54.0291 3.44494 51.1692 2.32598 47.1789 2.70297C52.9748 1.47675 57.236 2.53159 58.2754 6.06063C59.5884 10.5203 55.3948 17.7011 48.2338 24.2719Z" fill="#F0F2F4"/>
<path d="M59.9993 17.4285C59.9982 17.4329 59.9976 17.4367 59.9966 17.4412H59.9883C59.9921 17.4367 59.996 17.4329 59.9993 17.4285Z" fill="#FA6A09"/>
<defs>
<linearGradient id="paint0_linear_16690_199" x1="-1.75463e-07" y1="17.7521" x2="34.3861" y2="17.7521" gradientUnits="userSpaceOnUse">
<stop stop-color="#7755FF"/>
<stop offset="0.198933" stop-color="#6371F2"/>
<stop offset="0.39624" stop-color="#40A4DA"/>
<stop offset="0.60106" stop-color="#34AED2"/>
<stop offset="0.796668" stop-color="#1BC4BF"/>
<stop offset="1" stop-color="#0DCFB3"/>
</linearGradient>
<linearGradient id="paint1_linear_16690_199" x1="34.6348" y1="17.6585" x2="45.77" y2="17.6585" gradientUnits="userSpaceOnUse">
<stop stop-color="#7755FF"/>
<stop offset="0.198933" stop-color="#6371F2"/>
<stop offset="0.39624" stop-color="#40A4DA"/>
<stop offset="0.60106" stop-color="#34AED2"/>
<stop offset="0.796668" stop-color="#1BC4BF"/>
<stop offset="1" stop-color="#0DCFB3"/>
</linearGradient>
</defs>
</svg>
