<svg width="177" height="38" viewBox="0 0 177 38" fill="none" xmlns="http://www.w3.org/2000/svg">
<path d="M34.1376 23.8025C33.964 22.7453 33.7652 21.4159 33.5412 19.7246C33.0197 16.0988 32.2742 11.4166 31.7527 7.64021C31.4294 5.43494 31.1066 3.19907 30.7833 0.963867H23.8344C20.4673 5.83441 15.9945 12.3764 13.9878 15.1931C9.34197 21.718 3.75186 29.6029 0 34.8901H7.42891C10.2114 30.9622 14.1124 25.2528 17.3667 20.5706C19.2798 17.8214 21.218 15.0417 23.1808 12.2022L25.0196 9.57395V9.54341L26.4357 19.2106H20.1001L25.7399 25.4341H34.3861C34.3113 24.9506 34.2119 24.4067 34.1376 23.8025Z" fill="white"/>
<path d="M34.1376 23.8025C33.964 22.7453 33.7652 21.4159 33.5412 19.7246C33.0197 16.0988 32.2742 11.4166 31.7527 7.64021C31.4294 5.43494 31.1066 3.19907 30.7833 0.963867H23.8344C20.4673 5.83441 15.9945 12.3764 13.9878 15.1931C9.34197 21.718 3.75186 29.6029 0 34.8901H7.42891C10.2114 30.9622 14.1124 25.2528 17.3667 20.5706C19.2798 17.8214 21.218 15.0417 23.1808 12.2022L25.0196 9.57395V9.54341L26.4357 19.2106H20.1001L25.7399 25.4341H34.3861C34.3113 24.9506 34.2119 24.4067 34.1376 23.8025Z" fill="url(#paint0_linear_16331_262)"/>
<path d="M39.0076 10.0569C38.2624 12.4733 37.2432 16.2796 36.3 19.5428C35.753 21.4459 35.2065 23.4095 34.6348 25.4336H40.1478C40.2721 25.3468 40.3993 25.2558 40.5333 25.1599C40.9211 24.8819 41.3206 24.5869 41.7247 24.2805C42.1901 22.6503 43.063 19.4867 43.8773 16.7027C44.3996 14.86 44.9708 12.836 45.5916 10.6911C45.6169 10.5702 45.6411 10.4494 45.766 10.057C45.7671 10.052 45.7682 10.047 45.77 10.042L39.0076 10.0569Z" fill="white"/>
<path d="M39.0076 10.0569C38.2624 12.4733 37.2432 16.2796 36.3 19.5428C35.753 21.4459 35.2065 23.4095 34.6348 25.4336H40.1478C40.2721 25.3468 40.3993 25.2558 40.5333 25.1599C40.9211 24.8819 41.3206 24.5869 41.7247 24.2805C42.1901 22.6503 43.063 19.4867 43.8773 16.7027C44.3996 14.86 44.9708 12.836 45.5916 10.6911C45.6169 10.5702 45.6411 10.4494 45.766 10.057C45.7671 10.052 45.7682 10.047 45.77 10.042L39.0076 10.0569Z" fill="url(#paint1_linear_16331_262)"/>
<path d="M43.6642 7.53041C45.3103 7.53041 46.6448 5.84467 46.6448 3.76521C46.6448 1.68574 45.3103 0 43.6642 0C42.018 0 40.6836 1.68574 40.6836 3.76521C40.6836 5.84467 42.018 7.53041 43.6642 7.53041Z" fill="white"/>
<path d="M48.2338 24.2716C47.9007 24.5767 47.5615 24.881 47.2159 25.1831C45.733 26.4811 44.1363 27.7492 42.4461 28.9603C42.2558 29.097 42.064 29.2327 41.8712 29.3676C41.4136 29.688 40.9491 30.0043 40.4787 30.3151C40.2739 30.4511 40.0677 30.5856 39.8608 30.7193C39.6153 30.8782 39.3682 31.0357 39.1195 31.191C38.0254 31.8762 36.9378 32.5115 35.8637 33.0952C35.1322 33.4932 34.4069 33.8672 33.6899 34.2173C23.5349 39.1779 14.9697 39.3644 13.4346 34.1516C12.3955 30.6226 14.8052 25.3881 19.4057 20.1018C16.4709 24.0632 15.0581 27.8592 15.8566 30.572C16.8596 33.9773 21.1122 34.8723 26.7704 33.4446C29.0748 32.8632 31.6123 31.8968 34.2583 30.5572C34.9783 30.1931 35.7063 29.8014 36.4404 29.3817C37.045 29.0362 37.6533 28.6721 38.2645 28.2893C38.9244 27.8755 39.5719 27.4502 40.2055 27.015C40.2918 26.9554 40.378 26.8958 40.4638 26.8361C40.6734 26.6906 40.8811 26.5435 41.0873 26.3955C41.5656 26.053 42.0347 25.7041 42.4948 25.3518C42.6904 25.2017 42.8845 25.0506 43.0767 24.899C44.8564 23.4943 46.489 22.0218 47.9384 20.5298C48.3004 20.1573 48.6503 19.7843 48.9887 19.41C53.4362 14.4949 55.8126 9.50143 54.8284 6.15755C54.0291 3.44457 51.1692 2.32561 47.1789 2.70261C52.9748 1.47639 57.236 2.53123 58.2754 6.06027C59.5884 10.5199 55.3948 17.7008 48.2338 24.2716Z" fill="white"/>
<path d="M59.9993 17.4287C59.9982 17.4331 59.9976 17.437 59.9966 17.4414H59.9883C59.9921 17.437 59.996 17.4331 59.9993 17.4287Z" fill="#FA6A09"/>
<path d="M68.6504 30L76.3624 6.64H84.8424L92.8424 30H87.4024L80.9384 10.256L82.6024 10.928H78.4744L80.2024 10.256L73.8984 30H68.6504ZM74.5064 24.208L76.1064 19.856H85.2584L86.8904 24.208H74.5064ZM96.4336 30V12.464H101.554V30H96.4336ZM94.0976 16.24V12.464H101.554V16.24H94.0976ZM98.4176 10.736C97.4576 10.736 96.743 10.4907 96.2736 10C95.8256 9.488 95.6016 8.848 95.6016 8.08C95.6016 7.29066 95.8256 6.65066 96.2736 6.16C96.743 5.648 97.4576 5.392 98.4176 5.392C99.3776 5.392 100.082 5.648 100.53 6.16C100.999 6.65066 101.234 7.29066 101.234 8.08C101.234 8.848 100.999 9.488 100.53 10C100.082 10.4907 99.3776 10.736 98.4176 10.736ZM109.681 30L104.433 12.464H109.713L114.641 30H109.681ZM111.281 30V25.744H116.433V30H111.281ZM113.169 30L117.425 12.464H122.353L117.809 30H113.169ZM133.521 30.608C131.985 30.608 130.619 30.3733 129.425 29.904C128.23 29.4133 127.217 28.752 126.385 27.92C125.574 27.088 124.955 26.1387 124.529 25.072C124.102 23.984 123.889 22.8427 123.889 21.648V20.912C123.889 19.696 124.102 18.544 124.529 17.456C124.977 16.3467 125.617 15.376 126.449 14.544C127.302 13.712 128.326 13.0613 129.521 12.592C130.715 12.1013 132.049 11.856 133.521 11.856C135.035 11.856 136.379 12.1013 137.553 12.592C138.747 13.0613 139.761 13.712 140.593 14.544C141.425 15.376 142.065 16.3467 142.513 17.456C142.961 18.544 143.185 19.696 143.185 20.912V21.648C143.185 22.8427 142.971 23.984 142.545 25.072C142.118 26.1387 141.489 27.088 140.657 27.92C139.846 28.752 138.843 29.4133 137.649 29.904C136.454 30.3733 135.078 30.608 133.521 30.608ZM133.521 26.288C134.523 26.288 135.355 26.0747 136.017 25.648C136.678 25.2213 137.179 24.624 137.521 23.856C137.883 23.088 138.065 22.2347 138.065 21.296C138.065 20.2933 137.883 19.4187 137.521 18.672C137.158 17.904 136.635 17.296 135.953 16.848C135.291 16.4 134.481 16.176 133.521 16.176C132.582 16.176 131.771 16.4 131.089 16.848C130.406 17.296 129.883 17.904 129.521 18.672C129.179 19.4187 129.009 20.2933 129.009 21.296C129.009 22.2347 129.179 23.088 129.521 23.856C129.862 24.624 130.374 25.2213 131.057 25.648C131.739 26.0747 132.561 26.288 133.521 26.288ZM146.758 30V12.464H150.822V19.984H150.726C150.726 17.5093 151.249 15.6 152.294 14.256C153.361 12.912 154.897 12.24 156.902 12.24H157.574V16.656H156.294C154.886 16.656 153.798 17.04 153.03 17.808C152.262 18.5547 151.878 19.6427 151.878 21.072V30H146.758ZM170.694 30V24.816H169.83V19.184C169.83 18.288 169.616 17.616 169.19 17.168C168.763 16.72 168.08 16.496 167.142 16.496C166.672 16.496 166.054 16.5067 165.286 16.528C164.518 16.5493 163.728 16.5813 162.918 16.624C162.107 16.6667 161.371 16.7093 160.71 16.752V12.432C161.2 12.3893 161.776 12.3467 162.438 12.304C163.099 12.2613 163.782 12.2293 164.486 12.208C165.19 12.1867 165.851 12.176 166.47 12.176C168.262 12.176 169.766 12.432 170.982 12.944C172.219 13.456 173.158 14.2347 173.798 15.28C174.438 16.304 174.758 17.6267 174.758 19.248V30H170.694ZM165.094 30.448C163.835 30.448 162.726 30.224 161.766 29.776C160.827 29.328 160.091 28.688 159.558 27.856C159.024 27.0027 158.758 25.9893 158.758 24.816C158.758 23.536 159.088 22.4907 159.75 21.68C160.411 20.848 161.339 20.24 162.534 19.856C163.728 19.4507 165.104 19.248 166.662 19.248H170.406V22.096H166.63C165.734 22.096 165.04 22.32 164.55 22.768C164.08 23.1947 163.846 23.7813 163.846 24.528C163.846 25.232 164.08 25.808 164.55 26.256C165.04 26.6827 165.734 26.896 166.63 26.896C167.206 26.896 167.718 26.8 168.166 26.608C168.635 26.3947 169.019 26.0427 169.318 25.552C169.616 25.0613 169.787 24.3787 169.83 23.504L171.046 24.784C170.939 26 170.64 27.024 170.15 27.856C169.68 28.688 169.019 29.328 168.166 29.776C167.334 30.224 166.31 30.448 165.094 30.448Z" fill="white"/>
<defs>
<linearGradient id="paint0_linear_16331_262" x1="-1.75463e-07" y1="17.7521" x2="34.3861" y2="17.7521" gradientUnits="userSpaceOnUse">
<stop stop-color="#7755FF"/>
<stop offset="0.198933" stop-color="#6371F2"/>
<stop offset="0.39624" stop-color="#40A4DA"/>
<stop offset="0.60106" stop-color="#34AED2"/>
<stop offset="0.796668" stop-color="#1BC4BF"/>
<stop offset="1" stop-color="#0DCFB3"/>
</linearGradient>
<linearGradient id="paint1_linear_16331_262" x1="34.6348" y1="17.6584" x2="45.77" y2="17.6584" gradientUnits="userSpaceOnUse">
<stop stop-color="#7755FF"/>
<stop offset="0.198933" stop-color="#6371F2"/>
<stop offset="0.39624" stop-color="#40A4DA"/>
<stop offset="0.60106" stop-color="#34AED2"/>
<stop offset="0.796668" stop-color="#1BC4BF"/>
<stop offset="1" stop-color="#0DCFB3"/>
</linearGradient>
</defs>
</svg>
