<svg width="250" height="158" viewBox="0 0 250 158" fill="none" xmlns="http://www.w3.org/2000/svg">
<path d="M141.941 98.9686C141.219 94.5731 140.392 89.0455 139.461 82.0133C137.292 66.9378 134.193 47.4697 132.024 31.7678C130.68 22.5985 129.338 13.302 127.994 4.00824H99.1009C85.1007 24.2594 66.5033 51.4603 58.16 63.1718C38.8429 90.3017 15.5999 123.086 0 145.07H30.8886C42.4579 128.738 58.6777 104.999 72.2089 85.531C80.1632 74.1002 88.222 62.5424 96.3831 50.7362L104.029 39.8081V39.6811L109.917 79.8762H83.574L107.024 105.753H142.974C142.663 103.743 142.249 101.481 141.941 98.9686Z" fill="white"/>
<path d="M141.941 98.9686C141.219 94.5731 140.392 89.0455 139.461 82.0133C137.292 66.9378 134.193 47.4697 132.024 31.7678C130.68 22.5985 129.338 13.302 127.994 4.00824H99.1009C85.1007 24.2594 66.5033 51.4603 58.16 63.1718C38.8429 90.3017 15.5999 123.086 0 145.07H30.8886C42.4579 128.738 58.6777 104.999 72.2089 85.531C80.1632 74.1002 88.222 62.5424 96.3831 50.7362L104.029 39.8081V39.6811L109.917 79.8762H83.574L107.024 105.753H142.974C142.663 103.743 142.249 101.481 141.941 98.9686Z" fill="url(#paint0_linear_18203_354)"/>
<path d="M162.191 41.8158C159.093 51.8632 154.855 67.6893 150.934 81.2574C148.659 89.1704 146.387 97.3349 144.01 105.751H166.932C167.449 105.39 167.978 105.012 168.535 104.613C170.147 103.457 171.809 102.23 173.489 100.956C175.424 94.1781 179.053 81.0241 182.439 69.4486C184.611 61.7867 186.986 53.371 189.567 44.4529C189.672 43.9503 189.773 43.4479 190.292 41.8162C190.297 41.7955 190.302 41.7748 190.309 41.754L162.191 41.8158Z" fill="white"/>
<path d="M162.191 41.8158C159.093 51.8632 154.855 67.6893 150.934 81.2574C148.659 89.1704 146.387 97.3349 144.01 105.751H166.932C167.449 105.39 167.978 105.012 168.535 104.613C170.147 103.457 171.809 102.23 173.489 100.956C175.424 94.1781 179.053 81.0241 182.439 69.4486C184.611 61.7867 186.986 53.371 189.567 44.4529C189.672 43.9503 189.773 43.4479 190.292 41.8162C190.297 41.7955 190.302 41.7748 190.309 41.754L162.191 41.8158Z" fill="url(#paint1_linear_18203_354)"/>
<path d="M181.551 31.3106C188.396 31.3106 193.944 24.3015 193.944 15.6553C193.944 7.00913 188.396 0 181.551 0C174.707 0 169.158 7.00913 169.158 15.6553C169.158 24.3015 174.707 31.3106 181.551 31.3106Z" fill="#F0F2F4"/>
<path d="M200.55 100.92C199.165 102.189 197.754 103.454 196.317 104.71C190.151 110.107 183.513 115.38 176.485 120.416C175.694 120.984 174.896 121.548 174.095 122.109C172.192 123.441 170.26 124.757 168.305 126.049C167.453 126.614 166.596 127.173 165.736 127.729C164.715 128.39 163.687 129.045 162.653 129.691C158.104 132.54 153.582 135.181 149.116 137.608C146.075 139.263 143.059 140.818 140.077 142.274C97.8542 162.899 62.241 163.675 55.8581 142C51.5379 127.327 61.5571 105.563 80.6853 83.583C68.4828 100.054 62.6085 115.837 65.9286 127.117C70.0992 141.276 87.7807 144.997 111.307 139.061C120.889 136.644 131.439 132.625 142.441 127.056C145.434 125.541 148.462 123.913 151.514 122.168C154.028 120.731 156.557 119.218 159.098 117.626C161.842 115.905 164.535 114.137 167.169 112.327C167.528 112.079 167.886 111.832 168.243 111.583C169.114 110.979 169.978 110.367 170.835 109.751C172.824 108.327 174.774 106.877 176.687 105.412C177.501 104.788 178.308 104.16 179.107 103.529C186.507 97.6885 193.295 91.5659 199.321 85.3626C200.827 83.8139 202.281 82.2626 203.688 80.7066C222.181 60.2699 232.061 39.5077 227.969 25.6042C224.646 14.324 212.755 9.67143 196.163 11.2389C220.262 6.14045 237.98 10.5264 242.302 25.1997C247.761 43.7425 230.324 73.5998 200.55 100.92Z" fill="#F0F2F4"/>
<path d="M249.47 72.4661C249.465 72.4842 249.463 72.5002 249.458 72.5185H249.424C249.44 72.5002 249.456 72.4842 249.47 72.4661Z" fill="#FA6A09"/>
<defs>
<linearGradient id="paint0_linear_18203_354" x1="-7.29555e-07" y1="73.812" x2="142.974" y2="73.812" gradientUnits="userSpaceOnUse">
<stop stop-color="#7755FF"/>
<stop offset="0.198933" stop-color="#6371F2"/>
<stop offset="0.39624" stop-color="#40A4DA"/>
<stop offset="0.60106" stop-color="#34AED2"/>
<stop offset="0.796668" stop-color="#1BC4BF"/>
<stop offset="1" stop-color="#0DCFB3"/>
</linearGradient>
<linearGradient id="paint1_linear_18203_354" x1="144.01" y1="73.4224" x2="190.309" y2="73.4224" gradientUnits="userSpaceOnUse">
<stop stop-color="#7755FF"/>
<stop offset="0.198933" stop-color="#6371F2"/>
<stop offset="0.39624" stop-color="#40A4DA"/>
<stop offset="0.60106" stop-color="#34AED2"/>
<stop offset="0.796668" stop-color="#1BC4BF"/>
<stop offset="1" stop-color="#0DCFB3"/>
</linearGradient>
</defs>
</svg>
